<?xml version="1.0" encoding="utf-8"?><svg xmlns="http://www.w3.org/2000/svg" xmlns:xlink="http://www.w3.org/1999/xlink"><symbol viewBox="0 0 12 12" id="acc-arrow" xmlns="http://www.w3.org/2000/svg"><g clip-path="url(#aaclip0_237_9340)"><path d="M5.67 2.897L.137 8.447a.465.465 0 00.659.657L6 3.884l5.206 5.22a.465.465 0 10.658-.657L6.33 2.897a.465.465 0 00-.658 0z"/></g><defs><clipPath id="aaclip0_237_9340"><path fill="#fff" transform="rotate(-90 6 6)" d="M0 0h12v12H0z"/></clipPath></defs></symbol><symbol fill="none" viewBox="0 0 18 18" id="arrow-bottom" xmlns="http://www.w3.org/2000/svg"><path d="M.004 8.22a.391.391 0 01.669-.277l8.329 8.33 8.33-8.33a.391.391 0 01.552.554l-8.606 8.606a.391.391 0 01-.553 0L.119 8.497a.391.391 0 01-.115-.277z" fill="#fff"/><path d="M.004 3.179a.391.391 0 01.669-.277l8.329 8.33 8.33-8.33a.392.392 0 01.553.554L9.28 12.062a.391.391 0 01-.553 0L.119 3.456a.391.391 0 01-.115-.277z" fill="#fff"/></symbol><symbol fill="none" viewBox="0 0 90 70" id="btn-player" xmlns="http://www.w3.org/2000/svg"><path d="M76.816 69.277H13.184C5.914 69.277 0 63.363 0 56.094V13.906C0 6.637 5.915.723 13.184.723h63.632C84.086.723 90 6.637 90 13.906v42.188c0 7.269-5.915 13.183-13.184 13.183z" fill="#F0AE20"/><path d="M45 69.277h31.816c7.27 0 13.184-5.914 13.184-13.183V13.906C90 6.637 84.085.723 76.816.723H45v68.554z" fill="#E29E0B"/><path d="M37.09 50.82a2.64 2.64 0 01-2.637-2.637V21.817c0-.957.52-1.84 1.36-2.307a2.629 2.629 0 012.675.072l21.094 13.184a2.637 2.637 0 010 4.47L38.488 50.42a2.629 2.629 0 01-1.398.401z" fill="#FFF5F5"/><path d="M45 46.349l14.582-9.114a2.637 2.637 0 000-4.47L45 23.65v22.7z" fill="#E3E7EA"/></symbol><symbol fill="none" viewBox="0 0 25 25" id="calculator" xmlns="http://www.w3.org/2000/svg"><path d="M24.48 11.98c.29 0 .52.228.52.52 0 .292-.23.52-.52.52h-.522v-1.04h.521zm-11.46 0h10.938v1.04H13.021v-1.04z" fill="#474747"/><path d="M22.396 25H12.5c.292 0 .52-.23.52-.52v-.522h9.376a1.56 1.56 0 001.562-1.562V13.02h.521c.292 0 .521-.23.521-.521v9.896A2.605 2.605 0 0122.396 25z" fill="#474747"/><path d="M25 2.604V12.5c0-.292-.23-.52-.52-.52h-.522V2.603a1.56 1.56 0 00-1.562-1.562H13.02V.52c0-.291-.23-.52-.52-.52h9.896A2.605 2.605 0 0125 2.604z" fill="#474747"/><path d="M20.833 6.25c.292 0 .521.23.521.52a.516.516 0 01-.52.522h-4.167a.516.516 0 01-.521-.521c0-.292.229-.521.52-.521h4.167z" fill="#474747"/><path d="M20.833 16.667c.292 0 .521.229.521.52a.515.515 0 01-.52.521h-4.167a.516.516 0 01-.521-.52c0-.292.229-.521.52-.521h4.167zm0 3.125c.292 0 .521.229.521.52a.515.515 0 01-.52.521h-4.167a.516.516 0 01-.521-.52c0-.292.229-.521.52-.521h4.167z" fill="#F0AE20"/><path d="M13.02 23.958v.521c0 .292-.228.52-.52.52a.516.516 0 01-.52-.52v-.52h1.04zM11.98 13.02h1.04v10.938h-1.04V13.021zm0-1.04h1.04v1.04h-1.04v-1.04zm0-10.938h1.04v10.937h-1.04V1.042zM13.02.52v.522h-1.04V.52c0-.292.228-.521.52-.521.292 0 .52.23.52.52zM1.042 11.98h10.937v1.04H1.042v-1.04z" fill="#474747"/><path d="M8.333 6.25c.292 0 .521.23.521.52a.516.516 0 01-.52.522H6.77V6.25h1.562z" fill="#F0AE20"/><path d="M8.177 19.948a.504.504 0 010 .73.488.488 0 01-.364.155.488.488 0 01-.365-.156L6.25 19.48l.73-.729 1.197 1.198zm-.729-3.125a.504.504 0 01.73 0 .503.503 0 010 .73l-1.2 1.197-.729-.73 1.198-1.197zm-1.93 1.926l.729-.73.73.73-.73.73-.73-.73z" fill="#474747"/><path d="M6.77 7.292v1.562a.515.515 0 01-.52.521.516.516 0 01-.52-.52V7.291h1.04z" fill="#F0AE20"/><path d="M5.73 6.25h1.04v1.042H5.73V6.25zm1.04-1.562V6.25H5.73V4.688c0-.292.228-.521.52-.521.292 0 .52.229.52.52z" fill="#F0AE20"/><path d="M6.25 18.02l-.73.73-1.197-1.198a.503.503 0 010-.729.504.504 0 01.73 0l1.197 1.198z" fill="#474747"/><path d="M5.73 6.25v1.042H4.166a.516.516 0 01-.521-.521c0-.292.229-.521.52-.521H5.73z" fill="#F0AE20"/><path d="M5.052 20.677a.488.488 0 01-.364.156.488.488 0 01-.365-.156.504.504 0 010-.73L5.52 18.75l.729.73-1.198 1.197zm-4.01-8.697v1.04H.52A.516.516 0 010 12.5c0-.292.23-.52.52-.52h.522z" fill="#474747"/><path d="M0 2.604A2.605 2.605 0 012.604 0H12.5c-.292 0-.52.23-.52.52v.522H2.603a1.56 1.56 0 00-1.562 1.562v9.375H.52a.516.516 0 00-.521.521V2.604zm1.042 19.792a1.56 1.56 0 001.562 1.562h9.375v.521c0 .292.23.521.521.521H2.604A2.605 2.605 0 010 22.396V12.5c0 .292.23.52.52.52h.522v9.376z" fill="#474747"/></symbol><symbol fill="none" viewBox="0 0 20 20" id="calendar" xmlns="http://www.w3.org/2000/svg"><path d="M18.438 1.563h-1.875V1.25a.938.938 0 00-1.875 0v.313h-.626V1.25a.938.938 0 00-1.874 0v.313H7.811V1.25a.937.937 0 10-1.875 0v.313h-.625V1.25a.937.937 0 10-1.875 0v.313H1.563a1.25 1.25 0 00-1.25 1.25v15.624a1.25 1.25 0 001.25 1.25h16.875a1.25 1.25 0 001.25-1.25V2.813a1.25 1.25 0 00-1.25-1.25zm-3.125-.313a.312.312 0 11.624 0v1.875a.312.312 0 11-.624 0V1.25zm-2.5 0a.312.312 0 11.624 0v1.875a.312.312 0 11-.624 0V1.25zm-6.25 0a.312.312 0 11.625 0v1.875a.312.312 0 11-.625 0V1.25zm-2.5 0a.312.312 0 11.625 0v1.875a.312.312 0 11-.625 0V1.25zm-2.5.938h1.875v.937a.937.937 0 101.874 0v-.938h.625v.938a.937.937 0 101.875 0v-.938h4.375v.938a.938.938 0 001.876 0v-.938h.624v.938a.938.938 0 001.876 0v-.938h1.875a.625.625 0 01.625.626v1.874H.938V2.813a.625.625 0 01.625-.624zm16.875 16.875H1.563a.625.625 0 01-.625-.625V5.313h18.125v13.125a.624.624 0 01-.625.625z" fill="#fff"/><path d="M14.026 13.232a.922.922 0 110-1.843.922.922 0 010 1.843zm0-1.443a.521.521 0 10-.001 1.043.521.521 0 000-1.043zM5.98 13.232a.922.922 0 11.001-1.843.922.922 0 010 1.843zm0-1.443a.522.522 0 10.001 1.044.522.522 0 000-1.044zm6.686 2.536H7.398a.2.2 0 01-.17-.306l.587-.946a.2.2 0 01.17-.095h4.095a.2.2 0 01.17.095l.586.946a.2.2 0 01-.17.306zm-4.908-.4h4.549l-.339-.546H8.097l-.34.546z" fill="#F0AE20"/><path d="M15.216 15.257H4.792a.78.78 0 01-.78-.78v-1.793a2.067 2.067 0 012.064-2.064h7.855a2.067 2.067 0 012.065 2.064v1.793a.781.781 0 01-.78.78zm-9.14-4.237a1.666 1.666 0 00-1.665 1.665v1.792a.38.38 0 00.38.38h10.425a.38.38 0 00.38-.38v-1.793a1.666 1.666 0 00-1.665-1.664H6.076z" fill="#fff"/><path d="M14.687 16.221h-1.082a.448.448 0 01-.448-.448v-.717a.2.2 0 01.2-.2h1.578a.2.2 0 01.2.2v.717a.448.448 0 01-.448.448zm-1.13-.965v.517a.048.048 0 00.047.048h1.083a.048.048 0 00.048-.048v-.517h-1.178zm-7.155.965H5.32a.448.448 0 01-.448-.448v-.717a.2.2 0 01.2-.2H6.65a.2.2 0 01.2.2v.717a.448.448 0 01-.448.448zm-1.13-.965v.517a.048.048 0 00.048.048h1.082a.048.048 0 00.048-.048v-.517H5.272zm9.455-4.058a.2.2 0 01-.184-.12L13.496 8.66a1.077 1.077 0 00-.9-.482H7.41a1.078 1.078 0 00-.9.482l-1.048 2.417a.2.2 0 01-.371-.005.2.2 0 01.004-.154l1.054-2.432c.004-.01.01-.02.015-.029a1.477 1.477 0 011.246-.678h5.185a1.476 1.476 0 011.261.707l1.055 2.433a.2.2 0 01-.184.28v-.001z" fill="#fff"/><path d="M15.104 10.972h-.522a.2.2 0 010-.4h.522a.2.2 0 110 .4z" fill="#fff"/><path d="M16.334 10.972h-1.23a.2.2 0 01-.2-.2v-.884a.2.2 0 01.2-.2h.976a.542.542 0 01.542.542v.455a.288.288 0 01-.288.287zm-1.03-.4h.917v-.342a.142.142 0 00-.141-.142h-.775v.484zm-9.885.4h-.523a.2.2 0 010-.4h.523a.2.2 0 110 .4z" fill="#fff"/><path d="M4.895 10.972h-1.23a.288.288 0 01-.287-.287v-.455a.542.542 0 01.542-.542h.975a.2.2 0 01.2.2v.884a.2.2 0 01-.2.2zm-1.117-.4h.917v-.484H3.92a.142.142 0 00-.142.142v.342z" fill="#fff"/></symbol><symbol fill="none" viewBox="0 0 40 40" id="car" xmlns="http://www.w3.org/2000/svg"><path d="M30.063 23.08a2.305 2.305 0 110-4.609 2.305 2.305 0 010 4.61zm0-3.608a1.304 1.304 0 10-.001 2.609 1.304 1.304 0 00.001-2.609zM9.954 23.08a2.304 2.304 0 110-4.607 2.304 2.304 0 010 4.608zm0-3.608a1.304 1.304 0 100 2.609 1.304 1.304 0 000-2.609zm16.712 6.34H13.497a.5.5 0 01-.425-.763l1.467-2.366a.5.5 0 01.425-.236H25.2a.5.5 0 01.425.236l1.467 2.366a.5.5 0 01-.425.763h-.001zm-12.27-1h11.371l-.846-1.365h-9.679l-.847 1.365z" fill="#F0AE20"/><path d="M33.038 28.142H6.978a1.952 1.952 0 01-1.95-1.95v-4.483a5.167 5.167 0 015.16-5.159h19.64a5.168 5.168 0 015.16 5.159v4.482a1.952 1.952 0 01-1.95 1.95zM10.188 17.55a4.166 4.166 0 00-4.16 4.161v4.482a.95.95 0 00.95.95h26.06a.95.95 0 00.95-.95v-4.484a4.166 4.166 0 00-4.16-4.159h-19.64z" fill="#474747"/><path d="M31.716 31.308H29.01a1.12 1.12 0 01-1.12-1.12v-2.547a.5.5 0 01.5-.5h3.945a.5.5 0 01.5.5v2.548a1.121 1.121 0 01-1.12 1.12zm-2.825-3.167v2.048a.12.12 0 00.12.12h2.705a.12.12 0 00.12-.12V28.14H28.89zm-17.885 3.167H8.3a1.12 1.12 0 01-1.12-1.12v-2.547a.5.5 0 01.5-.5h3.945a.5.5 0 01.5.5v2.548a1.121 1.121 0 01-1.12 1.12zM8.18 28.141v2.048a.12.12 0 00.12.12h2.705a.119.119 0 00.119-.12V28.14H8.18zm23.64-10.147a.5.5 0 01-.46-.3l-2.619-6.799a2.692 2.692 0 00-2.25-1.205H13.526a2.695 2.695 0 00-2.25 1.205l-2.62 6.797a.5.5 0 11-.918-.397l2.635-6.835a.567.567 0 01.04-.073 3.692 3.692 0 013.113-1.695H26.49a3.692 3.692 0 013.113 1.696.473.473 0 01.04.072l2.635 6.836a.499.499 0 01-.458.7v-.002z" fill="#474747"/><path d="M32.761 17.43h-1.306a.5.5 0 010-1h1.306a.5.5 0 010 1z" fill="#474747"/><path d="M35.835 17.43H32.76a.5.5 0 01-.5-.5v-2.21a.5.5 0 01.5-.5h2.44a1.355 1.355 0 011.354 1.354v1.138a.72.72 0 01-.72.718zm-2.574-1h2.292v-.856a.355.355 0 00-.354-.354h-1.938v1.21zm-24.716 1H7.239a.5.5 0 010-1h1.306a.5.5 0 010 1z" fill="#474747"/><path d="M7.239 17.43H4.165a.72.72 0 01-.718-.718v-1.138A1.355 1.355 0 014.8 14.22h2.439a.5.5 0 01.5.5v2.21a.5.5 0 01-.5.5zm-2.792-1h2.292v-1.21H4.8a.354.354 0 00-.354.354v.856z" fill="#474747"/></symbol><symbol fill="none" viewBox="0 0 34 34" id="clock" xmlns="http://www.w3.org/2000/svg"><path d="M23.736 17.577h-4.225a2.279 2.279 0 00-1.653-1.623V9.511a.561.561 0 00-.567-.555.561.561 0 00-.566.555v6.443c-.99.248-1.725 1.131-1.725 2.179 0 1.24 1.028 2.248 2.291 2.248 1.068 0 1.967-.72 2.22-1.692h4.225a.561.561 0 00.566-.556.561.561 0 00-.566-.556zm-6.445 1.692c-.639 0-1.158-.51-1.158-1.136 0-.627.52-1.137 1.158-1.137.639 0 1.158.51 1.158 1.137 0 .626-.52 1.136-1.158 1.136z" fill="#F0AE20"/><circle cx="17" cy="17" r="16.5" stroke="#474747"/></symbol><symbol fill="none" viewBox="0 0 10 10" id="close" xmlns="http://www.w3.org/2000/svg"><g clip-path="url(#ahclip0_202_4168)"><path d="M5.552 5.001L9.885.668a.39.39 0 00-.552-.553L5 4.45.667.115a.39.39 0 10-.553.553L4.447 5 .114 9.334a.39.39 0 10.553.553L5 5.553l4.333 4.334a.39.39 0 00.552 0 .39.39 0 000-.553L5.552 5.001z" fill="#474747"/></g><defs><clipPath id="ahclip0_202_4168"><path fill="#fff" d="M0 0h10v10H0z"/></clipPath></defs></symbol><symbol fill="none" viewBox="0 0 26 26" id="compass" xmlns="http://www.w3.org/2000/svg"><path d="M13 0C5.82 0 0 5.82 0 13s5.82 13 13 13 13-5.82 13-13S20.18 0 13 0zm.527 24.933v-2.095a.527.527 0 00-1.054 0v2.095c-6.169-.27-11.136-5.238-11.406-11.406h2.095a.527.527 0 000-1.054H1.067c.27-6.168 5.237-11.136 11.406-11.406v2.095a.527.527 0 001.054 0V1.067c6.169.27 11.136 5.238 11.406 11.406h-2.095a.527.527 0 100 1.054h2.095c-.27 6.168-5.237 11.136-11.406 11.406z" fill="#474747"/><path d="M17.672 8a.85.85 0 00-.295.062l-5.86 2.214c-.496.187-1.054.746-1.241 1.241l-2.214 5.86c-.145.385-.026.623.266.623a.85.85 0 00.295-.062l5.86-2.214c.496-.187 1.054-.746 1.241-1.241l2.214-5.86c.145-.385.026-.623-.266-.623zm-3.444 7.049l-5.265 1.989 1.989-5.265c.024-.064.063-.132.109-.201l.69.69a1.445 1.445 0 001.986 1.986l.691.691a1.033 1.033 0 01-.2.11zm-1.97-2.03a.723.723 0 011.445 0 .723.723 0 01-1.445 0zm2.79 1.209a1.048 1.048 0 01-.109.2l-.7-.7a1.445 1.445 0 00-1.968-1.967l-.7-.7c.07-.046.138-.085.202-.11l5.265-1.989-1.99 5.266z" fill="#F0AE20"/></symbol><symbol fill="none" viewBox="0 0 29 23" id="computer" xmlns="http://www.w3.org/2000/svg"><path d="M27.294 0H1.706C1.254 0 .82.177.5.49.18.806 0 1.23 0 1.675v15.9c0 .445.18.87.5 1.184.32.314.754.49 1.206.49h9.652l-.233 2.511H9.81v.837h9.382v-.837h-1.316l-.233-2.51h9.652c.452 0 .886-.177 1.206-.491.32-.314.5-.74.5-1.183V1.674c0-.444-.18-.87-.5-1.183A1.725 1.725 0 0027.294 0zM1.706.837h25.588c.226 0 .443.088.603.245.16.157.25.37.25.592v13.39H.853V1.674a.83.83 0 01.25-.592.862.862 0 01.603-.245zm15.312 20.922h-5.036l.232-2.51h4.572l.232 2.51zm10.276-3.347H1.706a.862.862 0 01-.603-.246.83.83 0 01-.25-.591V15.9h27.294v1.674a.83.83 0 01-.25.591.862.862 0 01-.603.246z" fill="#474747"/><path d="M14.075 16.738h.853v.837h-.853v-.837z" fill="#000"/><path d="M12.085 10.838l4.22-4.142.604.592-4.221 4.142-.603-.592zm2.112.296l2.412-2.367.603.592-2.412 2.367-.603-.592zm-2.412-2.367L14.197 6.4l.603.592-2.412 2.366-.603-.591z" fill="#F0AE20"/></symbol><symbol fill="none" viewBox="0 0 16 24" id="drive-unit" xmlns="http://www.w3.org/2000/svg"><path d="M.3 2A1.7 1.7 0 012 .3h1A1.7 1.7 0 014.7 2v4A1.7 1.7 0 013 7.7H2A1.7 1.7 0 01.3 6V2zm0 16A1.7 1.7 0 012 16.3h1A1.7 1.7 0 014.7 18v4A1.7 1.7 0 013 23.7H2A1.7 1.7 0 01.3 22v-4zm11-16A1.7 1.7 0 0113 .3h1A1.7 1.7 0 0115.7 2v4A1.7 1.7 0 0114 7.7h-1A1.7 1.7 0 0111.3 6V2zm0 16a1.7 1.7 0 011.7-1.7h1a1.7 1.7 0 011.7 1.7v4a1.7 1.7 0 01-1.7 1.7h-1a1.7 1.7 0 01-1.7-1.7v-4z" stroke="#F0AE20" stroke-width=".6"/><path d="M8 4v16" stroke="#fff" stroke-width=".8"/><path d="M5 4h6M5 20h6" stroke="#fff" stroke-width=".6"/><circle cx="8" cy="20" r="1" fill="#fff"/><circle cx="8" cy="4" r="1" fill="#fff"/></symbol><symbol fill="none" viewBox="0 0 29 29" id="energy" xmlns="http://www.w3.org/2000/svg"><path d="M9.743 23.906a.393.393 0 01-.287-.125l-2.9-3.112a.392.392 0 11.573-.534l2.9 3.112a.393.393 0 01-.286.659z" fill="#fff"/><path d="M22.812 23.906H9.742a.393.393 0 01-.286-.125l-2.783-2.987H3.947a.392.392 0 01-.392-.392v-8.714a.392.392 0 01.392-.392H6.45v-2.72a.392.392 0 01.392-.392h12.019a.392.392 0 01.293.132l3.951 4.468a.392.392 0 01.099.26v2.697h1.671v-1.497a.392.392 0 01.392-.392h1.205a1.746 1.746 0 011.744 1.743v4.765a1.747 1.747 0 01-1.744 1.744h-1.205a.392.392 0 01-.392-.392v-1.497h-1.671v3.299a.392.392 0 01-.392.392zm-12.897-.784H22.42v-3.299a.392.392 0 01.392-.392h2.455a.392.392 0 01.392.392v1.496h.813a.962.962 0 00.96-.959v-4.765a.962.962 0 00-.96-.96h-.813v1.497a.392.392 0 01-.392.391h-2.455a.392.392 0 01-.392-.391v-2.94l-3.736-4.224H7.234v2.72a.392.392 0 01-.392.391H4.34v7.933h2.503a.39.39 0 01.287.125l2.786 2.985z" fill="#fff"/><path d="M13.54 8.968a.392.392 0 01-.392-.392v-4.09a.392.392 0 01.784 0v4.091a.392.392 0 01-.392.39z" fill="#fff"/><path d="M16.855 4.879h-6.633a.392.392 0 110-.784h6.633a.392.392 0 110 .784zM3.947 16.694H1.176a.392.392 0 010-.783h2.771a.392.392 0 010 .783z" fill="#fff"/><path d="M1.176 19.27a.392.392 0 01-.392-.391v-5.152a.392.392 0 01.784 0v5.152a.392.392 0 01-.392.392z" fill="#fff"/><path d="M12.477 20.77a.39.39 0 01-.392-.428l.32-3.474-1.5-.644a.393.393 0 01-.121-.638l4.101-4.079a.392.392 0 01.66.362l-.784 3.6 1.731.56a.392.392 0 01.16.646l-3.895 3.978a.394.394 0 01-.28.117zm-.729-5.037l1.23.527a.391.391 0 01.236.396l-.246 2.66 2.68-2.736-1.467-.473a.392.392 0 01-.263-.457l.578-2.65-2.748 2.732z" fill="#F0AE20"/></symbol><symbol fill="none" viewBox="0 0 46 46" id="footer-phone" xmlns="http://www.w3.org/2000/svg"><path d="M23 46c12.703 0 23-10.297 23-23S35.703 0 23 0 0 10.297 0 23s10.297 23 23 23z" fill="#6AAF50"/><path d="M12.191 9.182a5.677 5.677 0 00-2.56 7.347 40.877 40.877 0 006.96 10.73l2.15 2.15 14.292 14.292a23.098 23.098 0 008.883-7.617l-5.273-5.274a2.925 2.925 0 00-.78-.78L15.97 10.137a2.93 2.93 0 00-3.779-.955z" fill="#4D8538"/><path d="M31.409 27.008a2.161 2.161 0 00-2.436.007l-1.056.724a3.293 3.293 0 01-3.87-.106 36.123 36.123 0 01-3.049-2.631 36.09 36.09 0 01-2.63-3.048 3.293 3.293 0 01-.107-3.87l.724-1.056a2.16 2.16 0 00.007-2.436l-3.023-4.455a2.93 2.93 0 00-3.778-.954 5.677 5.677 0 00-2.56 7.347 40.88 40.88 0 006.96 10.73l2.15 2.15a40.883 40.883 0 0010.73 6.96 5.677 5.677 0 007.346-2.56v-.001a2.93 2.93 0 00-.954-3.778l-4.454-3.023z" fill="#fff"/></symbol><symbol fill="none" viewBox="0 0 30 30" id="gradient-telegram" xmlns="http://www.w3.org/2000/svg"><g clip-path="url(#anclip0_195_4600)" fill-rule="evenodd" clip-rule="evenodd"><path d="M22.5 30h-15A7.5 7.5 0 010 22.5v-15A7.5 7.5 0 017.5 0h15A7.5 7.5 0 0130 7.5v15a7.5 7.5 0 01-7.5 7.5z" fill="#199BDF"/><path d="M14.063 8.438H22.5a4.22 4.22 0 00.431-8.416C22.788.014 22.646 0 22.5 0h-15A7.5 7.5 0 000 7.5v15A14.063 14.063 0 0114.063 8.437z" fill="#32B4FF"/><path d="M22.5 15a7.5 7.5 0 107.5 7.5v-15a7.5 7.5 0 01-7.5 7.5z" fill="#0082BE"/><path d="M21.132 7.984a1.406 1.406 0 011.926 1.513l-2.08 13.519a1.408 1.408 0 01-2.223.918l-6.132-4.518a.938.938 0 01-.088-1.437l5.722-5.404a.234.234 0 00-.289-.366l-7.565 4.933a2.813 2.813 0 01-2.218.373l-3.55-.887a.938.938 0 01-.13-1.777l16.627-6.867z" fill="#fff"/></g><defs><clipPath id="anclip0_195_4600"><path fill="#fff" d="M0 0h30v30H0z"/></clipPath></defs></symbol><symbol fill="none" viewBox="0 0 30 30" id="gradient-viber" xmlns="http://www.w3.org/2000/svg"><g clip-path="url(#aoclip0_195_4583)"><path fill-rule="evenodd" clip-rule="evenodd" d="M22.5 30h-15A7.499 7.499 0 010 22.5v-15A7.5 7.5 0 017.5 0h15A7.5 7.5 0 0130 7.5v15a7.5 7.5 0 01-7.5 7.5z" fill="#785AFA"/><path fill-rule="evenodd" clip-rule="evenodd" d="M14.063 8.438H22.5a4.22 4.22 0 00.431-8.416C22.786.014 22.645 0 22.5 0h-15A7.5 7.5 0 000 7.5v15A14.062 14.062 0 0114.063 8.437z" fill="#9678FF"/><path fill-rule="evenodd" clip-rule="evenodd" d="M22.5 15a7.5 7.5 0 107.5 7.5v-15a7.501 7.501 0 01-7.5 7.5z" fill="#5F41E1"/><path d="M23.438 16.578c-.539 4.349-3.722 4.622-4.308 4.81a17.869 17.869 0 01-5.484.467s-2.175 2.224-2.85 2.906a.368.368 0 01-.314.128c-.117-.028-.15-.167-.15-.37.004-.288.018-3.182.018-3.182-4.246-1.179-3.998-5.612-3.951-7.934.047-2.321.483-4.222 1.781-5.501 2.325-2.108 7.12-1.793 7.12-1.793 4.05.017 5.991 1.236 6.441 1.645 1.49 1.279 2.255 4.34 1.697 8.823v.001zm-.581-9.909c-.53-.49-2.681-2.05-7.467-2.071 0 0-5.644-.34-8.396 2.183-1.533 1.532-2.072 3.774-2.128 6.553-.056 2.78-.51 7.988 4.51 9.4v2.155c0 .551.164 1.361.956 1.361.323 0 .783-.124 1.425-.776l2.133-2.057c1.947.103 3.9-.072 5.798-.518.694-.225 4.617-.727 5.255-5.935.656-5.368-.319-8.764-2.086-10.295z" fill="#fff"/><path fill-rule="evenodd" clip-rule="evenodd" d="M15 8.438a5.154 5.154 0 015.157 5.156.47.47 0 01-.938 0 4.222 4.222 0 00-4.218-4.219h-.042a.47.47 0 010-.938H15z" fill="#fff"/><path fill-rule="evenodd" clip-rule="evenodd" d="M15 10.313a3.28 3.28 0 013.282 3.28.47.47 0 01-.802.332.483.483 0 01-.135-.331A2.345 2.345 0 0015 11.25h-.042a.468.468 0 110-.938H15z" fill="#fff"/><path d="M19.956 18.226a.721.721 0 00-.099-.892 11.766 11.766 0 00-1.856-1.34.824.824 0 00-1.045.145l-.38.473c-.478.59-1.94-.295-2.635-1.02-.726-.698-1.612-2.159-1.021-2.638l.473-.376a.827.827 0 00.145-1.047 11.307 11.307 0 00-1.34-1.856.719.719 0 00-.89-.1c-.364.214-.692.48-.976.792A1.238 1.238 0 0010 11.639a13.887 13.887 0 003.01 4.886 13.933 13.933 0 004.884 3.007 1.237 1.237 0 001.275-.33c.297-.296.561-.624.788-.977z" fill="#fff"/></g><defs><clipPath id="aoclip0_195_4583"><path fill="#fff" d="M0 0h30v30H0z"/></clipPath></defs></symbol><symbol fill="none" viewBox="0 0 30 30" id="gradient-whatsapp" xmlns="http://www.w3.org/2000/svg"><g clip-path="url(#apclip0_195_4592)"><path fill-rule="evenodd" clip-rule="evenodd" d="M22.5 30h-15A7.499 7.499 0 010 22.5v-15A7.5 7.5 0 017.5 0h15A7.5 7.5 0 0130 7.5v15a7.5 7.5 0 01-7.5 7.5" fill="#19C167"/><path fill-rule="evenodd" clip-rule="evenodd" d="M14.063 8.438H22.5a4.22 4.22 0 00.431-8.416C22.786.014 22.645 0 22.5 0h-15A7.5 7.5 0 000 7.5v15A14.062 14.062 0 0114.063 8.437" fill="#21D273"/><path fill-rule="evenodd" clip-rule="evenodd" d="M22.5 15a7.5 7.5 0 107.5 7.5v-15a7.501 7.501 0 01-7.5 7.5" fill="#08AC54"/><g clip-path="url(#apclip1_195_4592)"><path d="M22.565 18.742l-2.233-2.233c-.797-.797-2.153-.478-2.472.559-.24.717-1.037 1.116-1.755.957-1.594-.399-3.748-2.472-4.146-4.147-.24-.718.239-1.515.957-1.754 1.036-.32 1.355-1.675.558-2.472L11.24 7.419c-.638-.559-1.595-.559-2.153 0L7.573 8.934c-1.515 1.595.16 5.821 3.907 9.57 3.748 3.747 7.975 5.502 9.57 3.907l1.515-1.516c.558-.637.558-1.594 0-2.153z" fill="#fff"/></g></g><defs><clipPath id="apclip0_195_4592"><path fill="#fff" d="M0 0h30v30H0z"/></clipPath><clipPath id="apclip1_195_4592"><path fill="#fff" transform="translate(7 7)" d="M0 0h16v16H0z"/></clipPath></defs></symbol><symbol fill="none" viewBox="0 0 21 21" id="icon-logo" xmlns="http://www.w3.org/2000/svg"><path d="M15.19 14.124l.258 1.042-1.063-.253a6.127 6.127 0 01-3.896 1.379v4.01l1.342-2.19c3.488-.567 6.214-3.346 6.665-6.809H16.5a5.822 5.822 0 01-1.31 2.82zm-9.638 1.031l.268-1.042a5.868 5.868 0 01-1.405-3.82h-4.1l2.232 1.315c.58 3.42 3.413 6.105 6.944 6.536v-1.957a6.068 6.068 0 01-2.876-1.295l-1.063.263zm.258-8.672L5.54 5.44l1.063.252a6.117 6.117 0 013.789-1.379h.128v-4L9.18 2.495c-3.499.568-6.236 3.336-6.687 6.81H4.49a5.846 5.846 0 011.32-2.821zm9.638-1.043l-.258 1.042a5.868 5.868 0 011.406 3.821h4.09l-2.233-1.316c-.58-3.42-3.402-6.094-6.933-6.536V4.41a6.132 6.132 0 012.865 1.295l1.063-.264z" fill="#DEAC35"/><path d="M14.6 8.356c-.01.01-.032.01-.043.01a.108.108 0 01-.086-.052.1.1 0 01.043-.126l.376-.19c-.097-.168-.194-.337-.312-.495l-.343.243a.083.083 0 01-.054.02h-.01c-.022 0-.043-.02-.065-.042-.032-.042-.021-.094.022-.126l.332-.242a3.277 3.277 0 00-.354-.41l-.376.368a.161.161 0 01-.096.042.132.132 0 01-.097-.042.132.132 0 01-.043-.095c0-.031.011-.073.043-.094l.376-.369a3.3 3.3 0 00-.419-.347l-.246.337c-.022.02-.043.042-.076.042a.083.083 0 01-.053-.021c-.043-.032-.054-.084-.022-.127l.247-.336c-.16-.116-.333-.21-.504-.306l-.194.369c-.01.02-.032.042-.053.042h-.032c-.011 0-.033 0-.043-.01-.043-.022-.065-.085-.043-.127l.193-.368a4.216 4.216 0 00-.547-.221l-.13.39c-.01.02-.02.041-.042.052-.01.01-.032.01-.043.01h-.032c-.054-.02-.075-.063-.065-.116l.13-.389a4.65 4.65 0 00-.58-.137l-.065.41c0 .022-.021.043-.043.064-.021.01-.032.02-.053.02h-.011c-.054-.01-.086-.052-.075-.104l.064-.4a4.79 4.79 0 00-.547-.042v.526c0 .073-.065.126-.14.126a.13.13 0 01-.129-.126V5.44a4.79 4.79 0 00-.547.042l.064.4c.011.052-.032.094-.075.105h-.01a.103.103 0 01-.097-.074l-.064-.4a3.851 3.851 0 00-.58.137l.129.39c.01.052-.01.105-.065.115h-.032c-.01 0-.032 0-.043-.01-.021-.01-.043-.032-.043-.053l-.128-.39a5.955 5.955 0 00-.548.222l.193.368c.022.042 0 .105-.042.126h-.065c-.021-.01-.043-.02-.054-.042l-.193-.379c-.171.095-.343.19-.504.306l.247.336c.032.043.021.095-.022.127-.021.01-.032.02-.053.02h-.011c-.022 0-.043-.02-.065-.041l-.246-.327c-.15.106-.29.232-.419.348l.376.368a.132.132 0 010 .19.161.161 0 01-.097.042.132.132 0 01-.097-.042l-.375-.369a3.272 3.272 0 00-.354.41l.343.243c.022.01.032.042.043.063 0 .02 0 .053-.021.074-.011.02-.033.031-.065.031h-.01a.083.083 0 01-.054-.02l-.333-.243a7.757 7.757 0 00-.311.495l.375.19c.043.02.065.083.043.125-.021.032-.053.053-.085.053-.011 0-.033 0-.043-.01l-.376-.19a4.047 4.047 0 00-.225.537l.397.126c.053.021.075.063.064.116-.01.021-.021.042-.043.053-.01.01-.032.01-.043.01h-.032l-.397-.126a4.416 4.416 0 00-.14.568l.408.063c.022 0 .043.021.065.042.01.021.021.042.021.074a.094.094 0 01-.097.074h-.01l-.408-.063a4.521 4.521 0 00-.043.536H6.1a.13.13 0 01.128.127.13.13 0 01-.128.126h-.537c0 .179.021.358.043.537l.408-.063c.053-.01.096.031.107.073 0 .021 0 .053-.021.063-.011.021-.033.032-.065.042l-.408.064c.033.19.076.379.14.568l.397-.126a.067.067 0 01.075.01c.022.01.043.032.043.053.01.053-.01.105-.064.116l-.397.126c.064.179.14.358.225.537l.376-.19c.043-.02.107-.01.128.042.022.043 0 .106-.043.127l-.375.19c.096.168.193.336.311.494l.333-.242a.157.157 0 01.075-.021c.021 0 .043.02.064.042a.14.14 0 01.022.063c0 .021-.022.042-.043.063l-.333.242c.107.148.236.284.354.41l.376-.368a.137.137 0 01.097-.042.13.13 0 01.096.042.155.155 0 01.043.095c0 .032-.01.063-.043.095l-.376.368c.13.126.269.242.419.348l.247-.337c.032-.042.086-.053.129-.021.021.01.032.031.043.063 0 .02 0 .052-.022.073l-.247.327c.161.105.333.21.505.305l.193-.368c.01-.021.032-.043.054-.043a.067.067 0 01.075.011c.043.021.064.084.043.126l-.194.369c.172.084.355.158.548.22l.129-.389c.01-.02.021-.042.043-.052a.094.094 0 01.075 0c.053.02.075.063.064.115l-.129.39c.183.053.376.105.58.137l.064-.4c0-.021.022-.042.043-.063a.157.157 0 01.075-.021c.022 0 .043.02.065.031a.15.15 0 01.021.074l-.064.4c.182.02.365.042.547.042v-.526a.13.13 0 01.129-.127c.075 0 .14.063.14.127v.526c.182 0 .364-.021.547-.042l-.065-.41c0-.022 0-.053.022-.074.01-.021.032-.032.064-.043.022 0 .054 0 .065.021.021.011.032.032.043.064l.064.41c.193-.031.386-.084.58-.137l-.13-.39c-.01-.052.011-.104.065-.115a.067.067 0 01.075.01c.022.011.043.032.043.053l.129.39c.182-.063.365-.137.547-.221l-.193-.369c-.021-.042-.01-.105.043-.126.021-.01.054-.01.075-.01.022.01.043.02.054.042l.193.368c.172-.095.344-.19.505-.305l-.247-.337c-.033-.042-.022-.095.021-.126.043-.032.107-.021.129.02l.247.338c.15-.106.29-.232.418-.348l-.375-.368a.131.131 0 010-.19.138.138 0 01.193 0l.376.369c.128-.127.246-.274.354-.41l-.344-.243c-.021-.01-.032-.031-.043-.063 0-.021 0-.053.022-.074.01-.02.032-.031.064-.031.022 0 .054 0 .075.02l.344.243c.107-.158.214-.326.311-.495l-.376-.19c-.043-.02-.064-.083-.043-.126.011-.02.033-.042.054-.042a.067.067 0 01.075.01l.376.19a4.04 4.04 0 00.225-.536l-.397-.127a.1.1 0 01-.064-.116c.021-.052.064-.073.118-.063l.397.127c.043-.137.075-.285.107-.421h-1.92a3.11 3.11 0 01-2.952 2.063c-1.718 0-3.113-1.369-3.113-3.053s1.395-3.052 3.113-3.052c1.234 0 2.307.705 2.812 1.737h1.974a4.366 4.366 0 00-.31-.81l-.43.157z" fill="#DEAC35"/></symbol><symbol fill="none" viewBox="0 0 28 28" id="location" xmlns="http://www.w3.org/2000/svg"><path d="M13.692 24.585a.385.385 0 00.303.155H14a.383.383 0 00.3-.147c.318-.404 7.756-9.963 7.756-16.018a8.056 8.056 0 10-16.112 0c0 2.319 1.308 5.724 3.889 10.12a74.41 74.41 0 003.86 5.89zM14 1.285a7.298 7.298 0 017.29 7.29c0 5.112-5.857 13.239-7.282 15.14C12.6 21.74 6.709 13.21 6.709 8.575A7.298 7.298 0 0114 1.285z" fill="#474747"/><path d="M18.631 8.575a4.63 4.63 0 10-9.261 0 4.63 4.63 0 009.261 0zm-4.63 3.865a3.865 3.865 0 110-7.73 3.865 3.865 0 010 7.73z" fill="#F0AE20"/><path d="M17.903 22.13a.383.383 0 00-.093.76c3.296.405 4.362 1.168 4.362 1.474 0 .575-2.884 1.693-8.172 1.693s-8.173-1.12-8.173-1.693c0-.328 1.046-1 3.853-1.405a.383.383 0 00-.11-.758c-2.055.297-4.508.914-4.508 2.163 0 1.804 5.345 2.459 8.938 2.459 3.593 0 8.938-.655 8.938-2.46 0-1.405-3.154-2.002-5.035-2.233z" fill="#474747"/></symbol><symbol fill="none" viewBox="0 0 36 36" id="mail" xmlns="http://www.w3.org/2000/svg"><path d="M30.535 9.667l-.002-.002a3.017 3.017 0 00-1.075-.882 3.078 3.078 0 00-1.364-.314H7.906a3.078 3.078 0 00-1.363.313 3.018 3.018 0 00-1.074.88l-.002.003a2.925 2.925 0 00-.615 1.801v12.39c0 .795.323 1.557.895 2.119a3.088 3.088 0 002.159.878h20.188c.81 0 1.586-.317 2.159-.878a2.972 2.972 0 00.895-2.119v-12.39a2.924 2.924 0 00-.613-1.799zm-2.44-.232c.476-.001.938.16 1.306.458l-9.907 7.272a2.54 2.54 0 01-2.988 0L6.599 9.892c.368-.297.83-.458 1.307-.457h20.188zm2.07 14.421a2.022 2.022 0 01-.608 1.436c-.388.38-.914.595-1.463.595H7.906a2.092 2.092 0 01-1.463-.595 2.014 2.014 0 01-.607-1.436v-12.39a1.97 1.97 0 01.174-.8l9.906 7.271a3.543 3.543 0 002.084.675c.75 0 1.48-.236 2.084-.675l9.906-7.27c.113.252.173.524.174.8v12.39z" fill="#474747"/><ellipse cx="29" cy="20.605" rx="7" ry="6.868" fill="#fff"/><g clip-path="url(#asclip0_237_9327)"><path d="M33.243 16.332A5.96 5.96 0 0029 14.574a5.96 5.96 0 00-4.243 1.758A5.96 5.96 0 0023 20.574c0 1.603.624 3.11 1.757 4.243A5.961 5.961 0 0029 26.574a.352.352 0 000-.703 5.303 5.303 0 01-5.297-5.297A5.303 5.303 0 0129 15.277a5.303 5.303 0 015.297 5.297v1.412a1.061 1.061 0 01-2.121 0v-1.412A3.18 3.18 0 0029 17.398a3.18 3.18 0 00-3.176 3.176A3.18 3.18 0 0029 23.75a3.173 3.173 0 002.542-1.274 1.766 1.766 0 001.694 1.274c.973 0 1.764-.791 1.764-1.764v-1.412a5.96 5.96 0 00-1.757-4.242zM29 23.047a2.476 2.476 0 01-2.473-2.473A2.475 2.475 0 0129 18.102a2.475 2.475 0 012.473 2.472A2.476 2.476 0 0129 23.047z" fill="#F0AE20"/></g><defs><clipPath id="asclip0_237_9327"><path fill="#fff" transform="translate(23 14.574)" d="M0 0h12v12H0z"/></clipPath></defs></symbol><symbol fill="none" viewBox="0 0 26 26" id="next-btn" xmlns="http://www.w3.org/2000/svg"><path d="M10.064 22.436a1.084 1.084 0 001.539 0l8.666-8.667a1.083 1.083 0 00.314-.769 1.084 1.084 0 00-.314-.77l-8.666-8.666a1.09 1.09 0 00-1.539 0 1.088 1.088 0 000 1.539l7.909 7.908-7.909 7.887a1.084 1.084 0 000 1.538z" fill="#fff"/></symbol><symbol fill="none" viewBox="0 0 23 23" id="notes" xmlns="http://www.w3.org/2000/svg"><path d="M19.985 4.932L15.193.14a.479.479 0 00-.339-.14H4.792a1.92 1.92 0 00-1.917 1.917v19.166A1.92 1.92 0 004.792 23h13.416a1.92 1.92 0 001.917-1.917V5.271a.479.479 0 00-.14-.339zm-4.652-3.296l3.156 3.156h-2.197a.96.96 0 01-.959-.959V1.636zm3.834 19.447a.96.96 0 01-.959.959H4.792a.96.96 0 01-.959-.959V1.917a.96.96 0 01.959-.959h9.583v2.875a1.92 1.92 0 001.917 1.917h2.875v15.333z" fill="#474747"/><path d="M16.77 13.417H6.23a.479.479 0 100 .958h10.54a.479.479 0 100-.958zm0-2.875H6.23a.479.479 0 100 .958h10.54a.479.479 0 100-.958zm0 5.75H6.23a.479.479 0 100 .958h10.54a.479.479 0 100-.958zm-4.79 2.875H6.23a.479.479 0 100 .958h5.75a.479.479 0 100-.958z" fill="#474747"/><path d="M10.542 8.146c0 .265.214.48.479.48h5.75a.479.479 0 100-.96h-5.75a.479.479 0 00-.48.48zm-3.354-.479h-.959a.479.479 0 100 .958h.48a.479.479 0 10.958 0v-.088c.556-.199.958-.726.958-1.35A1.44 1.44 0 007.187 5.75a.48.48 0 010-.958h.959a.479.479 0 100-.959h-.48a.479.479 0 10-.958 0v.088a1.435 1.435 0 00-.958 1.35 1.44 1.44 0 001.438 1.437.48.48 0 010 .959z" fill="#F0AE20"/></symbol><symbol fill="none" viewBox="0 0 17 23" id="petrol" xmlns="http://www.w3.org/2000/svg"><path d="M16.638 1.75v19.5c0 .965-.785 1.75-1.75 1.75H2.113c-.965 0-1.75-.785-1.75-1.75V6.092c0-.467.182-.907.513-1.237l3.061-3.061-.68-.68a.35.35 0 00-.494 0L1.237 2.64a.348.348 0 00-.103.248.35.35 0 01-.7 0c0-.28.11-.545.308-.743L2.268.62a1.05 1.05 0 011.485 0l.927.927a.35.35 0 010 .495L1.37 5.35a1.043 1.043 0 00-.307.742V21.25c0 .579.471 1.05 1.05 1.05h12.775c.58 0 1.05-.471 1.05-1.05V1.75c0-.579-.47-1.05-1.05-1.05H6.456a.35.35 0 010-.7h8.432c.965 0 1.75.785 1.75 1.75zm-2.625 2.362a.35.35 0 00.35-.35c0-.956-.697-1.487-1.4-1.487H7.976c-.707 0-1.4.535-1.4 1.488 0 .771.628 1.4 1.4 1.4h4.987a.35.35 0 000-.7H7.976a.7.7 0 01-.7-.7v-.088a.7.7 0 01.7-.7h4.987a.7.7 0 01.7.7v.088c0 .193.157.35.35.35z" fill="#fff"/><path d="M4.884 8.997l.816.817v5.485l-.816.816a.35.35 0 00.495.495l.816-.816h4.61c.874.874.87.918 1.064.918a.35.35 0 00.247-.597l-.923-.923c-.145-.14.104-.098-4.793-.098v-5.075h4.2v3.392a.35.35 0 10.7 0V9.814l.816-.817a.35.35 0 00-.495-.495l-.816.817h-4.61l-.816-.817a.35.35 0 00-.495.495z" fill="#F0AE20"/></symbol><symbol fill="none" viewBox="0 0 20 20" id="phone" xmlns="http://www.w3.org/2000/svg"><g clip-path="url(#awclip0_195_3099)"><path d="M19.456 14.678l-2.791-2.791c-.997-.997-2.692-.598-3.09.698-.3.897-1.296 1.395-2.193 1.196-1.994-.498-4.685-3.09-5.184-5.184-.299-.897.3-1.894 1.196-2.193 1.296-.398 1.695-2.093.698-3.09L5.301.524c-.797-.698-1.994-.698-2.691 0L.716 2.416C-1.178 4.411.915 9.694 5.6 14.38c4.685 4.685 9.968 6.878 11.962 4.884l1.894-1.894c.698-.797.698-1.993 0-2.691z" fill="#fff"/></g><defs><clipPath id="awclip0_195_3099"><path fill="#fff" d="M0 0h20v20H0z"/></clipPath></defs></symbol><symbol viewBox="0 0 23 23" id="place" xmlns="http://www.w3.org/2000/svg"><path d="M11.5 0C6.907 0 3.17 3.737 3.17 8.33c0 5.7 7.455 14.068 7.772 14.421a.75.75 0 001.116 0c.318-.353 7.772-8.721 7.772-14.421C19.83 3.737 16.093 0 11.5 0zm0 12.52c-2.31 0-4.19-1.88-4.19-4.19a4.195 4.195 0 014.19-4.191c2.31 0 4.19 1.88 4.19 4.19a4.196 4.196 0 01-4.19 4.192z"/></symbol><symbol fill="none" viewBox="0 0 25 25" id="rate" xmlns="http://www.w3.org/2000/svg"><path d="M20.953 0H9.778a.366.366 0 00-.366.366v2.147a.366.366 0 00.732 0V.733h10.443v9.035h-1.303v-.68a.366.366 0 00-.366-.367h-1.032a.366.366 0 000 .733h.666v1.178h-6.373V9.454h3.998a.366.366 0 000-.733h-4.364a.366.366 0 00-.366.366v.681h-1.303V4.222a.366.366 0 10-.732 0v5.912c0 .203.164.367.366.367h1.669v.497c0 .202.164.366.366.366h2.213v1.182h-.748c-1.5 0-2.95.54-4.08 1.523a1.841 1.841 0 01-1.211.442h-.586v-.279a.366.366 0 00-.367-.366H4.047a.366.366 0 00-.367.366v.869a.366.366 0 10.733 0v-.502h2.255v8.348H4.413V16.81a.366.366 0 00-.733 0v6.504c0 .202.164.366.367.366h2.987a.366.366 0 00.367-.366v-.279h.586c.453 0 .883.157 1.21.442A6.224 6.224 0 0013.278 25h4.768a1.54 1.54 0 001.306-2.35 1.54 1.54 0 001.005-2.566 1.539 1.539 0 00-.058-2.656 1.54 1.54 0 00-1.169-2.538h-1.204v-.806a1.54 1.54 0 00-1.221-1.505v-1.215h2.213a.366.366 0 00.366-.366V10.5h1.67a.366.366 0 00.366-.367V.366A.366.366 0 0020.953 0zm-1.822 15.623a.807.807 0 010 1.612h-2.383a.366.366 0 100 .732h2.806a.807.807 0 010 1.612h-2.806a.366.366 0 100 .732h2.47a.807.807 0 010 1.612h-2.47a.366.366 0 000 .733h1.298a.807.807 0 010 1.612h-4.768a5.492 5.492 0 01-3.6-1.344 2.573 2.573 0 00-1.69-.621H7.4v-7.06h.586c.63 0 1.23-.22 1.69-.62a5.492 5.492 0 013.601-1.345h.748v1.612h-.797a.366.366 0 000 .733c1.211.002 5.907 0 5.902 0zm-1.938-1.539v.806h-.488v-1.546a.807.807 0 01.488.74zm-1.22.806h-1.214v-3.526h1.213v3.526z" fill="#474747"/><path d="M15.599 7.047l2.28-2.28a1.16 1.16 0 000-1.64 1.16 1.16 0 00-1.639 0l-1.56 1.56-.455-.456a1.159 1.159 0 10-1.64 1.64l1.177 1.176a1.3 1.3 0 001.837 0zm-2.495-2.298a.426.426 0 01.603 0l.708.708a.376.376 0 00.53 0l1.813-1.812a.427.427 0 01.604.603L15.08 6.53a.567.567 0 01-.8 0l-1.177-1.177a.426.426 0 010-.603z" fill="#F0AE20"/></symbol><symbol fill="none" viewBox="0 0 12 12" id="slider-next-btn" xmlns="http://www.w3.org/2000/svg"><g clip-path="url(#azclip0_237_7177)"><path d="M9.103 5.67L3.553.137a.465.465 0 00-.657.658L8.116 6l-5.22 5.206a.465.465 0 10.657.658l5.55-5.535a.465.465 0 000-.658z" fill="#fff"/></g><defs><clipPath id="azclip0_237_7177"><path fill="#fff" d="M0 0h12v12H0z"/></clipPath></defs></symbol><symbol fill="none" viewBox="0 0 12 12" id="slider-prev-btn" xmlns="http://www.w3.org/2000/svg"><g clip-path="url(#baclip0_237_7182)"><path d="M2.897 6.33l5.55 5.534a.465.465 0 00.657-.659L3.884 6 9.104.794a.465.465 0 10-.657-.658L2.897 5.67a.465.465 0 000 .658z" fill="#fff"/></g><defs><clipPath id="baclip0_237_7182"><path fill="#fff" transform="rotate(-180 6 6)" d="M0 0h12v12H0z"/></clipPath></defs></symbol><symbol fill="none" viewBox="0 0 47 46" id="social-facebook" xmlns="http://www.w3.org/2000/svg"><g clip-path="url(#bbclip0_195_4874)"><path d="M23.524 46c12.702 0 23-10.297 23-23s-10.298-23-23-23c-12.703 0-23 10.297-23 23s10.297 23 23 23z" fill="#3B5998"/><path d="M29.306 23.9h-4.104v15.036h-6.218V23.9h-2.957v-5.284h2.957v-3.419c0-2.445 1.161-6.274 6.273-6.274l4.606.02v5.128h-3.342c-.548 0-1.319.274-1.319 1.44v3.11h4.647l-.543 5.28z" fill="#fff"/></g><defs><clipPath id="bbclip0_195_4874"><path fill="#fff" transform="translate(.524)" d="M0 0h46v46H0z"/></clipPath></defs></symbol><symbol fill="none" viewBox="0 0 47 46" id="social-instagram" xmlns="http://www.w3.org/2000/svg"><path d="M23.048 46c12.702 0 23-10.297 23-23s-10.298-23-23-23c-12.703 0-23 10.297-23 23s10.297 23 23 23z" fill="url(#bcpaint0_linear_419_6)"/><path d="M27.934 10.222h-9.762a7.896 7.896 0 00-7.892 7.892v9.762a7.896 7.896 0 007.892 7.891h9.762a7.896 7.896 0 007.891-7.891v-9.762a7.896 7.896 0 00-7.891-7.892zm5.04 17.664c0 2.78-2.26 5.05-5.05 5.05H18.16c-2.78 0-5.05-2.26-5.05-5.05v-9.762c0-2.78 2.26-5.05 5.05-5.05h9.763c2.78 0 5.05 2.26 5.05 5.05v9.762z" fill="#fff"/><path d="M23.048 16.468c-3.599 0-6.532 2.934-6.532 6.532 0 3.599 2.933 6.532 6.532 6.532 3.598 0 6.532-2.933 6.532-6.532 0-3.598-2.934-6.532-6.532-6.532zm0 10.498A3.97 3.97 0 0119.08 23a3.97 3.97 0 013.967-3.966A3.97 3.97 0 0127.014 23a3.97 3.97 0 01-3.966 3.966zm7.029-9.782a1.104 1.104 0 10-.353-2.18 1.104 1.104 0 00.353 2.18z" fill="#fff"/><defs><linearGradient id="bcpaint0_linear_419_6" x1="5.535" y1="40.513" x2="38.22" y2="7.827" gradientUnits="userSpaceOnUse"><stop stop-color="#FEE411"/><stop offset=".052" stop-color="#FEDB16"/><stop offset=".138" stop-color="#FEC125"/><stop offset=".248" stop-color="#FE983D"/><stop offset=".376" stop-color="#FE5F5E"/><stop offset=".5" stop-color="#FE2181"/><stop offset="1" stop-color="#9000DC"/></linearGradient></defs></symbol><symbol fill="none" viewBox="0 0 46 46" id="social-telegram" xmlns="http://www.w3.org/2000/svg"><path d="M23 46c12.702 0 23-10.297 23-23C46 10.298 35.701 0 23 0 10.297 0 0 10.298 0 23c0 12.703 10.297 23 23 23z" fill="#41B4E6"/><path d="M20.766 26.351L31.16 34.2l5.247-22.397L9.593 22.349l8.16 2.703 14.89-9.989-11.877 11.288z" fill="#fff"/><path d="M17.752 25.052l2.235 8.041.78-6.742 11.876-11.287-14.891 9.988z" fill="#D2D2D7"/><path d="M24.145 28.902l-4.158 4.191.78-6.742 3.378 2.55z" fill="#B9B9BE"/></symbol><symbol fill="none" viewBox="0 0 47 46" id="social-viber" xmlns="http://www.w3.org/2000/svg"><g clip-path="url(#beclip0_195_4848)"><path d="M23.762 46c12.703 0 23-10.297 23-23s-10.297-23-23-23-23 10.297-23 23 10.297 23 23 23z" fill="#6F3FAA"/><path d="M35.93 16.165l-.008-.03c-.615-2.485-3.386-5.15-5.93-5.705l-.029-.006a32.95 32.95 0 00-12.402 0l-.03.006c-2.543.554-5.314 3.22-5.93 5.705l-.006.03a24.27 24.27 0 000 10.458l.007.03c.589 2.378 3.153 4.922 5.602 5.621v2.773c0 1.004 1.224 1.497 1.92.773l2.81-2.92a33.068 33.068 0 008.03-.535l.028-.007c2.544-.555 5.315-3.22 5.93-5.705l.007-.03c.76-3.47.76-6.988 0-10.458zm-2.225 9.954c-.41 1.621-2.513 3.636-4.185 4.009a30.71 30.71 0 01-6.597.533.155.155 0 00-.116.047l-2.052 2.106-2.182 2.24a.255.255 0 01-.44-.177v-4.594a.159.159 0 00-.129-.155h-.001c-1.672-.373-3.774-2.388-4.185-4.009a22.03 22.03 0 010-9.45c.41-1.622 2.513-3.637 4.185-4.01a30.686 30.686 0 0111.517 0c1.672.373 3.775 2.388 4.186 4.01a22.006 22.006 0 010 9.45z" fill="#fff"/><path d="M27.398 28.24c-.257-.078-.502-.13-.73-.224-2.356-.978-4.525-2.24-6.243-4.173-.977-1.1-1.742-2.34-2.388-3.655-.306-.623-.565-1.27-.828-1.913-.24-.587.114-1.193.486-1.635.35-.414.799-.732 1.286-.966.38-.182.755-.077 1.032.245.6.697 1.152 1.428 1.598 2.236.274.496.199 1.103-.299 1.441-.12.082-.23.179-.343.272a1.13 1.13 0 00-.26.273.75.75 0 00-.05.658c.614 1.686 1.648 2.997 3.344 3.703.272.113.544.244.857.207.524-.06.694-.635 1.06-.936.36-.293.818-.297 1.204-.052.387.245.762.507 1.134.773.366.26.73.515 1.067.812.324.286.436.66.253 1.048-.334.71-.82 1.3-1.522 1.677-.198.106-.435.14-.658.21-.257-.079.223-.07 0 0zm-3.63-13.377c3.083.086 5.615 2.132 6.157 5.18.093.518.125 1.05.167 1.576.017.222-.109.433-.348.436-.247.003-.358-.204-.374-.426-.032-.438-.054-.88-.114-1.314-.32-2.296-2.15-4.196-4.436-4.604-.344-.061-.696-.077-1.044-.114-.22-.023-.509-.036-.558-.31-.04-.23.153-.412.372-.424.059-.003.119 0 .178 0 3.083.086-.06 0 0 0z" fill="#fff"/><path d="M28.453 20.935c-.005.039-.008.13-.03.214-.082.31-.552.348-.66.036a.929.929 0 01-.037-.298c0-.652-.142-1.305-.472-1.873a3.488 3.488 0 00-1.462-1.372 4.202 4.202 0 00-1.165-.357c-.176-.03-.353-.047-.53-.071-.214-.03-.328-.166-.318-.377.01-.198.154-.34.37-.328.707.04 1.39.194 2.02.527 1.278.677 2.009 1.746 2.222 3.173.01.065.025.13.03.194.012.16.02.32.032.532-.005.038-.012-.211 0 0z" fill="#fff"/><path d="M26.535 20.86c-.257.006-.395-.137-.422-.374-.018-.164-.033-.332-.072-.492a1.386 1.386 0 00-.512-.802 1.34 1.34 0 00-.416-.201c-.19-.055-.386-.04-.574-.086-.205-.05-.319-.216-.287-.409a.37.37 0 01.391-.297c1.195.086 2.05.704 2.171 2.11.01.1.02.205-.003.3-.038.162-.158.244-.276.252-.257.004.118-.008 0 0z" fill="#fff"/><path d="M35.93 16.165l-.008-.03c-.345-1.393-1.367-2.842-2.647-3.945l-1.73 1.533c1.029.82 1.91 1.956 2.16 2.946a22.004 22.004 0 010 9.451c-.41 1.62-2.513 3.636-4.185 4.008a30.71 30.71 0 01-6.597.533.155.155 0 00-.116.047l-2.052 2.107-2.182 2.24a.255.255 0 01-.44-.177v-4.595a.159.159 0 00-.128-.155h-.002c-.95-.211-2.039-.954-2.877-1.852l-1.71 1.515c1.068 1.161 2.445 2.1 3.788 2.484v2.773c0 1.004 1.224 1.497 1.92.773l2.81-2.921a32.78 32.78 0 001.828.053 33.01 33.01 0 006.201-.589l.029-.005c2.544-.555 5.315-3.22 5.93-5.705l.007-.03c.76-3.47.76-6.989 0-10.459z" fill="#fff"/><path d="M27.398 28.24c.223-.069-.257-.078 0 0z" fill="#fff"/><path d="M29.325 25.306c-.337-.297-.701-.552-1.067-.813a25.059 25.059 0 00-1.133-.772c-.387-.245-.845-.24-1.204.052-.367.3-.537.875-1.06.936-.313.037-.586-.095-.858-.208a5.544 5.544 0 01-2.434-1.937l-1.272 1.128c.043.05.084.101.128.15 1.718 1.934 3.887 3.196 6.243 4.174.228.094.473.146.73.224-.257-.078.223-.068 0 0 .223-.068.46-.103.658-.21.702-.376 1.188-.967 1.522-1.677.183-.387.072-.762-.253-1.047zm-5.547-10.442zm-.01-.001h.008c.171.006 2.953.083-.008 0zm4.422 1.833l-.543.481a5.443 5.443 0 011.609 3.138c.06.435.082.875.114 1.314.016.222.127.428.374.425.24-.002.365-.213.348-.435-.041-.527-.074-1.058-.167-1.577a6.189 6.189 0 00-1.735-3.346zm.2 3.514c-.155-1.04-.586-1.89-1.303-2.536l-.54.48c.279.247.52.539.707.86.33.569.471 1.22.473 1.874a.9.9 0 00.037.298c.108.312.577.273.659-.036.022-.086.025-.176.03-.214-.005.038-.013-.212 0 0-.013-.212-.02-.372-.032-.533-.005-.065-.02-.129-.03-.193z" fill="#fff"/><path d="M28.453 20.935c-.013-.211-.005.039 0 0zm-1.918-.074c.005 0 .008-.002.012-.003l-.044.001.032.002zm.001.001l-.033-.002a.437.437 0 00.033.002z" fill="#fff"/><path d="M26.547 20.858c-.004 0-.008.003-.011.003.03-.002.027-.003.011-.003z" fill="#fff"/><path d="M25.991 18.645l-.55.488c.03.018.06.038.089.059.265.193.433.486.51.802.04.16.055.327.073.492.026.226.154.365.39.373l.045-.001a.305.305 0 00.263-.25c.022-.094.012-.2.004-.298-.069-.787-.366-1.327-.824-1.665z" fill="#fff"/></g><defs><clipPath id="beclip0_195_4848"><path fill="#fff" transform="translate(.762)" d="M0 0h46v46H0z"/></clipPath></defs></symbol><symbol fill="none" viewBox="0 0 47 46" id="social-youtube" xmlns="http://www.w3.org/2000/svg"><g clip-path="url(#bfclip0_195_4871)"><path d="M23.048 46c12.702 0 23-10.297 23-23s-10.298-23-23-23c-12.703 0-23 10.297-23 23s10.297 23 23 23z" fill="#D42428"/><path d="M35.084 18.562a3.49 3.49 0 00-3.49-3.491H15.226a3.49 3.49 0 00-3.488 3.49v9.362a3.49 3.49 0 003.488 3.49h16.37a3.49 3.49 0 003.488-3.49v-9.361zm-14.01 8.63v-8.793l6.668 4.396-6.667 4.396z" fill="#fff"/></g><defs><clipPath id="bfclip0_195_4871"><path fill="#fff" transform="translate(.048)" d="M0 0h46v46H0z"/></clipPath></defs></symbol><symbol fill="none" viewBox="0 0 22 22" id="speedometer" xmlns="http://www.w3.org/2000/svg"><path d="M5.016 5.236a.319.319 0 00-.462 0 .319.319 0 000 .462l1.65 1.65a.33.33 0 00.242.088.319.319 0 00.242-.55l-1.672-1.65zm12.43 12.43l-1.65-1.65a.319.319 0 00-.462 0 .319.319 0 000 .462l1.65 1.65a.33.33 0 00.242.088.33.33 0 00.242-.088c.11-.11.11-.33-.022-.462zm-11.242-1.65l-1.65 1.65a.319.319 0 00.242.55.33.33 0 00.242-.088l1.65-1.65a.319.319 0 000-.462c-.154-.11-.352-.11-.484 0zm-1.342-4.334a.338.338 0 00-.33-.33h-2.31a.338.338 0 00-.33.33c0 .176.154.33.33.33h2.332c.176 0 .308-.132.308-.33zm12.276 0c0 .176.154.33.33.33H19.8c.176 0 .33-.154.33-.33a.338.338 0 00-.33-.33h-2.332a.324.324 0 00-.33.33zm-1.342-4.334l1.65-1.65a.319.319 0 000-.462.319.319 0 00-.462 0l-1.65 1.65a.319.319 0 00.242.55.282.282 0 00.22-.088z" fill="#fff"/><path d="M11 1.452C5.368 1.452.77 6.05.77 11.682c0 2.816 1.122 5.456 3.168 7.414a.315.315 0 00.22.088.353.353 0 00.242-.11c.132-.132.11-.33-.022-.462a9.528 9.528 0 01-2.948-6.93c0-5.258 4.29-9.57 9.57-9.57s9.57 4.29 9.57 9.57a9.5 9.5 0 01-2.97 6.93.34.34 0 00-.022.462.34.34 0 00.462.022 10.146 10.146 0 003.168-7.414C21.23 6.05 16.632 1.452 11 1.452z" fill="#fff"/><path d="M11.33 5.236V2.904a.338.338 0 00-.33-.33.338.338 0 00-.33.33v2.332c0 .176.154.33.33.33.176 0 .33-.154.33-.33z" fill="#fff"/><path d="M13.508 17.842H8.492a.338.338 0 00-.33.33v2.024c0 .176.153.33.33.33h5.037c.177 0 .33-.154.33-.33v-2.024c-.021-.176-.153-.33-.351-.33zm-.33 2.046H8.82v-1.364h4.38v1.364h-.022zM9.46 11.682c0 .836.682 1.54 1.54 1.54a1.53 1.53 0 001.496-1.892l5.654-2.75c.154-.088.242-.286.154-.44-.088-.154-.286-.242-.44-.154l-5.676 2.75A1.513 1.513 0 0011 10.164c-.836 0-1.54.682-1.54 1.518zm1.54-.858c.484 0 .88.396.88.88s-.396.88-.88.88a.883.883 0 01-.88-.88c0-.484.396-.88.88-.88z" fill="#F0AE20"/></symbol><symbol fill="none" viewBox="0 0 40 28" id="sweden" xmlns="http://www.w3.org/2000/svg"><path d="M37.004.896H2.996A2.996 2.996 0 000 3.892v20.216a2.996 2.996 0 002.996 2.995h34.008A2.996 2.996 0 0040 24.108V3.892A2.996 2.996 0 0037.004.896z" fill="#4173CD"/><path d="M40 11.93H16.552V.897h-4.138v11.035H0v4.138h12.414v11.034h4.138V16.07H40v-4.14z" fill="#FFE15A"/></symbol><symbol fill="none" viewBox="0 0 32 27" id="telegram" xmlns="http://www.w3.org/2000/svg"><path fill-rule="evenodd" clip-rule="evenodd" d="M2.674 11.704c8.163-3.556 13.606-5.9 16.33-7.033C26.778 1.437 28.394.875 29.447.856c.232-.004.75.054 1.085.326.498.404.5 1.28.445 1.86-.421 4.428-2.244 15.172-3.172 20.13-.393 2.1-1.165 2.803-1.914 2.872-1.625.15-2.86-1.075-4.435-2.107-2.464-1.616-3.857-2.622-6.249-4.198-2.764-1.822-.972-2.823.603-4.46.413-.427 7.577-6.944 7.715-7.535.018-.074.034-.35-.13-.495-.163-.145-.405-.096-.58-.056-.247.056-4.183 2.658-11.81 7.806-1.117.768-2.13 1.141-3.036 1.122-1-.022-2.923-.565-4.353-1.03-1.753-.57-3.147-.872-3.026-1.84.064-.504.758-1.02 2.083-1.547z" fill="#fff"/></symbol><symbol fill="none" viewBox="0 0 80 80" id="top-btn" xmlns="http://www.w3.org/2000/svg"><path d="M40 80c22.091 0 40-17.909 40-40S62.091 0 40 0 0 17.909 0 40s17.909 40 40 40z" fill="#F1B636"/><g clip-path="url(#bjclip0_195_4926)" fill="#fff"><path d="M38.993 16.039L23.922 29.603c-.32.29-.5.694-.5 1.121v9.043c0 .594.349 1.134.892 1.378a1.509 1.509 0 001.621-.256L40 28.232l14.062 12.657a1.51 1.51 0 002.517-1.121v-9.044c0-.427-.184-.831-.498-1.12L41.01 16.038a1.508 1.508 0 00-2.017 0z"/><path d="M38.993 35.632L23.922 49.197c-.32.289-.5.693-.5 1.12v9.044c0 .594.349 1.133.892 1.377a1.509 1.509 0 001.621-.256L40 47.825l14.062 12.657a1.51 1.51 0 002.517-1.121v-9.043c0-.428-.184-.832-.498-1.121L41.01 35.632a1.508 1.508 0 00-2.017 0z"/></g><defs><clipPath id="bjclip0_195_4926"><path fill="#fff" transform="rotate(-90 39.13 21.74)" d="M0 0h45.217v45.217H0z"/></clipPath></defs></symbol><symbol fill="none" viewBox="0 0 40 28" id="uk" xmlns="http://www.w3.org/2000/svg"><path d="M37.004.897H2.996A2.996 2.996 0 000 3.892v20.216a2.996 2.996 0 002.996 2.995h34.008A2.996 2.996 0 0040 24.108V3.892A2.996 2.996 0 0037.004.897z" fill="#41479B"/><path d="M39.959 3.397a2.996 2.996 0 00-2.955-2.5h-.78l-12.776 8.37V.897h-6.896v8.37L3.775.897h-.78a2.996 2.996 0 00-2.954 2.5l10.92 7.155H0v6.896h10.962L.042 24.603a2.996 2.996 0 002.954 2.5h.78l12.776-8.37v8.37h6.896v-8.37l12.777 8.37h.78a2.996 2.996 0 002.953-2.5l-10.92-7.155H40v-6.896H29.038l10.92-7.155z" fill="#F5F5F5"/><path d="M22.069.897h-4.138V11.93H0v4.138h17.931v11.034h4.138V16.07H40v-4.138H22.069V.897z" fill="#FF4B55"/><path d="M1.937 26.91l14.577-9.462H13.98L.72 26.055a3 3 0 001.217.855zm25.125-9.462h-2.534l14.119 9.165c.395-.26.724-.61.96-1.022l-12.545-8.143zM.316 2.553l12.323 7.999h2.533L1.21 1.488a3.01 3.01 0 00-.893 1.065zm25.666 7.999l13.284-8.623a3 3 0 00-1.227-.849l-14.59 9.472h2.533z" fill="#FF4B55"/></symbol><symbol fill="none" viewBox="0 0 40 26" id="ukraine" xmlns="http://www.w3.org/2000/svg"><rect width="40" height="26" rx="3" fill="#FFE15A"/><path d="M0 3a3 3 0 013-3h34a3 3 0 013 3v10H0V3z" fill="#4173CD"/></symbol><symbol fill="none" viewBox="0 0 40 28" id="usa" xmlns="http://www.w3.org/2000/svg"><path d="M37.004.897H2.996A2.996 2.996 0 000 3.892v20.216a2.996 2.996 0 002.996 2.995h34.008A2.996 2.996 0 0040 24.108V3.892A2.996 2.996 0 0037.004.897z" fill="#F5F5F5"/><path d="M.165 2.912h39.67a2.996 2.996 0 00-2.83-2.015H2.994a2.996 2.996 0 00-2.83 2.015zM40 8.96H0v2.016h40V8.96zm0-4.032H0v2.016h40V4.928zm-40 9.39c0 .381.309.69.69.69H40v-2.016H0v1.326zm40 6.738H0v2.016h40v-2.016zm-.165 4.031H.165a2.996 2.996 0 002.83 2.016h34.01a2.996 2.996 0 002.83-2.016zM40 17.024H0v2.016h40v-2.016z" fill="#FF4B55"/><path d="M.69 15.008h17.24a.69.69 0 00.69-.69V1.586a.69.69 0 00-.69-.69H2.996A2.996 2.996 0 000 3.892v10.426c0 .381.309.69.69.69z" fill="#41479B"/><path d="M1.937 2.48l.152.457.483.004c.062 0 .088.08.038.117l-.388.287.145.46a.065.065 0 01-.1.073l-.392-.28-.393.28a.065.065 0 01-.1-.073l.146-.46-.388-.287a.065.065 0 01.038-.117l.483-.004.152-.457c.02-.06.104-.06.124 0zm0 2.394l.152.458.483.004c.062 0 .088.08.038.117l-.388.287.145.46a.065.065 0 01-.1.072l-.392-.28-.393.28a.065.065 0 01-.1-.072l.146-.46-.388-.287a.065.065 0 01.038-.117l.483-.004.152-.458a.066.066 0 01.124 0zm0 2.396l.152.457.483.004c.062 0 .088.08.038.117l-.388.287.145.46a.065.065 0 01-.1.072l-.392-.28-.393.28a.065.065 0 01-.1-.072l.146-.46-.388-.287a.065.065 0 01.038-.117l.483-.004.152-.458a.066.066 0 01.124 0zm0 2.394l.152.458.483.004c.062 0 .088.08.038.117l-.388.287.145.46a.065.065 0 01-.1.072l-.392-.28-.393.28a.065.065 0 01-.1-.072l.146-.46-.388-.287a.065.065 0 01.038-.117l.483-.004.152-.458c.02-.06.104-.06.124 0zm0 2.395l.152.458.483.003c.062.001.088.08.038.118l-.388.287.145.46a.065.065 0 01-.1.072l-.392-.28-.393.28a.065.065 0 01-.1-.072l.146-.46-.388-.287a.065.065 0 01.038-.117l.483-.004.152-.458c.02-.06.104-.06.124 0zm1.858-8.405l.153.457.483.004c.062 0 .088.08.038.117l-.388.287.145.46a.065.065 0 01-.1.073l-.392-.28-.393.28a.065.065 0 01-.1-.073l.146-.46-.388-.287a.065.065 0 01.038-.117l.483-.004.152-.457c.02-.06.104-.06.123 0zm0 2.395l.153.457.483.004c.062 0 .088.08.038.117l-.388.287.145.46a.065.065 0 01-.1.073l-.392-.28-.393.28a.065.065 0 01-.1-.073l.146-.46-.388-.287a.065.065 0 01.038-.117l.483-.004.152-.457c.02-.06.104-.06.123 0zm0 2.394l.153.458.483.004c.062 0 .088.08.038.117l-.388.287.145.46a.065.065 0 01-.1.073l-.392-.281-.393.28a.065.065 0 01-.1-.072l.146-.46-.388-.287a.065.065 0 01.038-.117L3.52 8.9l.152-.458c.02-.059.104-.059.123 0zm0 2.395l.153.458.483.004c.062 0 .088.08.038.117l-.388.287.145.46a.065.065 0 01-.1.072l-.392-.28-.393.28a.065.065 0 01-.1-.072l.146-.46-.388-.287a.065.065 0 01.038-.117l.483-.004.152-.458c.02-.059.104-.059.123 0zM5.654 2.48l.153.457.483.004c.062 0 .088.08.038.117l-.389.287.146.46a.065.065 0 01-.1.073l-.392-.281-.393.28a.065.065 0 01-.1-.072l.146-.46-.388-.287a.065.065 0 01.038-.117l.482-.004.153-.458c.02-.059.104-.059.123 0zm0 2.394l.153.458.483.004c.062 0 .088.08.038.117l-.389.287.146.46a.065.065 0 01-.1.072l-.392-.28-.393.28a.065.065 0 01-.1-.072l.146-.46-.388-.287a.065.065 0 01.038-.117l.482-.004.153-.458c.02-.059.104-.059.123 0zm0 2.396l.153.457.483.004c.062 0 .088.08.038.117l-.389.287.146.46a.065.065 0 01-.1.072l-.392-.28-.393.28a.065.065 0 01-.1-.072l.146-.46-.388-.287a.065.065 0 01.038-.117l.482-.004.153-.458c.02-.059.104-.059.123 0zm0 2.394l.153.458.483.004c.062 0 .088.08.038.117l-.389.287.146.46a.065.065 0 01-.1.072l-.392-.28-.393.28a.065.065 0 01-.1-.072l.146-.46-.388-.287a.065.065 0 01.038-.117l.482-.004.153-.458c.02-.06.104-.06.123 0zm0 2.395l.153.458.483.003c.062.001.088.08.038.118l-.389.287.146.46a.065.065 0 01-.1.072l-.392-.28-.393.28a.065.065 0 01-.1-.072l.146-.46-.388-.287a.065.065 0 01.038-.118l.482-.003.153-.458c.02-.06.104-.06.123 0zm1.859-8.405l.153.457.482.004c.063 0 .089.08.039.117l-.389.287.146.46a.065.065 0 01-.1.073l-.392-.28-.393.28a.065.065 0 01-.1-.073l.146-.46-.388-.287a.065.065 0 01.038-.117l.482-.004.153-.457c.02-.06.103-.06.123 0zm0 2.395l.153.457.482.004c.063 0 .089.08.039.117l-.389.287.146.46a.065.065 0 01-.1.073l-.392-.28-.393.28a.065.065 0 01-.1-.073l.146-.46-.388-.287a.065.065 0 01.038-.117l.482-.004.153-.457c.02-.06.103-.06.123 0zm0 2.394l.153.458.482.004c.063 0 .089.08.039.117l-.389.287.146.46a.065.065 0 01-.1.073l-.392-.281-.393.28a.065.065 0 01-.1-.072l.146-.46-.388-.287a.065.065 0 01.038-.117l.482-.004.153-.458a.065.065 0 01.123 0zm0 2.395l.153.458.482.004c.063 0 .089.08.039.117l-.389.287.146.46a.065.065 0 01-.1.072l-.392-.28-.393.28a.065.065 0 01-.1-.072l.146-.46-.388-.287a.065.065 0 01.038-.117l.482-.004.153-.458a.065.065 0 01.123 0zM9.372 2.48l.153.457.482.004c.063 0 .089.08.038.117l-.388.287.146.46a.065.065 0 01-.1.073l-.393-.281-.392.28a.065.065 0 01-.1-.072l.146-.46-.389-.287a.065.065 0 01.038-.117l.483-.004.153-.457c.02-.06.103-.06.123 0zm0 2.394l.153.458.482.004c.063 0 .089.08.038.117l-.388.287.146.46a.065.065 0 01-.1.072l-.393-.28-.392.28a.065.065 0 01-.1-.072l.146-.46-.389-.287a.065.065 0 01.038-.117l.483-.004.153-.458a.065.065 0 01.123 0zm0 2.396l.153.457.482.004c.063 0 .089.08.038.117l-.388.287.146.46a.065.065 0 01-.1.072l-.393-.28-.392.28a.065.065 0 01-.1-.072l.146-.46-.389-.287a.065.065 0 01.038-.117l.483-.004.153-.458c.02-.06.103-.06.123 0zm0 2.394l.153.458.482.004c.063 0 .089.08.038.117l-.388.287.146.46a.065.065 0 01-.1.072l-.393-.28-.392.28a.065.065 0 01-.1-.072l.146-.46-.389-.287a.065.065 0 01.038-.117l.483-.004.153-.458c.02-.06.103-.06.123 0zm0 2.395l.153.458.482.003c.063.001.089.08.038.118l-.388.287.146.46a.065.065 0 01-.1.072l-.393-.28-.392.28a.065.065 0 01-.1-.072l.146-.46-.389-.287a.065.065 0 01.038-.118l.483-.003.153-.458c.02-.06.103-.06.123 0zm1.858-8.405l.153.457.483.004c.063 0 .088.08.038.117l-.388.287.146.46a.065.065 0 01-.1.073l-.393-.28-.392.28a.065.065 0 01-.1-.073l.145-.46-.388-.287a.065.065 0 01.038-.117l.483-.004.153-.457c.02-.06.103-.06.123 0zm0 2.395l.153.457.483.004c.063 0 .088.08.038.117l-.388.287.146.46a.065.065 0 01-.1.073l-.393-.28-.392.28a.065.065 0 01-.1-.073l.145-.46-.388-.287a.065.065 0 01.038-.117l.483-.004.153-.457c.02-.06.103-.06.123 0zm0 2.394l.153.458.483.004c.063 0 .088.08.038.117l-.388.287.146.46a.065.065 0 01-.1.073l-.393-.281-.392.28a.065.065 0 01-.1-.072l.145-.46-.388-.287a.065.065 0 01.038-.117l.483-.004.153-.458a.065.065 0 01.123 0zm0 2.395l.153.458.483.004c.063 0 .088.08.038.117l-.388.287.146.46a.065.065 0 01-.1.072l-.393-.28-.392.28a.065.065 0 01-.1-.072l.145-.46-.388-.287a.065.065 0 01.038-.117l.483-.004.153-.458a.065.065 0 01.123 0zm1.86-8.358l.152.457.483.004c.063 0 .088.08.038.117l-.388.287.146.46a.065.065 0 01-.1.073l-.393-.281-.392.28a.065.065 0 01-.1-.072l.145-.46-.388-.287a.065.065 0 01.038-.117l.483-.004.152-.458a.066.066 0 01.124 0zm0 2.394l.152.458.483.004c.063 0 .088.08.038.117l-.388.287.146.46a.065.065 0 01-.1.072l-.393-.28-.392.28a.065.065 0 01-.1-.072l.145-.46-.388-.287a.065.065 0 01.038-.117l.483-.004.152-.458a.066.066 0 01.124 0zm0 2.396l.152.457.483.004c.063 0 .088.08.038.117l-.388.287.146.46a.065.065 0 01-.1.072l-.393-.28-.392.28a.065.065 0 01-.1-.072l.145-.46-.388-.287a.065.065 0 01.038-.117l.483-.004.152-.458a.066.066 0 01.124 0zm0 2.394l.152.458.483.004c.063 0 .088.08.038.117l-.388.287.146.46a.065.065 0 01-.1.072l-.393-.28-.392.28a.065.065 0 01-.1-.072l.145-.46-.388-.287a.065.065 0 01.038-.117l.483-.004.152-.458c.02-.06.104-.06.124 0zm0 2.395l.152.458.483.003c.063.001.088.08.038.118l-.388.287.146.46a.065.065 0 01-.1.072l-.393-.28-.392.28a.065.065 0 01-.1-.072l.145-.46-.388-.287a.065.065 0 01.038-.118l.483-.003.152-.458c.02-.06.104-.06.124 0zm1.859-8.405l.152.457.483.004c.062 0 .088.08.038.117l-.388.287.145.46a.065.065 0 01-.1.073l-.392-.28-.393.28a.065.065 0 01-.1-.073l.146-.46-.388-.287a.065.065 0 01.038-.117l.483-.004.152-.457c.02-.06.104-.06.124 0zm0 2.395l.152.457.483.004c.062 0 .088.08.038.117l-.388.287.145.46a.065.065 0 01-.1.073l-.392-.28-.393.28a.065.065 0 01-.1-.073l.146-.46-.388-.287a.065.065 0 01.038-.117l.483-.004.152-.457c.02-.06.104-.06.124 0zm0 2.394l.152.458.483.004c.062 0 .088.08.038.117l-.388.287.145.46a.065.065 0 01-.1.073l-.392-.281-.393.28a.065.065 0 01-.1-.072l.146-.46-.388-.287a.065.065 0 01.038-.117l.483-.004.152-.458a.066.066 0 01.124 0zm0 2.395l.152.458.483.004c.062 0 .088.08.038.117l-.388.287.145.46a.065.065 0 01-.1.072l-.392-.28-.393.28a.065.065 0 01-.1-.072l.146-.46-.388-.287a.065.065 0 01.038-.117l.483-.004.152-.458a.066.066 0 01.124 0zm1.859-8.358l.152.457.483.004c.062 0 .088.08.038.117l-.388.287.145.46a.065.065 0 01-.1.073l-.392-.281-.393.28a.065.065 0 01-.1-.072l.146-.46-.388-.287a.065.065 0 01.038-.117l.483-.004.152-.458c.02-.059.104-.059.123 0zm0 2.394l.152.458.483.004c.062 0 .088.08.038.117l-.388.287.145.46a.065.065 0 01-.1.072l-.392-.28-.393.28a.065.065 0 01-.1-.072l.146-.46-.388-.287a.065.065 0 01.038-.117l.483-.004.152-.458c.02-.059.104-.059.123 0zm0 2.396l.152.457.483.004c.062 0 .088.08.038.117l-.388.287.145.46a.065.065 0 01-.1.072l-.392-.28-.393.28a.065.065 0 01-.1-.072l.146-.46-.388-.287a.065.065 0 01.038-.117l.483-.004.152-.458c.02-.059.104-.059.123 0zm0 2.394l.152.458.483.004c.062 0 .088.08.038.117l-.388.287.145.46a.065.065 0 01-.1.072l-.392-.28-.393.28a.065.065 0 01-.1-.072l.146-.46-.388-.287a.065.065 0 01.038-.117l.483-.004.152-.458c.02-.06.104-.06.123 0zm0 2.395l.152.458.483.003c.062.001.088.08.038.118l-.388.287.145.46a.065.065 0 01-.1.072l-.392-.28-.393.28a.065.065 0 01-.1-.072l.146-.46-.388-.287a.065.065 0 01.038-.118l.483-.003.152-.458c.02-.06.104-.06.123 0z" fill="#F5F5F5"/></symbol><symbol fill="none" viewBox="0 0 30 32" id="viber" xmlns="http://www.w3.org/2000/svg"><path d="M27.17 17.516c-.787 6.35-5.435 6.75-6.29 7.024-2.619.64-5.32.87-8.009.682 0 0-3.176 3.247-4.161 4.242a.538.538 0 01-.459.188c-.171-.042-.219-.244-.219-.54.007-.421.027-4.647.027-4.647-6.201-1.721-5.838-8.195-5.77-11.585.069-3.39.705-6.166 2.601-8.033 3.395-3.078 10.397-2.618 10.397-2.618 5.914.025 8.748 1.805 9.405 2.402 2.177 1.867 3.292 6.336 2.478 12.884v.001zm-.85-14.469C25.548 2.331 22.406.053 15.417.022c0 0-8.24-.497-12.258 3.189C.92 5.448.133 8.72.05 12.779c-.082 4.058-.746 11.664 6.585 13.727v3.146c0 .804.24 1.987 1.396 1.987.472 0 1.143-.18 2.08-1.133l3.115-3.003a30.07 30.07 0 008.467-.757c1.013-.329 6.742-1.063 7.673-8.667.958-7.839-.465-12.797-3.046-15.032z" fill="#fff"/><path fill-rule="evenodd" clip-rule="evenodd" d="M14.848 5.629a7.527 7.527 0 017.53 7.529.705.705 0 01-.199.484.686.686 0 01-1.17-.484 6.165 6.165 0 00-6.16-6.16h-.062a.686.686 0 010-1.37h.061z" fill="#fff"/><path fill-rule="evenodd" clip-rule="evenodd" d="M14.848 8.366a4.79 4.79 0 014.792 4.792.686.686 0 01-1.17.484.704.704 0 01-.2-.484 3.424 3.424 0 00-3.421-3.423h-.062a.685.685 0 01-.685-.684.686.686 0 01.685-.685h.061z" fill="#fff"/><path d="M22.086 19.922a1.053 1.053 0 00-.144-1.303 17.173 17.173 0 00-2.71-1.957 1.202 1.202 0 00-1.527.212l-.554.691c-.698.862-2.834-.43-3.847-1.49-1.061-1.019-2.355-3.151-1.492-3.85l.691-.55a1.207 1.207 0 00.212-1.529 16.502 16.502 0 00-1.957-2.71 1.05 1.05 0 00-1.3-.146 6.15 6.15 0 00-1.424 1.156 1.808 1.808 0 00-.486 1.858 20.278 20.278 0 004.394 7.134 20.345 20.345 0 007.132 4.392 1.806 1.806 0 001.862-.483c.433-.432.819-.91 1.15-1.425z" fill="#fff"/></symbol></svg>