<svg width="29" height="29" viewBox="0 0 29 29" fill="none" xmlns="http://www.w3.org/2000/svg">
<path d="M9.74263 23.9056C9.68882 23.9056 9.63558 23.8946 9.58623 23.8732C9.53687 23.8517 9.49246 23.8203 9.45577 23.781L6.55576 20.6694C6.51858 20.6322 6.48927 20.5878 6.46959 20.5391C6.4499 20.4903 6.44023 20.438 6.44116 20.3854C6.4421 20.3328 6.45361 20.281 6.47501 20.2329C6.49642 20.1849 6.52728 20.1416 6.56576 20.1057C6.60424 20.0699 6.64954 20.0421 6.69898 20.0241C6.74841 20.0061 6.80096 19.9983 6.85349 20.001C6.90602 20.0038 6.95747 20.0171 7.00475 20.0401C7.05203 20.0632 7.09419 20.0955 7.12871 20.1352L10.0287 23.2468C10.0806 23.3027 10.1151 23.3724 10.128 23.4475C10.1409 23.5227 10.1316 23.5999 10.1012 23.6698C10.0708 23.7397 10.0207 23.7993 9.95706 23.8412C9.89337 23.883 9.81885 23.9054 9.74263 23.9056Z" fill="white"/>
<path d="M22.8118 23.9056H9.74257C9.68876 23.9056 9.63552 23.8946 9.58617 23.8732C9.53682 23.8517 9.49241 23.8203 9.45571 23.781L6.67328 20.794H3.94688C3.84295 20.794 3.74327 20.7527 3.66978 20.6792C3.59628 20.6057 3.55499 20.506 3.55499 20.4021V11.6876C3.55499 11.5837 3.59628 11.484 3.66978 11.4105C3.74327 11.337 3.84295 11.2957 3.94688 11.2957H6.45029V8.57597C6.45029 8.47204 6.49158 8.37236 6.56507 8.29887C6.63857 8.22537 6.73825 8.18408 6.84218 8.18408H18.8607C18.9162 8.18406 18.9711 8.19582 19.0217 8.21859C19.0723 8.24136 19.1175 8.27461 19.1542 8.31615L23.1053 12.7837C23.1687 12.8554 23.2037 12.9478 23.2037 13.0435V15.7409H24.8751V14.2439C24.8751 14.14 24.9164 14.0403 24.9899 13.9668C25.0634 13.8933 25.163 13.852 25.267 13.852H26.4717C26.9338 13.8525 27.377 14.0363 27.7039 14.3629C28.0309 14.6896 28.215 15.1326 28.216 15.5948V20.3602C28.2153 20.8226 28.0314 21.2658 27.7044 21.5928C27.3774 21.9197 26.934 22.1036 26.4717 22.1041H25.267C25.163 22.1041 25.0634 22.0628 24.9899 21.9893C24.9164 21.9158 24.8751 21.8161 24.8751 21.7122V20.2152H23.2037V23.5137C23.2037 23.6177 23.1624 23.7173 23.0889 23.7908C23.0154 23.8643 22.9157 23.9056 22.8118 23.9056ZM9.91461 23.1218H22.4199V19.8233C22.4199 19.7193 22.4612 19.6197 22.5347 19.5462C22.6082 19.4727 22.7078 19.4314 22.8118 19.4314H25.267C25.3709 19.4314 25.4706 19.4727 25.5441 19.5462C25.6176 19.6197 25.6589 19.7193 25.6589 19.8233V21.3191H26.4717C26.726 21.3188 26.9699 21.2177 27.15 21.038C27.33 20.8583 27.4315 20.6145 27.4322 20.3602V15.5948C27.4318 15.3402 27.3304 15.0961 27.1504 14.9162C26.9703 14.7362 26.7262 14.6349 26.4717 14.6346H25.6589V16.1317C25.6589 16.2356 25.6176 16.3353 25.5441 16.4088C25.4706 16.4823 25.3709 16.5235 25.267 16.5235H22.8118C22.7078 16.5235 22.6082 16.4823 22.5347 16.4088C22.4612 16.3353 22.4199 16.2356 22.4199 16.1317V13.1925L18.684 8.96787H7.23407V11.6876C7.23407 11.7915 7.19278 11.8912 7.11929 11.9647C7.0458 12.0382 6.94612 12.0795 6.84218 12.0795H4.33878V20.0118H6.84218C6.89595 20.0118 6.94914 20.023 6.99842 20.0445C7.0477 20.066 7.09204 20.0974 7.12865 20.1368L9.91461 23.1218Z" fill="white"/>
<path d="M13.5397 8.9678C13.4358 8.9678 13.3361 8.92651 13.2626 8.85301C13.1891 8.77952 13.1478 8.67984 13.1478 8.5759V4.48662C13.1478 4.38268 13.1891 4.283 13.2626 4.20951C13.3361 4.13602 13.4358 4.09473 13.5397 4.09473C13.6437 4.09473 13.7433 4.13602 13.8168 4.20951C13.8903 4.283 13.9316 4.38268 13.9316 4.48662V8.57747C13.9312 8.68114 13.8897 8.78041 13.8163 8.85357C13.7428 8.92672 13.6434 8.9678 13.5397 8.9678Z" fill="white"/>
<path d="M16.8547 4.87851H10.222C10.118 4.87851 10.0184 4.83722 9.94486 4.76373C9.87137 4.69023 9.83008 4.59055 9.83008 4.48662C9.83008 4.38268 9.87137 4.283 9.94486 4.20951C10.0184 4.13602 10.118 4.09473 10.222 4.09473H16.8547C16.9587 4.09473 17.0584 4.13602 17.1318 4.20951C17.2053 4.283 17.2466 4.38268 17.2466 4.48662C17.2466 4.59055 17.2053 4.69023 17.1318 4.76373C17.0584 4.83722 16.9587 4.87851 16.8547 4.87851Z" fill="white"/>
<path d="M3.94729 16.6944H1.17583C1.07189 16.6944 0.972212 16.6531 0.898718 16.5796C0.825224 16.5062 0.783936 16.4065 0.783936 16.3025C0.783936 16.1986 0.825224 16.0989 0.898718 16.0254C0.972212 15.9519 1.07189 15.9106 1.17583 15.9106H3.94729C4.05122 15.9106 4.1509 15.9519 4.2244 16.0254C4.29789 16.0989 4.33918 16.1986 4.33918 16.3025C4.33918 16.4065 4.29789 16.5062 4.2244 16.5796C4.1509 16.6531 4.05122 16.6944 3.94729 16.6944Z" fill="white"/>
<path d="M1.17583 19.2707C1.07189 19.2707 0.972212 19.2294 0.898718 19.1559C0.825224 19.0824 0.783936 18.9827 0.783936 18.8788V13.7273C0.783936 13.6234 0.825224 13.5237 0.898718 13.4502C0.972212 13.3767 1.07189 13.3354 1.17583 13.3354C1.27976 13.3354 1.37944 13.3767 1.45294 13.4502C1.52643 13.5237 1.56772 13.6234 1.56772 13.7273V18.8788C1.56772 18.9827 1.52643 19.0824 1.45294 19.1559C1.37944 19.2294 1.27976 19.2707 1.17583 19.2707Z" fill="white"/>
<path d="M12.4769 20.7702C12.4222 20.7705 12.3681 20.7593 12.3181 20.7374C12.268 20.7155 12.2231 20.6833 12.1862 20.643C12.1493 20.6027 12.1212 20.5551 12.1038 20.5034C12.0863 20.4516 12.0799 20.3967 12.085 20.3423L12.4059 16.8678L10.9058 16.2243C10.8468 16.199 10.7949 16.1597 10.7546 16.1097C10.7144 16.0597 10.6871 16.0005 10.675 15.9375C10.663 15.8745 10.6666 15.8094 10.6856 15.7481C10.7046 15.6868 10.7383 15.6311 10.7839 15.5859L14.885 11.5075C14.945 11.4477 15.0227 11.4089 15.1065 11.397C15.1904 11.385 15.2758 11.4006 15.3501 11.4413C15.4243 11.4819 15.4834 11.5456 15.5185 11.6227C15.5535 11.6997 15.5627 11.7861 15.5446 11.8688L14.7608 15.4699L16.4922 16.0283C16.5557 16.0488 16.613 16.0852 16.6585 16.134C16.704 16.1829 16.7364 16.2425 16.7524 16.3073C16.7684 16.3721 16.7676 16.4399 16.75 16.5044C16.7325 16.5688 16.6988 16.6276 16.6521 16.6754L12.7571 20.6527C12.7205 20.6899 12.6769 20.7195 12.6288 20.7397C12.5807 20.7599 12.529 20.7703 12.4769 20.7702ZM11.7483 15.7325L12.9789 16.2596C13.0549 16.2923 13.1186 16.3483 13.1608 16.4195C13.2031 16.4906 13.2217 16.5734 13.214 16.6558L12.9683 19.3163L15.648 16.5797L14.1808 16.1067C14.0881 16.0768 14.0099 16.0135 13.9614 15.9291C13.9129 15.8447 13.8975 15.7453 13.9182 15.6502L14.4955 12.9994L11.7483 15.7325Z" fill="#F0AE20"/>
</svg>
