<svg width="22" height="22" viewBox="0 0 22 22" fill="none" xmlns="http://www.w3.org/2000/svg">
<path fill-rule="evenodd" clip-rule="evenodd" d="M4.35598 8.25016C5.52565 4.53308 9.00166 1.8335 13.1028 1.8335C15.8152 1.8335 18.2536 3.01325 19.9329 4.88875C20.2702 5.2655 20.2382 5.84575 19.8614 6.18308C19.4847 6.52041 18.9044 6.48833 18.5671 6.11158C17.2232 4.61191 15.2726 3.66683 13.1028 3.66683C10.0274 3.66683 7.39199 5.56341 6.30299 8.25016H10.0833C10.5893 8.25016 11 8.66083 11 9.16683C11 9.67283 10.5893 10.0835 10.0833 10.0835H5.82632C5.78873 10.3842 5.76949 10.6894 5.76949 11.0002C5.76949 11.3109 5.78873 11.6162 5.82632 11.9168H10.0833C10.5893 11.9168 11 12.3275 11 12.8335C11 13.3395 10.5893 13.7502 10.0833 13.7502H6.30299C7.39199 16.4369 10.0274 18.3335 13.1028 18.3335C15.2726 18.3335 17.2232 17.3884 18.5671 15.8887C18.9044 15.512 19.4847 15.4799 19.8614 15.8172C20.2382 16.1546 20.2702 16.7348 19.9329 17.1116C18.2536 18.9871 15.8152 20.1668 13.1028 20.1668C9.00166 20.1668 5.52565 17.4672 4.35598 13.7502H2.74998C2.24398 13.7502 1.83331 13.3395 1.83331 12.8335C1.83331 12.3275 2.24398 11.9168 2.74998 11.9168H3.98107C3.95173 11.6152 3.93615 11.3091 3.93615 11.0002C3.93615 10.6912 3.95173 10.3851 3.98107 10.0835H2.74998C2.24398 10.0835 1.83331 9.67283 1.83331 9.16683C1.83331 8.66083 2.24398 8.25016 2.74998 8.25016H4.35598Z" fill="white"/>
</svg>
