<svg width="266" height="466" xmlns="http://www.w3.org/2000/svg" class="svg-icon">
    <g opacity=".8" fill="#3A3A3A">
        <path d="M346.693 321.842l6.004 24.286-24.764-5.888c-24.514 20.116-56.282 32.136-90.801 32.136v93.462l31.267-51.024c81.296-13.247 144.832-78.008 155.338-158.714h-46.526c-4.003 24.531-14.759 47.099-30.518 65.742zM122.069 345.882l6.253-24.285c-20.511-24.04-32.768-55.194-32.768-89.046H0l52.03 30.663c13.507 79.725 79.544 142.278 161.841 152.335v-45.627c-25.265-4.17-48.278-14.718-67.038-30.172l-24.764 6.132zM128.062 143.75l-6.253-24.285 24.764 5.887c24.013-19.625 54.781-31.645 88.299-32.135h3.002V0l-31.267 50.779C125.061 64.025 61.275 128.54 50.769 209.493h46.526c4.252-24.777 15.008-47.345 30.767-65.743zM352.707 119.464l-6.004 24.285c20.512 24.04 32.769 55.194 32.769 89.047h95.304l-52.03-30.664C409.239 122.408 343.451 60.1 261.155 49.797v45.627c25.264 4.17 48.027 14.964 66.788 30.173l24.764-6.133z"/>
        <path d="M332.933 187.415c-.25.245-.75.245-1 .245-.751 0-1.501-.49-2.001-1.226-.501-.982 0-2.453 1-2.944l8.755-4.416c-2.251-3.924-4.502-7.849-7.254-11.529l-8.004 5.642c-.251.245-.751.491-1.251.491h-.25c-.501 0-1.001-.491-1.501-.982-.751-.981-.5-2.207.5-2.943l7.755-5.642a76.168 76.168 0 00-8.255-9.567l-8.755 8.586c-.5.49-1.501.981-2.251.981-.751 0-1.501-.246-2.252-.981-.5-.491-1-1.227-1-2.208 0-.736.25-1.717 1-2.208l8.755-8.586a76.976 76.976 0 00-9.755-8.095l-5.753 7.85c-.501.491-1.001.981-1.751.981-.501 0-1.001-.245-1.251-.49-1.001-.736-1.251-1.963-.5-2.944l5.753-7.85c-3.752-2.698-7.755-4.906-11.757-7.114l-4.502 8.586c-.25.49-.751.981-1.251.981h-.75c-.251 0-.751 0-1.001-.245-1.001-.491-1.501-1.963-1.001-2.944l4.503-8.586c-4.002-1.962-8.255-3.679-12.757-5.151l-3.002 9.076c-.25.491-.5.982-1.001 1.227-.25.245-.75.245-1 .245h-.751c-1.25-.491-1.751-1.472-1.5-2.698l3.001-9.077c-4.252-1.226-8.755-2.453-13.507-3.189l-1.501 9.567c0 .491-.5.982-1.001 1.472-.5.246-.75.491-1.25.491h-.251c-1.25-.245-2.001-1.227-1.751-2.453l1.501-9.322c-4.252-.491-8.504-.981-12.757-.981v12.265c0 1.717-1.501 2.944-3.252 2.944s-3.001-1.472-3.001-2.944v-12.265c-4.253 0-8.505.49-12.758.981l1.501 9.322c.25 1.226-.75 2.208-1.751 2.453h-.25c-1 0-2.001-.736-2.251-1.717l-1.501-9.322c-4.503.736-9.005 1.717-13.508 3.189l3.002 9.076c.25 1.227-.25 2.453-1.501 2.699h-.75c-.25 0-.751 0-1.001-.246-.5-.245-1-.735-1-1.226l-3.002-9.076a138.646 138.646 0 00-12.757 5.151l4.502 8.586c.501.981 0 2.453-1 2.943h-1.501c-.5-.245-1.001-.49-1.251-.981l-4.502-8.831c-4.003 2.208-8.005 4.416-11.757 7.114l5.753 7.85c.751.981.501 2.208-.5 2.944-.5.245-.75.49-1.251.49h-.25c-.5 0-1-.49-1.501-.981l-5.753-7.605c-3.502 2.453-6.754 5.397-9.755 8.096l8.754 8.585a3.067 3.067 0 010 4.416c-.5.49-1.5.981-2.251.981-.75 0-1.501-.245-2.251-.981l-8.755-8.586a76.31 76.31 0 00-8.255 9.567l8.005 5.642c.5.245.75.981 1 1.472 0 .491 0 1.226-.5 1.717-.25.491-.75.736-1.501.736h-.25c-.5 0-1-.245-1.251-.491l-7.754-5.642c-2.501 3.68-5.003 7.605-7.254 11.53l8.755 4.415c1 .491 1.501 1.963 1 2.944-.5.736-1.25 1.227-2.001 1.227-.25 0-.75 0-1-.246l-8.755-4.415c-2.001 3.925-3.752 8.095-5.253 12.51l9.255 2.944c1.251.491 1.751 1.472 1.501 2.698-.25.491-.5.982-1.001 1.227-.25.245-.75.245-1 .245h-.751l-9.255-2.943c-1.251 4.17-2.501 8.585-3.252 13.246l9.506 1.472c.5 0 1 .491 1.501.981.25.491.5.981.5 1.717-.25.982-1.001 1.718-2.251 1.718h-.251l-9.505-1.472c-.5 4.17-1.001 8.34-1.001 12.51h12.508c1.75 0 3.001 1.472 3.001 2.944 0 1.717-1.501 2.944-3.001 2.944h-12.508c0 4.17.501 8.34 1.001 12.51l9.505-1.471c1.251-.246 2.252.735 2.502 1.717 0 .49 0 1.226-.5 1.472-.251.49-.751.735-1.501.981l-9.506 1.472c.751 4.415 1.751 8.831 3.252 13.246l9.255-2.943c.501-.246 1.251-.246 1.751.245.501.245 1.001.736 1.001 1.226.25 1.227-.25 2.453-1.501 2.699l-9.255 2.943a133.086 133.086 0 005.253 12.511l8.755-4.415c1-.491 2.501-.246 3.001.981.501.981 0 2.453-1 2.944l-8.755 4.415c2.251 3.925 4.502 7.85 7.254 11.529l7.754-5.642c.501-.245 1.001-.49 1.751-.49.501 0 1.001.49 1.501.981.25.491.501.981.501 1.472 0 .49-.501.981-1.001 1.472l-7.754 5.642c2.501 3.434 5.503 6.623 8.254 9.567l8.755-8.586c.5-.491 1.251-.981 2.251-.981.751 0 1.501.245 2.252.981.5.491 1 1.472 1 2.208 0 .736-.25 1.472-1 2.208l-8.755 8.585a76.891 76.891 0 009.755 8.095l5.754-7.849c.75-.982 2.001-1.227 3.001-.491.501.245.751.736 1.001 1.472 0 .49 0 1.226-.5 1.717l-5.754 7.604c3.752 2.454 7.755 4.907 11.757 7.114l4.502-8.585c.251-.491.751-.982 1.251-.982.5-.245 1.251-.245 1.751.246 1.001.49 1.501 1.962 1.001 2.943l-4.503 8.586c4.002 1.963 8.255 3.68 12.757 5.152l3.002-9.077c.25-.49.5-.981 1.001-1.226.5-.246 1.25-.246 1.751 0 1.25.49 1.751 1.472 1.5 2.698l-3.001 9.076c4.252 1.227 8.755 2.454 13.507 3.189l1.501-9.321c0-.491.501-.981 1.001-1.472.5-.245 1-.491 1.751-.491.5 0 1 .491 1.501.736.25.491.5.981.5 1.717l-1.501 9.322c4.252.491 8.505.981 12.757.981v-12.265c0-1.717 1.501-2.944 3.002-2.944 1.751 0 3.252 1.472 3.252 2.944v12.265c4.252 0 8.505-.49 12.757-.981l-1.501-9.567c0-.491 0-1.226.5-1.717.251-.491.751-.736 1.501-.981.501 0 1.251 0 1.501.49.5.246.751.736 1.001 1.472l1.501 9.567c4.502-.736 9.005-1.962 13.507-3.189l-3.002-9.076c-.25-1.227.251-2.453 1.501-2.699.501-.245 1.251-.245 1.751.246.501.245 1.001.736 1.001 1.226l3.002 9.077a138.772 138.772 0 0012.757-5.152l-4.503-8.586c-.5-.981-.25-2.453 1.001-2.943.5-.246 1.251-.246 1.751-.246.5.246 1 .491 1.251.982l4.502 8.585c4.002-2.207 8.005-4.415 11.757-7.114l-5.754-7.849c-.75-.982-.5-2.208.501-2.944 1-.736 2.501-.491 3.001.491l5.754 7.849c3.502-2.453 6.753-5.396 9.755-8.095l-8.755-8.585a3.069 3.069 0 010-4.416 3.214 3.214 0 014.503 0l8.755 8.586c3.001-2.944 5.753-6.378 8.254-9.567l-8.004-5.642c-.5-.246-.751-.736-1.001-1.472 0-.491 0-1.227.501-1.717.25-.491.75-.736 1.5-.736.501 0 1.251 0 1.751.49l8.005 5.642c2.501-3.679 5.003-7.604 7.254-11.529l-8.755-4.415c-1-.491-1.501-1.963-1-2.944.25-.491.75-.981 1.25-.981.501-.246 1.251-.246 1.751.245l8.755 4.415c2.001-3.924 3.752-8.095 5.253-12.51l-9.255-2.944c-1.251-.491-1.751-1.717-1.501-2.698.5-1.227 1.501-1.717 2.752-1.472l9.255 2.944c1-3.189 1.751-6.624 2.501-9.813h-44.775c-9.756 27.965-36.771 48.08-68.789 48.08-40.022 0-72.541-31.89-72.541-71.139 0-39.249 32.519-71.139 72.541-71.139 28.766 0 53.78 16.436 65.537 40.476h46.026c-1.751-6.623-4.252-12.756-7.254-18.889l-10.006 3.68z"/>
    </g>
</svg>
