<svg width="10" height="10" viewBox="0 0 10 10" fill="none" xmlns="http://www.w3.org/2000/svg">
<path d="M9.07949 0.941406H0.920508C0.422852 0.941406 0 1.34297 0 1.86191V8.13809C0 8.45098 0.153711 8.72129 0.385156 8.88672L3.85137 5.42051C3.96582 5.30606 4.15137 5.30606 4.26582 5.42051L5.31387 6.46856L7.61699 4.16524C7.67207 4.11035 7.74648 4.07949 7.82422 4.07949C7.90195 4.07949 7.97637 4.11035 8.03145 4.16524L10 6.13379V1.86191C10 1.34297 9.57715 0.941406 9.07949 0.941406ZM2.48965 4.66543C1.80898 4.66543 1.25527 4.11172 1.25527 3.43106C1.25527 2.75039 1.80898 2.19668 2.48965 2.19668C3.17031 2.19668 3.72402 2.75039 3.72402 3.43106C3.72402 4.11172 3.17031 4.66543 2.48965 4.66543ZM2.48965 2.78262C2.13203 2.78262 1.84121 3.07344 1.84121 3.43106C1.84121 3.78848 2.13203 4.07949 2.48965 4.07949C2.84707 4.07949 3.13809 3.78848 3.13809 3.43106C3.13809 3.07344 2.84707 2.78262 2.48965 2.78262ZM7.82422 4.78672L5.5209 7.09004C5.40664 7.2043 5.22109 7.2043 5.10664 7.09004L4.05859 6.04199L1.04199 9.0586H9.07949C9.57715 9.0586 10 8.65703 10 8.13809V6.9625L7.82422 4.78672Z" fill="white"/>
</svg>
