<svg width="157" height="44" xmlns="http://www.w3.org/2000/svg" class="svg-icon">
    <path d="M32.154 29.827l.557 2.25-2.295-.545C28.144 33.397 25.2 34.51 22 34.51v8.662l2.898-4.728c7.534-1.228 13.423-7.23 14.396-14.71h-4.312a12.576 12.576 0 01-2.828 6.093zM11.336 32.056l.58-2.251a12.676 12.676 0 01-3.037-8.253H.023l4.822 2.842c1.252 7.389 7.372 13.186 15 14.118v-4.229a13.105 13.105 0 01-6.214-2.796l-2.295.569zM11.893 13.322l-.58-2.25 2.295.545a13.212 13.212 0 018.184-2.978h.278V0l-2.898 4.706c-7.558 1.228-13.469 7.207-14.443 14.71h4.312a12.628 12.628 0 012.852-6.094zM32.71 11.072l-.556 2.25a12.675 12.675 0 013.037 8.253h8.832l-4.821-2.842C37.95 11.345 31.852 5.57 24.226 4.615v4.229a13.246 13.246 0 016.19 2.796l2.295-.568z" fill="#DEAC35"/>
    <path d="M30.88 17.37c-.024.022-.07.022-.094.022-.07 0-.139-.046-.185-.114-.046-.09 0-.227.093-.273l.811-.409c-.209-.363-.417-.727-.672-1.068l-.742.523a.179.179 0 01-.116.045h-.023c-.047 0-.093-.045-.14-.09-.069-.092-.046-.206.047-.274l.719-.523a7.07 7.07 0 00-.765-.886l-.812.795a.349.349 0 01-.208.091.286.286 0 01-.209-.09.286.286 0 01-.093-.205c0-.068.024-.16.093-.205l.811-.795a7.145 7.145 0 00-.904-.75l-.533.727c-.046.045-.093.09-.162.09a.179.179 0 01-.116-.045c-.093-.068-.116-.182-.046-.272l.533-.728c-.348-.25-.719-.455-1.09-.66l-.417.796c-.023.046-.07.091-.116.091h-.07c-.023 0-.07 0-.092-.022-.093-.046-.14-.182-.093-.273l.417-.796a9.107 9.107 0 00-1.182-.477l-.278.84c-.023.046-.046.092-.093.114-.023.023-.07.023-.093.023h-.07c-.115-.045-.162-.136-.138-.25l.278-.841a10.065 10.065 0 00-1.252-.296l-.139.887c0 .046-.046.091-.093.137-.046.022-.07.045-.116.045h-.023c-.116-.023-.185-.114-.162-.227l.139-.864a10.34 10.34 0 00-1.182-.091v1.137c0 .159-.14.272-.302.272a.28.28 0 01-.278-.272v-1.137c-.394 0-.788.045-1.182.09l.139.865c.023.113-.07.204-.162.227h-.023a.222.222 0 01-.21-.16l-.138-.863a8.32 8.32 0 00-1.252.296l.278.84c.023.114-.023.228-.139.25h-.07c-.023 0-.07 0-.092-.022-.047-.023-.093-.068-.093-.114l-.278-.84c-.394.136-.788.295-1.183.477l.418.795c.046.091 0 .228-.093.273h-.14c-.045-.023-.092-.045-.115-.09l-.417-.82c-.371.205-.742.41-1.09.66l.533.728c.07.09.047.204-.046.272-.046.023-.07.046-.116.046h-.023c-.047 0-.093-.046-.14-.091l-.532-.705c-.325.227-.626.5-.904.75l.81.796a.284.284 0 010 .41.348.348 0 01-.208.09.286.286 0 01-.208-.09l-.812-.796a7.067 7.067 0 00-.765.886l.742.523c.046.023.07.091.093.136 0 .046 0 .114-.047.16-.023.045-.07.068-.139.068h-.023a.179.179 0 01-.116-.046l-.718-.523a16.75 16.75 0 00-.673 1.069l.812.41c.092.045.139.181.092.272-.046.068-.116.114-.185.114-.023 0-.07 0-.093-.023l-.811-.41a8.75 8.75 0 00-.487 1.16l.858.273c.116.045.162.136.139.25-.023.046-.046.091-.093.114-.023.022-.07.022-.093.022h-.07l-.857-.272a9.551 9.551 0 00-.301 1.227l.88.137c.047 0 .093.045.14.09.023.046.046.091.046.16a.202.202 0 01-.208.159h-.024l-.88-.136a9.76 9.76 0 00-.093 1.159h1.159a.28.28 0 01.278.273.28.28 0 01-.278.273h-1.16c0 .386.047.773.093 1.159l.881-.136c.116-.023.209.068.232.159 0 .045 0 .113-.046.136-.023.046-.07.068-.14.091l-.88.136c.07.41.162.819.301 1.228l.858-.273a.145.145 0 01.162.023c.046.023.093.068.093.114.023.113-.023.227-.14.25l-.857.273c.14.386.301.773.487 1.16l.811-.41c.093-.046.232-.023.278.09.047.092 0 .228-.092.274l-.812.409c.209.364.418.727.673 1.068l.718-.523c.047-.022.093-.045.163-.045.046 0 .092.045.139.09.023.046.046.092.046.137 0 .046-.046.091-.093.137l-.718.523c.231.318.51.613.765.886l.811-.796a.296.296 0 01.209-.09c.07 0 .139.022.208.09a.336.336 0 01.093.205.275.275 0 01-.093.205l-.811.796c.278.272.58.522.904.75l.533-.728c.07-.09.186-.114.278-.045.047.023.07.068.093.136 0 .046 0 .114-.046.16l-.534.704c.348.227.72.455 1.09.66l.417-.796c.024-.046.07-.091.116-.091a.145.145 0 01.163.022c.092.046.139.182.092.273l-.417.796c.37.182.765.341 1.182.477l.279-.84c.023-.046.046-.092.092-.114a.202.202 0 01.162 0c.116.045.163.136.14.25l-.279.84c.395.114.812.228 1.252.296l.14-.864c0-.045.046-.09.092-.136.047-.023.093-.045.162-.045.047 0 .093.045.14.068.023.045.046.09.046.159l-.14.864c.395.045.789.09 1.183.09v-1.136c0-.16.14-.273.278-.273.163 0 .302.137.302.273v1.137c.394 0 .788-.046 1.182-.091l-.14-.887c0-.045 0-.114.047-.159.023-.045.07-.068.14-.09.046 0 .115 0 .138.045.047.022.07.068.093.136l.14.887c.416-.069.834-.182 1.251-.296l-.278-.841c-.023-.114.023-.227.139-.25a.145.145 0 01.162.023c.047.022.093.068.093.113l.278.841c.394-.136.788-.295 1.182-.477l-.417-.796c-.046-.09-.023-.227.093-.273.046-.022.116-.022.162-.022.047.022.093.045.116.09l.417.796c.371-.204.742-.409 1.09-.659l-.533-.727c-.07-.091-.047-.205.046-.273.093-.069.232-.046.278.045l.533.728c.325-.228.626-.5.905-.75l-.812-.796a.284.284 0 010-.41.298.298 0 01.418 0l.81.796c.279-.273.534-.59.766-.886l-.742-.523c-.046-.023-.07-.069-.093-.137 0-.045 0-.113.047-.159.023-.045.07-.068.139-.068.046 0 .116 0 .162.045l.742.523c.232-.34.463-.704.672-1.068l-.811-.41c-.093-.045-.14-.181-.093-.272.023-.046.07-.091.116-.091a.145.145 0 01.162.023l.812.409c.185-.364.347-.75.486-1.16l-.857-.273a.216.216 0 01-.14-.25c.047-.113.14-.159.256-.136l.857.273c.093-.296.163-.614.232-.91h-4.15c-.904 2.592-3.407 4.456-6.375 4.456-3.709 0-6.723-2.955-6.723-6.593 0-3.637 3.014-6.593 6.723-6.593 2.666 0 4.985 1.524 6.074 3.752h4.266a9.437 9.437 0 00-.673-1.75l-.927.34z" fill="#DEAC35"/>
    <path d="M88.418 32.85v5.878h-2.596v-5.877h-2.646v-2.007h7.936v2.007h-2.694zM99.587 34.57c-.245.382-.637.668-1.176.86l1.813 3.297h-2.94l-1.42-2.867h-.98v2.867h-2.596v-7.933h4.948c.587 0 1.077.096 1.47.335.391.239.734.526.93.908.196.382.294.764.294 1.194.049.478-.098.908-.343 1.338zm-2.498-1.72c-.147-.144-.294-.192-.54-.192h-1.714v1.481H96.6c.196 0 .392-.047.539-.19.147-.144.196-.335.196-.526 0-.287-.098-.478-.245-.574zM106.886 38.727l-.343-1.1h-2.841l-.343 1.1h-2.645l2.939-7.933h3.037l2.939 7.933h-2.743zm-2.645-2.867h1.763l-.832-2.82h-.049l-.882 2.82zM118.398 34.76c0 2.629-1.421 3.967-4.262 3.967h-3.527v-7.933h3.527c2.841 0 4.262 1.338 4.262 3.967zm-5.144 2.055h.882c1.078 0 1.617-.573 1.617-1.72v-.669c0-1.147-.539-1.72-1.617-1.72h-.882v4.11zM119.819 30.794h7.005v1.912h-4.409v1.099h3.772v1.816h-3.772v1.194h4.507v1.912h-7.103v-7.933zM66.178 10.964c1.322 1.099 1.96 2.676 1.96 4.683h-4.655c0-.86-.245-1.53-.685-2.055-.441-.478-1.127-.764-1.96-.764-.98 0-1.715.286-2.156.908-.44.62-.685 1.433-.685 2.532v1.386c0 1.051.245 1.911.685 2.485.441.62 1.176.908 2.107.908.93 0 1.666-.24 2.155-.717.49-.478.735-1.147.735-2.007h4.507c0 2.007-.637 3.584-1.91 4.635-1.274 1.051-3.087 1.625-5.389 1.625-2.596 0-4.556-.622-5.879-1.912C53.686 21.381 53 19.47 53 16.937s.686-4.444 2.008-5.734c1.323-1.29 3.283-1.912 5.879-1.912 2.204 0 4.017.574 5.29 1.673zM84.4 11.25c1.421 1.29 2.156 3.202 2.156 5.687 0 2.485-.734 4.396-2.155 5.686-1.42 1.29-3.43 1.96-6.075 1.96-2.596 0-4.653-.67-6.025-1.96-1.47-1.242-2.156-3.153-2.156-5.686 0-2.485.686-4.396 2.107-5.686 1.42-1.29 3.43-1.96 6.025-1.96 2.646 0 4.703.67 6.124 1.96zm-8.474 2.533c-.539.622-.833 1.434-.833 2.485v1.386c0 1.051.294 1.863.833 2.485.539.62 1.323.908 2.4.908 1.03 0 1.862-.287 2.4-.908.54-.622.834-1.434.834-2.485v-1.386c0-1.051-.294-1.864-.833-2.485-.54-.62-1.372-.908-2.4-.908-1.03 0-1.862.287-2.401.908zM89.153 9.58h4.85v10.99h7.788v3.776H89.153V9.58zM116.39 23.007c-1.323 1.051-3.185 1.577-5.585 1.577s-4.262-.526-5.585-1.577c-1.322-1.051-1.959-2.58-1.959-4.635v-8.84h4.85v8.792c0 .812.245 1.481.686 2.007.44.478 1.126.765 1.959.765.882 0 1.519-.24 2.009-.765.44-.478.685-1.147.685-1.96V9.58h4.85v8.84c.049 2.007-.588 3.536-1.91 4.587zM134.662 24.346v-5.352c0-.67.049-1.338.098-2.055.049-.717.098-1.29.147-1.768.049-.478.098-.765.098-.908h-.098l-2.792 10.035h-3.821l-2.842-9.987h-.098c0 .143.049.43.098.908.049.478.147 1.05.196 1.72.049.717.098 1.386.098 2.055v5.352h-4.458V9.58h6.859l2.302 8.554h.098L132.8 9.58h6.614v14.766h-4.752zM154.6 10.01c.636.286 1.126.764 1.518 1.29.392.573.539 1.194.539 1.863 0 1.816-.833 2.963-2.547 3.44v.096c1.91.43 2.89 1.673 2.89 3.68 0 .764-.196 1.481-.588 2.055a4.127 4.127 0 01-1.616 1.385c-.686.335-1.421.478-2.205.478h-10.238V9.532h10.091c.833.048 1.519.19 2.156.478zm-7.299 5.304h3.331c.343 0 .587-.096.783-.335.196-.239.343-.478.343-.812v-.24c0-.334-.098-.572-.343-.811-.245-.24-.489-.335-.783-.335h-3.331v2.533zm0 5.59h3.723c.342 0 .587-.095.783-.334.196-.239.343-.478.343-.812v-.24c0-.334-.098-.62-.343-.812-.196-.238-.49-.334-.783-.334h-3.723v2.532z" fill="#fff"/>
</svg>
