<svg width="17" height="23" viewBox="0 0 17 23" fill="none" xmlns="http://www.w3.org/2000/svg">
<path d="M16.6383 1.75V21.25C16.6383 22.215 15.8532 23 14.8883 23H2.11328C1.14833 23 0.363281 22.215 0.363281 21.25V6.09241C0.363281 5.62494 0.545325 5.18547 0.8759 4.85494L3.93705 1.79375L3.25761 1.11431C3.12089 0.97755 2.89947 0.977506 2.76266 1.11431L1.23701 2.64001C1.17086 2.70611 1.13446 2.79401 1.13446 2.8875C1.13446 3.08079 0.97775 3.2375 0.784463 3.2375C0.591175 3.2375 0.434462 3.08079 0.434462 2.8875C0.434462 2.60706 0.543663 2.34338 0.741981 2.14506L2.26768 0.619369C2.67805 0.209038 3.34222 0.208994 3.7526 0.619369L4.67953 1.54626C4.8162 1.68293 4.8162 1.90453 4.67953 2.04124L1.37084 5.34992C1.17248 5.54824 1.06328 5.81192 1.06328 6.09236V21.25C1.06328 21.829 1.53434 22.3 2.11328 22.3H14.8883C15.4672 22.3 15.9383 21.829 15.9383 21.25V1.75C15.9383 1.17101 15.4672 0.7 14.8883 0.7H6.45569C6.2624 0.7 6.10569 0.543288 6.10569 0.35C6.10569 0.156712 6.2624 0 6.45569 0H14.8883C15.8532 0 16.6383 0.78505 16.6383 1.75ZM14.0133 4.1125C14.2066 4.1125 14.3633 3.95579 14.3633 3.7625C14.3633 2.80573 13.6657 2.275 12.9633 2.275H7.97578C7.26892 2.275 6.57578 2.81041 6.57578 3.7625C6.57578 4.53447 7.20382 5.1625 7.97578 5.1625H12.9633C13.1566 5.1625 13.3133 5.00579 13.3133 4.8125C13.3133 4.61921 13.1566 4.4625 12.9633 4.4625H7.97578C7.58982 4.4625 7.27578 4.14851 7.27578 3.7625V3.675C7.27578 3.28899 7.58982 2.975 7.97578 2.975H12.9633C13.3492 2.975 13.6633 3.28899 13.6633 3.675V3.7625C13.6633 3.95579 13.82 4.1125 14.0133 4.1125Z" fill="white"/>
<path d="M4.88376 8.9974L5.7 9.81364V15.2987L4.88376 16.1149C4.74708 16.2516 4.74708 16.4732 4.88376 16.6099C5.02048 16.7466 5.24202 16.7466 5.37874 16.6099L6.19499 15.7937H10.805C11.6794 16.668 11.6756 16.7124 11.8688 16.7124C12.178 16.7124 12.3371 16.3358 12.1162 16.1149C11.2505 15.2491 11.2103 15.2087 11.1927 15.1919C11.0483 15.0524 11.2972 15.0937 6.4 15.0937V10.0187H10.6V13.4114C10.6 13.6047 10.7567 13.7614 10.95 13.7614C11.1433 13.7614 11.3 13.6047 11.3 13.4114V9.81364L12.1162 8.9974C12.2529 8.86072 12.2529 8.63908 12.1162 8.50241C11.9795 8.36573 11.758 8.36573 11.6213 8.50241L10.805 9.31865H6.19499L5.37874 8.50241C5.24202 8.36573 5.02048 8.36573 4.88376 8.50241C4.74708 8.63908 4.74708 8.86072 4.88376 8.9974Z" fill="#F0AE20"/>
</svg>
