<svg width="22" height="22" viewBox="0 0 22 22" fill="none" xmlns="http://www.w3.org/2000/svg">
<path d="M5.01596 5.23621C4.88396 5.10421 4.68596 5.10421 4.55396 5.23621C4.42196 5.36821 4.42196 5.56621 4.55396 5.69821L6.20396 7.34821C6.26996 7.41421 6.35796 7.43621 6.44596 7.43621C6.53396 7.43621 6.62196 7.41421 6.68796 7.34821C6.81996 7.21621 6.81996 7.01821 6.68796 6.88621L5.01596 5.23621Z" fill="white"/>
<path d="M17.4462 17.666L15.7962 16.016C15.6642 15.884 15.4662 15.884 15.3342 16.016C15.2022 16.148 15.2022 16.346 15.3342 16.478L16.9842 18.128C17.0502 18.194 17.1382 18.216 17.2262 18.216C17.3142 18.216 17.4022 18.194 17.4682 18.128C17.5782 18.018 17.5782 17.798 17.4462 17.666Z" fill="white"/>
<path d="M6.20396 16.0161L4.55396 17.6661C4.42196 17.7981 4.42196 17.9961 4.55396 18.1281C4.61996 18.1941 4.70796 18.2161 4.79596 18.2161C4.88396 18.2161 4.97196 18.1941 5.03796 18.1281L6.68796 16.4781C6.81996 16.3461 6.81996 16.1481 6.68796 16.0161C6.53396 15.9061 6.33596 15.9061 6.20396 16.0161Z" fill="white"/>
<path d="M4.86166 11.682C4.86166 11.5061 4.70766 11.3521 4.53166 11.3521H2.22166C2.04566 11.3521 1.89166 11.5061 1.89166 11.682C1.89166 11.858 2.04566 12.012 2.22166 12.012H4.55366C4.72966 12.012 4.86166 11.88 4.86166 11.682Z" fill="white"/>
<path d="M17.1381 11.682C17.1381 11.858 17.2921 12.012 17.4681 12.012H19.8001C19.9761 12.012 20.1301 11.858 20.1301 11.682C20.1301 11.5061 19.9761 11.3521 19.8001 11.3521H17.4681C17.2701 11.3521 17.1381 11.5061 17.1381 11.682Z" fill="white"/>
<path d="M15.7962 7.34821L17.4462 5.69821C17.5782 5.56621 17.5782 5.36821 17.4462 5.23621C17.3142 5.10421 17.1162 5.10421 16.9842 5.23621L15.3342 6.88621C15.2022 7.01821 15.2022 7.21621 15.3342 7.34821C15.4002 7.41421 15.4882 7.43621 15.5762 7.43621C15.6642 7.43621 15.7302 7.41421 15.7962 7.34821Z" fill="white"/>
<path d="M10.9999 1.45215C5.3679 1.45215 0.769897 6.05015 0.769897 11.6821C0.769897 14.4981 1.8919 17.1381 3.9379 19.0961C4.0039 19.1621 4.0919 19.1841 4.1579 19.1841C4.2459 19.1841 4.3339 19.1401 4.3999 19.0741C4.5319 18.9421 4.5099 18.7441 4.3779 18.6121C2.4859 16.7861 1.4299 14.3441 1.4299 11.6821C1.4299 6.42415 5.7199 2.11215 10.9999 2.11215C16.2799 2.11215 20.5699 6.40215 20.5699 11.6821C20.5699 14.3221 19.5139 16.7861 17.5999 18.6121C17.4679 18.7441 17.4679 18.9421 17.5779 19.0741C17.7099 19.2061 17.9079 19.2061 18.0399 19.0961C20.0859 17.1381 21.2079 14.5201 21.2079 11.6821C21.2299 6.05015 16.6319 1.45215 10.9999 1.45215Z" fill="white"/>
<path d="M11.3297 5.23622V2.90422C11.3297 2.72822 11.1757 2.57422 10.9997 2.57422C10.8237 2.57422 10.6697 2.72822 10.6697 2.90422V5.23622C10.6697 5.41222 10.8237 5.56622 10.9997 5.56622C11.1757 5.56622 11.3297 5.41222 11.3297 5.23622Z" fill="white"/>
<path d="M13.5075 17.8423H8.4915C8.3155 17.8423 8.1615 17.9963 8.1615 18.1723V20.1963C8.1615 20.3723 8.3155 20.5263 8.4915 20.5263H13.5295C13.7055 20.5263 13.8595 20.3723 13.8595 20.1963V18.1723C13.8375 17.9963 13.7055 17.8423 13.5075 17.8423ZM13.1775 19.8883H8.8215V18.5243H13.1995V19.8883H13.1775Z" fill="#F0AE20"/>
<path d="M9.45984 11.6821C9.45984 12.5181 10.1418 13.2221 10.9998 13.2221C11.8578 13.2221 12.5398 12.5401 12.5398 11.6821C12.5398 11.5501 12.5178 11.4401 12.4958 11.3301L18.1498 8.58013C18.3038 8.49213 18.3918 8.29413 18.3038 8.14013C18.2158 7.98613 18.0178 7.89813 17.8638 7.98613L12.1878 10.7361C11.9018 10.3841 11.4838 10.1641 10.9998 10.1641C10.1638 10.1641 9.45984 10.8461 9.45984 11.6821ZM10.9998 10.8241C11.4838 10.8241 11.8798 11.2201 11.8798 11.7041C11.8798 12.1881 11.4838 12.5841 10.9998 12.5841C10.5158 12.5841 10.1198 12.1881 10.1198 11.7041C10.1198 11.2201 10.5158 10.8241 10.9998 10.8241Z" fill="#F0AE20"/>
</svg>
