<svg width="18" height="18" viewBox="0 0 18 18" fill="none" xmlns="http://www.w3.org/2000/svg">
<path d="M0.00435066 8.2204C0.0039463 8.00435 0.178812 7.8289 0.394863 7.82849C0.49902 7.82831 0.598959 7.86968 0.672529 7.94343L9.00193 16.2736L17.3313 7.94343C17.4867 7.79332 17.7343 7.79765 17.8845 7.95304C18.0309 8.10465 18.0309 8.34498 17.8845 8.49656L9.27809 17.1029C9.12534 17.2556 8.87771 17.2556 8.72492 17.1029L0.118591 8.4966C0.0454254 8.42328 0.00435066 8.32397 0.00435066 8.2204Z" fill="white"/>
<path d="M0.00439262 3.1789C0.00398827 2.96284 0.178854 2.78739 0.394905 2.78699C0.499062 2.7868 0.599001 2.82817 0.672571 2.90193L9.00197 11.2321L17.3313 2.90193C17.4843 2.74896 17.7323 2.74896 17.8853 2.90193C18.0382 3.0549 18.0382 3.30289 17.8853 3.45586L9.2789 12.0622C9.12615 12.2149 8.87852 12.2149 8.72574 12.0622L0.119404 3.45586C0.0457973 3.38248 0.00439262 3.28283 0.00439262 3.1789Z" fill="white"/>
</svg>
