<svg width="90" height="70" viewBox="0 0 90 70" fill="none" xmlns="http://www.w3.org/2000/svg">
<path d="M76.8164 69.2773H13.1836C5.91451 69.2773 0 63.3628 0 56.0938V13.9062C0 6.63717 5.91451 0.722656 13.1836 0.722656H76.8164C84.0855 0.722656 90 6.63717 90 13.9062V56.0938C90 63.3628 84.0855 69.2773 76.8164 69.2773Z" fill="#F0AE20"/>
<path d="M45 69.2773H76.8164C84.0855 69.2773 90 63.3628 90 56.0938V13.9062C90 6.63717 84.0855 0.722656 76.8164 0.722656H45V69.2773Z" fill="#E29E0B"/>
<path d="M37.0898 50.8203C36.6495 50.8203 36.2092 50.7096 35.8126 50.4907C34.9733 50.0247 34.4531 49.1414 34.4531 48.1836V21.8164C34.4531 20.8586 34.9733 19.9753 35.8126 19.5093C36.6418 19.0457 37.6743 19.0689 38.488 19.5814L59.5818 32.7649C60.3517 33.2464 60.8203 34.091 60.8203 35C60.8203 35.909 60.3517 36.7536 59.5818 37.2351L38.488 50.4187C38.0605 50.6864 37.5766 50.8203 37.0898 50.8203Z" fill="#FFF5F5"/>
<path d="M45 46.3486L59.5818 37.235C60.3517 36.7536 60.8203 35.9089 60.8203 35C60.8203 34.091 60.3517 33.2464 59.5818 32.7649L45 23.6514V46.3486Z" fill="#E3E7EA"/>
</svg>
