<svg width="25" height="25" viewBox="0 0 25 25" fill="none" xmlns="http://www.w3.org/2000/svg">
<path d="M24.4791 11.9792C24.7708 11.9792 25 12.2084 25 12.5001C25 12.7917 24.7708 13.0209 24.4791 13.0209H23.9583V11.9792H24.4791Z" fill="#474747"/>
<path d="M13.0209 11.9792H23.9584V13.0209H13.0209V11.9792Z" fill="#474747"/>
<path d="M22.3958 25H12.5C12.7917 25 13.0208 24.7708 13.0208 24.4792V23.9583H22.3958C23.2604 23.9583 23.9583 23.2604 23.9583 22.3958V13.0208H24.4792C24.7708 13.0208 25 12.7917 25 12.5V22.3958C25 23.8333 23.8333 25 22.3958 25Z" fill="#474747"/>
<path d="M25 2.60417V12.5C25 12.2083 24.7708 11.9792 24.4792 11.9792H23.9583V2.60417C23.9583 1.73958 23.2604 1.04167 22.3958 1.04167H13.0208V0.520833C13.0208 0.229167 12.7917 0 12.5 0H22.3958C23.8333 0 25 1.16667 25 2.60417Z" fill="#474747"/>
<path d="M20.8334 6.25C21.125 6.25 21.3542 6.47917 21.3542 6.77083C21.3542 7.0625 21.125 7.29167 20.8334 7.29167H16.6667C16.375 7.29167 16.1459 7.0625 16.1459 6.77083C16.1459 6.47917 16.375 6.25 16.6667 6.25H20.8334Z" fill="#474747"/>
<path d="M20.8334 16.6667C21.125 16.6667 21.3542 16.8959 21.3542 17.1876C21.3542 17.4792 21.125 17.7084 20.8334 17.7084H16.6667C16.375 17.7084 16.1459 17.4792 16.1459 17.1876C16.1459 16.8959 16.375 16.6667 16.6667 16.6667H20.8334Z" fill="#F0AE20"/>
<path d="M20.8334 19.7917C21.125 19.7917 21.3542 20.0209 21.3542 20.3126C21.3542 20.6042 21.125 20.8334 20.8334 20.8334H16.6667C16.375 20.8334 16.1459 20.6042 16.1459 20.3126C16.1459 20.0209 16.375 19.7917 16.6667 19.7917H20.8334Z" fill="#F0AE20"/>
<path d="M13.0209 23.9583V24.4791C13.0209 24.7708 12.7917 24.9999 12.5 24.9999C12.2084 24.9999 11.9792 24.7708 11.9792 24.4791V23.9583H13.0209Z" fill="#474747"/>
<path d="M11.9792 13.0208H13.0209V23.9583H11.9792V13.0208Z" fill="#474747"/>
<path d="M11.9792 11.9792H13.0209V13.0209H11.9792V11.9792Z" fill="#474747"/>
<path d="M11.9792 1.04175H13.0209V11.9793H11.9792V1.04175Z" fill="#474747"/>
<path d="M13.0209 0.520833V1.04167H11.9792V0.520833C11.9792 0.229167 12.2084 0 12.5 0C12.7917 0 13.0209 0.229167 13.0209 0.520833Z" fill="#474747"/>
<path d="M1.04169 11.9792H11.9792V13.0209H1.04169V11.9792Z" fill="#474747"/>
<path d="M8.33337 6.25C8.62504 6.25 8.85421 6.47917 8.85421 6.77083C8.85421 7.0625 8.62504 7.29167 8.33337 7.29167H6.77087V6.25H8.33337Z" fill="#F0AE20"/>
<path d="M8.17708 19.9479C8.38542 20.1458 8.38542 20.4792 8.17708 20.6771C8.08333 20.7813 7.94792 20.8333 7.8125 20.8333C7.67708 20.8333 7.54167 20.7813 7.44792 20.6771L6.25 19.4792L6.97917 18.75L8.17708 19.9479Z" fill="#474747"/>
<path d="M7.44792 16.823C7.64583 16.6147 7.97917 16.6147 8.17708 16.823C8.38542 17.0209 8.38542 17.3542 8.17708 17.5522L6.97917 18.7501L6.25 18.0209L7.44792 16.823Z" fill="#474747"/>
<path d="M5.51782 18.749L6.24703 18.0198L6.97623 18.749L6.24703 19.4782L5.51782 18.749Z" fill="#474747"/>
<path d="M6.77085 7.29175V8.85425C6.77085 9.14591 6.54169 9.37508 6.25002 9.37508C5.95835 9.37508 5.72919 9.14591 5.72919 8.85425V7.29175H6.77085Z" fill="#F0AE20"/>
<path d="M5.72919 6.25H6.77085V7.29167H5.72919V6.25Z" fill="#F0AE20"/>
<path d="M6.77085 4.68758V6.25008H5.72919V4.68758C5.72919 4.39591 5.95835 4.16675 6.25002 4.16675C6.54169 4.16675 6.77085 4.39591 6.77085 4.68758Z" fill="#F0AE20"/>
<path d="M6.25002 18.0209L5.52085 18.7501L4.32294 17.5522C4.1146 17.3542 4.1146 17.0209 4.32294 16.823C4.52085 16.6147 4.85419 16.6147 5.0521 16.823L6.25002 18.0209Z" fill="#474747"/>
<path d="M5.72921 6.25V7.29167H4.16671C3.87504 7.29167 3.64587 7.0625 3.64587 6.77083C3.64587 6.47917 3.87504 6.25 4.16671 6.25H5.72921Z" fill="#F0AE20"/>
<path d="M5.0521 20.6771C4.95835 20.7813 4.82294 20.8333 4.68752 20.8333C4.5521 20.8333 4.41669 20.7813 4.32294 20.6771C4.1146 20.4792 4.1146 20.1458 4.32294 19.9479L5.52085 18.75L6.25002 19.4792L5.0521 20.6771Z" fill="#474747"/>
<path d="M1.04167 11.9792V13.0209H0.520833C0.229167 13.0209 0 12.7917 0 12.5001C0 12.2084 0.229167 11.9792 0.520833 11.9792H1.04167Z" fill="#474747"/>
<path d="M0 2.60417C0 1.16667 1.16667 0 2.60417 0H12.5C12.2083 0 11.9792 0.229167 11.9792 0.520833V1.04167H2.60417C1.73958 1.04167 1.04167 1.73958 1.04167 2.60417V11.9792H0.520833C0.229167 11.9792 0 12.2083 0 12.5V2.60417Z" fill="#474747"/>
<path d="M1.04167 22.3958C1.04167 23.2604 1.73958 23.9583 2.60417 23.9583H11.9792V24.4792C11.9792 24.7708 12.2083 25 12.5 25H2.60417C1.16667 25 0 23.8333 0 22.3958V12.5C0 12.7917 0.229167 13.0208 0.520833 13.0208H1.04167V22.3958Z" fill="#474747"/>
</svg>
