<svg width="20" height="20" viewBox="0 0 20 20" fill="none" xmlns="http://www.w3.org/2000/svg">
<path d="M18.4375 1.5625H16.5625V1.25C16.5625 1.00136 16.4637 0.762903 16.2879 0.587087C16.1121 0.411272 15.8736 0.3125 15.625 0.3125C15.3764 0.3125 15.1379 0.411272 14.9621 0.587087C14.7863 0.762903 14.6875 1.00136 14.6875 1.25V1.5625H14.0625V1.25C14.0625 1.00136 13.9637 0.762903 13.7879 0.587087C13.6121 0.411272 13.3736 0.3125 13.125 0.3125C12.8764 0.3125 12.6379 0.411272 12.4621 0.587087C12.2863 0.762903 12.1875 1.00136 12.1875 1.25V1.5625H7.8125V1.25C7.8125 1.00136 7.71373 0.762903 7.53791 0.587087C7.3621 0.411272 7.12364 0.3125 6.875 0.3125C6.62636 0.3125 6.3879 0.411272 6.21209 0.587087C6.03627 0.762903 5.9375 1.00136 5.9375 1.25V1.5625H5.3125V1.25C5.3125 1.00136 5.21373 0.762903 5.03791 0.587087C4.8621 0.411272 4.62364 0.3125 4.375 0.3125C4.12636 0.3125 3.8879 0.411272 3.71209 0.587087C3.53627 0.762903 3.4375 1.00136 3.4375 1.25V1.5625H1.5625C1.23098 1.5625 0.913037 1.6942 0.678617 1.92862C0.444196 2.16304 0.3125 2.48098 0.3125 2.8125V18.4375C0.3125 18.769 0.444196 19.087 0.678617 19.3214C0.913037 19.5558 1.23098 19.6875 1.5625 19.6875H18.4375C18.769 19.6875 19.087 19.5558 19.3214 19.3214C19.5558 19.087 19.6875 18.769 19.6875 18.4375V2.8125C19.6875 2.48098 19.5558 2.16304 19.3214 1.92862C19.087 1.6942 18.769 1.5625 18.4375 1.5625ZM15.3125 1.25C15.3125 1.16712 15.3454 1.08763 15.404 1.02903C15.4626 0.970424 15.5421 0.9375 15.625 0.9375C15.7079 0.9375 15.7874 0.970424 15.846 1.02903C15.9046 1.08763 15.9375 1.16712 15.9375 1.25V3.125C15.9375 3.20788 15.9046 3.28737 15.846 3.34597C15.7874 3.40458 15.7079 3.4375 15.625 3.4375C15.5421 3.4375 15.4626 3.40458 15.404 3.34597C15.3454 3.28737 15.3125 3.20788 15.3125 3.125V1.25ZM12.8125 1.25C12.8125 1.16712 12.8454 1.08763 12.904 1.02903C12.9626 0.970424 13.0421 0.9375 13.125 0.9375C13.2079 0.9375 13.2874 0.970424 13.346 1.02903C13.4046 1.08763 13.4375 1.16712 13.4375 1.25V3.125C13.4375 3.20788 13.4046 3.28737 13.346 3.34597C13.2874 3.40458 13.2079 3.4375 13.125 3.4375C13.0421 3.4375 12.9626 3.40458 12.904 3.34597C12.8454 3.28737 12.8125 3.20788 12.8125 3.125V1.25ZM6.5625 1.25C6.5625 1.16712 6.59542 1.08763 6.65403 1.02903C6.71263 0.970424 6.79212 0.9375 6.875 0.9375C6.95788 0.9375 7.03737 0.970424 7.09597 1.02903C7.15458 1.08763 7.1875 1.16712 7.1875 1.25V3.125C7.1875 3.20788 7.15458 3.28737 7.09597 3.34597C7.03737 3.40458 6.95788 3.4375 6.875 3.4375C6.79212 3.4375 6.71263 3.40458 6.65403 3.34597C6.59542 3.28737 6.5625 3.20788 6.5625 3.125V1.25ZM4.0625 1.25C4.0625 1.16712 4.09542 1.08763 4.15403 1.02903C4.21263 0.970424 4.29212 0.9375 4.375 0.9375C4.45788 0.9375 4.53737 0.970424 4.59597 1.02903C4.65458 1.08763 4.6875 1.16712 4.6875 1.25V3.125C4.6875 3.20788 4.65458 3.28737 4.59597 3.34597C4.53737 3.40458 4.45788 3.4375 4.375 3.4375C4.29212 3.4375 4.21263 3.40458 4.15403 3.34597C4.09542 3.28737 4.0625 3.20788 4.0625 3.125V1.25ZM1.5625 2.1875H3.4375V3.125C3.4375 3.37364 3.53627 3.6121 3.71209 3.78791C3.8879 3.96373 4.12636 4.0625 4.375 4.0625C4.62364 4.0625 4.8621 3.96373 5.03791 3.78791C5.21373 3.6121 5.3125 3.37364 5.3125 3.125V2.1875H5.9375V3.125C5.9375 3.37364 6.03627 3.6121 6.21209 3.78791C6.3879 3.96373 6.62636 4.0625 6.875 4.0625C7.12364 4.0625 7.3621 3.96373 7.53791 3.78791C7.71373 3.6121 7.8125 3.37364 7.8125 3.125V2.1875H12.1875V3.125C12.1875 3.37364 12.2863 3.6121 12.4621 3.78791C12.6379 3.96373 12.8764 4.0625 13.125 4.0625C13.3736 4.0625 13.6121 3.96373 13.7879 3.78791C13.9637 3.6121 14.0625 3.37364 14.0625 3.125V2.1875H14.6875V3.125C14.6875 3.37364 14.7863 3.6121 14.9621 3.78791C15.1379 3.96373 15.3764 4.0625 15.625 4.0625C15.8736 4.0625 16.1121 3.96373 16.2879 3.78791C16.4637 3.6121 16.5625 3.37364 16.5625 3.125V2.1875H18.4375C18.6033 2.1875 18.7622 2.25335 18.8794 2.37056C18.9967 2.48777 19.0625 2.64674 19.0625 2.8125V4.6875H0.9375V2.8125C0.9375 2.64674 1.00335 2.48777 1.12056 2.37056C1.23777 2.25335 1.39674 2.1875 1.5625 2.1875ZM18.4375 19.0625H1.5625C1.39674 19.0625 1.23777 18.9967 1.12056 18.8794C1.00335 18.7622 0.9375 18.6033 0.9375 18.4375V5.3125H19.0625V18.4375C19.0625 18.6033 18.9967 18.7622 18.8794 18.8794C18.7622 18.9967 18.6033 19.0625 18.4375 19.0625Z" fill="white"/>
<path d="M14.0258 13.2323C13.8434 13.2323 13.6652 13.1783 13.5136 13.077C13.3619 12.9757 13.2438 12.8318 13.174 12.6633C13.1042 12.4949 13.0859 12.3095 13.1215 12.1307C13.157 11.9519 13.2448 11.7876 13.3737 11.6587C13.5027 11.5297 13.6669 11.4419 13.8458 11.4064C14.0246 11.3708 14.21 11.3891 14.3784 11.4589C14.5469 11.5287 14.6908 11.6469 14.7921 11.7985C14.8934 11.9501 14.9474 12.1283 14.9474 12.3107C14.9471 12.555 14.8499 12.7893 14.6771 12.9621C14.5044 13.1348 14.2701 13.232 14.0258 13.2323ZM14.0258 11.7889C13.9226 11.7888 13.8216 11.8194 13.7358 11.8767C13.65 11.934 13.5831 12.0155 13.5435 12.1108C13.504 12.2062 13.4937 12.3111 13.5138 12.4123C13.5339 12.5136 13.5836 12.6066 13.6565 12.6796C13.7295 12.7526 13.8225 12.8023 13.9237 12.8224C14.0249 12.8426 14.1298 12.8323 14.2252 12.7928C14.3206 12.7533 14.4021 12.6864 14.4594 12.6006C14.5168 12.5148 14.5474 12.4139 14.5474 12.3107C14.5473 12.1724 14.4923 12.0397 14.3945 11.9419C14.2967 11.8441 14.1641 11.789 14.0258 11.7889Z" fill="#F0AE20"/>
<path d="M5.98094 13.2323C5.79862 13.2323 5.62039 13.1782 5.4688 13.0769C5.3172 12.9756 5.19906 12.8316 5.12929 12.6632C5.05953 12.4947 5.04129 12.3094 5.07687 12.1306C5.11245 11.9517 5.20027 11.7875 5.3292 11.6586C5.45814 11.5297 5.62241 11.4419 5.80123 11.4064C5.98006 11.3708 6.16541 11.3891 6.33384 11.4589C6.50227 11.5287 6.64622 11.6469 6.74749 11.7985C6.84875 11.9501 6.90278 12.1283 6.90274 12.3107C6.90248 12.5551 6.80527 12.7893 6.63245 12.9621C6.45963 13.1349 6.22532 13.2321 5.98094 13.2323ZM5.98094 11.7889C5.87774 11.7889 5.77686 11.8195 5.69105 11.8768C5.60524 11.9341 5.53836 12.0156 5.49886 12.111C5.45937 12.2063 5.44904 12.3113 5.46917 12.4125C5.4893 12.5137 5.539 12.6067 5.61198 12.6796C5.68495 12.7526 5.77793 12.8023 5.87915 12.8224C5.98036 12.8426 6.08528 12.8322 6.18063 12.7928C6.27597 12.7533 6.35747 12.6864 6.4148 12.6006C6.47214 12.5148 6.50274 12.4139 6.50274 12.3107C6.50258 12.1723 6.44756 12.0397 6.34974 11.9419C6.25191 11.8441 6.11928 11.789 5.98094 11.7889Z" fill="#F0AE20"/>
<path d="M12.6661 14.3247H7.3985C7.36287 14.3247 7.3279 14.3151 7.2972 14.2971C7.2665 14.279 7.24118 14.253 7.22387 14.2219C7.20656 14.1908 7.19788 14.1556 7.19873 14.12C7.19957 14.0843 7.20992 14.0496 7.2287 14.0193L7.8153 13.0729C7.83326 13.044 7.8583 13.0202 7.88805 13.0037C7.9178 12.9871 7.95127 12.9785 7.9853 12.9785H12.0797C12.1137 12.9785 12.1472 12.9871 12.1769 13.0037C12.2067 13.0202 12.2317 13.044 12.2497 13.0729L12.8365 14.0193C12.8553 14.0496 12.8656 14.0844 12.8665 14.12C12.8673 14.1556 12.8586 14.1908 12.8413 14.222C12.8239 14.2531 12.7986 14.2791 12.7679 14.2971C12.7371 14.3152 12.7021 14.3247 12.6665 14.3247H12.6661ZM7.7579 13.9247H12.3067L11.9681 13.3785H8.0965L7.7579 13.9247Z" fill="#F0AE20"/>
<path d="M15.2157 15.2567H4.79151C4.58472 15.2565 4.38648 15.1742 4.24025 15.028C4.09403 14.8817 4.01177 14.6835 4.01151 14.4767V12.6837C4.01235 12.1366 4.23012 11.6121 4.61707 11.2253C5.00401 10.8384 5.52856 10.6208 6.07571 10.6201H13.9313C14.4785 10.6208 15.0031 10.8383 15.3901 11.2252C15.7772 11.612 15.995 12.1365 15.9959 12.6837V14.4765C15.9957 14.6834 15.9134 14.8817 15.7672 15.028C15.6209 15.1742 15.4226 15.2565 15.2157 15.2567ZM6.07571 11.0201C5.63443 11.0206 5.21136 11.1961 4.89932 11.5081C4.58729 11.8202 4.41178 12.2432 4.41131 12.6845V14.4773C4.41131 14.5781 4.45134 14.6748 4.5226 14.746C4.59387 14.8173 4.69052 14.8573 4.79131 14.8573H15.2157C15.3165 14.8573 15.4131 14.8173 15.4844 14.746C15.5557 14.6748 15.5957 14.5781 15.5957 14.4773V12.6837C15.595 12.2426 15.4193 11.8198 15.1073 11.5079C14.7953 11.1961 14.3724 11.0206 13.9313 11.0201H6.07571Z" fill="white"/>
<path d="M14.6867 16.2212H13.6045C13.4858 16.2211 13.372 16.1739 13.288 16.0899C13.2041 16.006 13.1568 15.8922 13.1567 15.7734V15.0564C13.1567 15.0034 13.1777 14.9525 13.2153 14.915C13.2528 14.8775 13.3036 14.8564 13.3567 14.8564H14.9345C14.9875 14.8564 15.0384 14.8775 15.0759 14.915C15.1134 14.9525 15.1345 15.0034 15.1345 15.0564V15.7734C15.1343 15.8922 15.0871 16.006 15.0031 16.0899C14.9192 16.1739 14.8054 16.2211 14.6867 16.2212ZM13.5567 15.2564V15.7734C13.5567 15.7861 13.5618 15.7982 13.5707 15.8072C13.5797 15.8161 13.5918 15.8212 13.6045 15.8212H14.6867C14.6993 15.8212 14.7115 15.8161 14.7204 15.8072C14.7294 15.7982 14.7344 15.7861 14.7345 15.7734V15.2564H13.5567Z" fill="white"/>
<path d="M6.40212 16.2212H5.31972C5.20099 16.2211 5.08715 16.1739 5.00319 16.09C4.91924 16.006 4.87202 15.8922 4.87192 15.7734V15.0564C4.87192 15.0034 4.89299 14.9525 4.9305 14.915C4.968 14.8775 5.01887 14.8564 5.07192 14.8564H6.64972C6.70276 14.8564 6.75363 14.8775 6.79114 14.915C6.82865 14.9525 6.84972 15.0034 6.84972 15.0564V15.7734C6.84961 15.8921 6.80243 16.0059 6.71851 16.0899C6.6346 16.1738 6.52081 16.2211 6.40212 16.2212ZM5.27212 15.2564V15.7734C5.27212 15.7861 5.27715 15.7983 5.28612 15.8072C5.29508 15.8162 5.30724 15.8212 5.31992 15.8212H6.40212C6.40839 15.8212 6.41459 15.82 6.42038 15.8176C6.42617 15.8152 6.43142 15.8117 6.43585 15.8072C6.44027 15.8028 6.44377 15.7975 6.44615 15.7917C6.44853 15.7859 6.44974 15.7797 6.44972 15.7734V15.2564H5.27212Z" fill="white"/>
<path d="M14.7273 11.198C14.6883 11.1981 14.6502 11.1868 14.6175 11.1655C14.5849 11.1442 14.5591 11.1138 14.5435 11.078L13.4959 8.66021C13.3975 8.51165 13.2638 8.38984 13.1067 8.30568C12.9496 8.22152 12.7741 8.17766 12.5959 8.17801H7.40994C7.23176 8.17775 7.05629 8.22165 6.89923 8.3058C6.74217 8.38995 6.60842 8.51172 6.50994 8.66021L5.46174 11.0772C5.45154 11.1017 5.43658 11.1238 5.41774 11.1425C5.39889 11.1611 5.37654 11.1758 5.35197 11.1857C5.3274 11.1956 5.3011 11.2005 5.27461 11.2002C5.24811 11.1999 5.22195 11.1943 5.19764 11.1837C5.17333 11.1732 5.15135 11.158 5.13299 11.1389C5.11462 11.1198 5.10024 11.0972 5.09066 11.0725C5.08109 11.0478 5.07652 11.0214 5.07722 10.9949C5.07792 10.9685 5.08387 10.9424 5.09474 10.9182L6.14874 8.48621C6.15322 8.47611 6.15843 8.46635 6.16434 8.45701C6.29838 8.24854 6.48273 8.07714 6.70041 7.95862C6.91809 7.8401 7.16209 7.77827 7.40994 7.77881H12.5953C12.8432 7.77827 13.0872 7.84013 13.3048 7.95869C13.5225 8.07724 13.7068 8.24869 13.8407 8.45721C13.8468 8.46642 13.852 8.47612 13.8563 8.48621L14.9107 10.9186C14.924 10.9491 14.9295 10.9823 14.9267 11.0154C14.9239 11.0485 14.9129 11.0804 14.8947 11.1082C14.8765 11.136 14.8517 11.1588 14.8225 11.1746C14.7933 11.1904 14.7606 11.1986 14.7273 11.1986V11.198Z" fill="white"/>
<path d="M15.1043 10.9723H14.5819C14.5289 10.9723 14.478 10.9512 14.4405 10.9137C14.403 10.8762 14.3819 10.8253 14.3819 10.7723C14.3819 10.7192 14.403 10.6684 14.4405 10.6308C14.478 10.5933 14.5289 10.5723 14.5819 10.5723H15.1043C15.1574 10.5723 15.2082 10.5933 15.2457 10.6308C15.2833 10.6684 15.3043 10.7192 15.3043 10.7723C15.3043 10.8253 15.2833 10.8762 15.2457 10.9137C15.2082 10.9512 15.1574 10.9723 15.1043 10.9723Z" fill="white"/>
<path d="M16.3341 10.972H15.1045C15.0514 10.972 15.0006 10.9509 14.9631 10.9134C14.9256 10.8759 14.9045 10.825 14.9045 10.772V9.88799C14.9045 9.83495 14.9256 9.78407 14.9631 9.74657C15.0006 9.70906 15.0514 9.68799 15.1045 9.68799H16.0801C16.2237 9.68815 16.3613 9.74526 16.4629 9.84679C16.5644 9.94833 16.6215 10.086 16.6217 10.2296V10.6848C16.6216 10.761 16.5912 10.834 16.5373 10.8879C16.4834 10.9417 16.4103 10.972 16.3341 10.972ZM15.3045 10.572H16.2215V10.2296C16.2214 10.1921 16.2065 10.1561 16.1799 10.1295C16.1534 10.103 16.1174 10.088 16.0799 10.088H15.3045V10.572Z" fill="white"/>
<path d="M5.41857 10.9723H4.89617C4.84312 10.9723 4.79225 10.9512 4.75475 10.9137C4.71724 10.8762 4.69617 10.8253 4.69617 10.7723C4.69617 10.7192 4.71724 10.6684 4.75475 10.6308C4.79225 10.5933 4.84312 10.5723 4.89617 10.5723H5.41857C5.47161 10.5723 5.52248 10.5933 5.55999 10.6308C5.5975 10.6684 5.61857 10.7192 5.61857 10.7723C5.61857 10.8253 5.5975 10.8762 5.55999 10.9137C5.52248 10.9512 5.47161 10.9723 5.41857 10.9723Z" fill="white"/>
<path d="M4.8952 10.972H3.6656C3.58943 10.9719 3.51639 10.9417 3.46251 10.8878C3.40863 10.834 3.37831 10.761 3.3782 10.6848V10.2296C3.37836 10.086 3.43545 9.94839 3.53694 9.84687C3.63843 9.74534 3.77605 9.6882 3.9196 9.68799H4.895C4.94805 9.68799 4.99892 9.70906 5.03643 9.74657C5.07393 9.78407 5.095 9.83495 5.095 9.88799V10.772C5.095 10.825 5.07396 10.8758 5.0365 10.9133C4.99903 10.9508 4.94821 10.9719 4.8952 10.972ZM3.7782 10.572H4.6952V10.088H3.9196C3.88207 10.088 3.84608 10.103 3.81954 10.1295C3.79299 10.1561 3.77806 10.1921 3.778 10.2296L3.7782 10.572Z" fill="white"/>
</svg>
