<svg width="40" height="40" viewBox="0 0 40 40" fill="none" xmlns="http://www.w3.org/2000/svg">
<path d="M30.0631 23.0809C29.6072 23.081 29.1616 22.9459 28.7826 22.6928C28.4035 22.4396 28.1081 22.0797 27.9336 21.6586C27.7591 21.2374 27.7134 20.774 27.8023 20.327C27.8912 19.8799 28.1107 19.4692 28.433 19.1469C28.7554 18.8246 29.166 18.6051 29.6131 18.5162C30.0602 18.4273 30.5236 18.473 30.9447 18.6474C31.3658 18.8219 31.7257 19.1174 31.9789 19.4964C32.2321 19.8755 32.3672 20.3211 32.3671 20.7769C32.3664 21.3878 32.1235 21.9734 31.6915 22.4054C31.2596 22.8373 30.6739 23.0803 30.0631 23.0809ZM30.0631 19.4724C29.805 19.4723 29.5528 19.5487 29.3382 19.692C29.1236 19.8353 28.9563 20.039 28.8575 20.2774C28.7587 20.5157 28.7328 20.778 28.7831 21.0311C28.8333 21.2842 28.9575 21.5167 29.14 21.6992C29.3224 21.8817 29.5548 22.006 29.8079 22.0563C30.0609 22.1067 30.3233 22.0809 30.5617 21.9822C30.8001 21.8835 31.0038 21.7163 31.1472 21.5017C31.2905 21.2872 31.3671 21.035 31.3671 20.7769C31.3668 20.4311 31.2293 20.0995 30.9849 19.855C30.7404 19.6104 30.4089 19.4728 30.0631 19.4724Z" fill="#F0AE20"/>
<path d="M9.95355 23.0809C9.49774 23.0809 9.05217 22.9458 8.67319 22.6925C8.2942 22.4393 7.99883 22.0793 7.82442 21.6582C7.65001 21.2371 7.60441 20.7737 7.69337 20.3267C7.78233 19.8796 8.00186 19.469 8.3242 19.1467C8.64654 18.8244 9.05721 18.605 9.50427 18.5161C9.95133 18.4273 10.4147 18.473 10.8358 18.6475C11.2569 18.822 11.6168 19.1174 11.8699 19.4965C12.1231 19.8755 12.2581 20.3211 12.258 20.7769C12.2574 21.3879 12.0144 21.9736 11.5823 22.4055C11.1503 22.8375 10.5645 23.0804 9.95355 23.0809ZM9.95355 19.4724C9.69554 19.4724 9.44333 19.5489 9.22881 19.6923C9.01428 19.8356 8.84708 20.0393 8.74835 20.2777C8.64961 20.5161 8.62378 20.7784 8.67411 21.0314C8.72445 21.2845 8.84869 21.5169 9.03113 21.6993C9.21357 21.8818 9.44601 22.006 9.69905 22.0564C9.9521 22.1067 10.2144 22.0809 10.4528 21.9821C10.6911 21.8834 10.8949 21.7162 11.0382 21.5017C11.1815 21.2871 11.2581 21.0349 11.2581 20.7769C11.2577 20.4311 11.1201 20.0995 10.8755 19.8549C10.631 19.6104 10.2994 19.4728 9.95355 19.4724Z" fill="#F0AE20"/>
<path d="M26.666 25.8123H13.497C13.4079 25.8122 13.3205 25.7883 13.2438 25.7432C13.167 25.698 13.1037 25.6331 13.0604 25.5553C13.0172 25.4774 12.9955 25.3894 12.9976 25.3004C12.9997 25.2113 13.0256 25.1245 13.0725 25.0488L14.539 22.6828C14.5839 22.6105 14.6465 22.5509 14.7209 22.5096C14.7953 22.4684 14.8789 22.4467 14.964 22.4468H25.2C25.2851 22.4467 25.3687 22.4684 25.4431 22.5096C25.5175 22.5509 25.5801 22.6105 25.625 22.6828L27.092 25.0488C27.139 25.1245 27.1648 25.2114 27.1669 25.3005C27.169 25.3896 27.1473 25.4776 27.1039 25.5555C27.0606 25.6333 26.9972 25.6982 26.9204 25.7433C26.8436 25.7885 26.7561 25.8123 26.667 25.8123H26.666ZM14.3955 24.8123H25.7675L24.921 23.4468H15.242L14.3955 24.8123Z" fill="#F0AE20"/>
<path d="M33.0384 28.1415H6.97789C6.46092 28.1409 5.96532 27.9352 5.59977 27.5697C5.23421 27.2041 5.02855 26.7085 5.02789 26.1915V21.709C5.03001 20.3412 5.57443 19.03 6.5418 18.0629C7.50916 17.0958 8.82053 16.5518 10.1884 16.55H29.8274C31.1954 16.5516 32.5069 17.0956 33.4745 18.0627C34.442 19.0298 34.9866 20.3411 34.9889 21.709V26.191C34.9884 26.7082 34.7827 27.204 34.417 27.5697C34.0513 27.9353 33.5555 28.141 33.0384 28.1415ZM10.1884 17.55C9.08519 17.5512 8.02752 17.99 7.24744 18.7701C6.46736 19.5502 6.02858 20.6078 6.02739 21.711V26.193C6.02739 26.445 6.12748 26.6866 6.30564 26.8648C6.4838 27.043 6.72544 27.143 6.97739 27.143H33.0384C33.2903 27.143 33.532 27.043 33.7101 26.8648C33.8883 26.6866 33.9884 26.445 33.9884 26.193V21.709C33.9865 20.6062 33.5475 19.5491 32.7675 18.7695C31.9875 17.9899 30.9302 17.5514 29.8274 17.55H10.1884Z" fill="#474747"/>
<path d="M31.7156 31.3081H29.0101C28.7133 31.3077 28.4288 31.1896 28.219 30.9797C28.0091 30.7699 27.891 30.4854 27.8906 30.1886V27.6414C27.8906 27.5087 27.9433 27.3816 28.0371 27.2878C28.1308 27.194 28.258 27.1414 28.3906 27.1414H32.3351C32.4677 27.1414 32.5949 27.194 32.6887 27.2878C32.7824 27.3816 32.8351 27.5087 32.8351 27.6414V30.1886C32.8347 30.4854 32.7166 30.7699 32.5068 30.9797C32.2969 31.1896 32.0124 31.3077 31.7156 31.3081ZM28.8906 28.1414V30.1886C28.8908 30.2202 28.9034 30.2505 28.9258 30.2729C28.9482 30.2953 28.9785 30.3079 29.0101 30.3081H31.7156C31.7473 30.3079 31.7776 30.2953 31.8 30.2729C31.8224 30.2505 31.835 30.2202 31.8351 30.1886V28.1414H28.8906Z" fill="#474747"/>
<path d="M11.0057 31.3081H8.29968C8.00285 31.3078 7.71825 31.1898 7.50836 30.9799C7.29847 30.77 7.18044 30.4854 7.18018 30.1886V27.6414C7.18018 27.5087 7.23285 27.3816 7.32662 27.2878C7.42039 27.194 7.54757 27.1414 7.68018 27.1414H11.6247C11.7573 27.1414 11.8845 27.194 11.9782 27.2878C12.072 27.3816 12.1247 27.5087 12.1247 27.6414V30.1886C12.1244 30.4853 12.0064 30.7698 11.7967 30.9797C11.5869 31.1896 11.3024 31.3077 11.0057 31.3081ZM8.18068 28.1414V30.1886C8.18068 30.2203 8.19327 30.2507 8.21568 30.2731C8.23809 30.2955 8.26848 30.3081 8.30018 30.3081H11.0057C11.0213 30.3081 11.0369 30.305 11.0513 30.299C11.0658 30.293 11.0789 30.2841 11.09 30.273C11.1011 30.2619 11.1098 30.2488 11.1158 30.2343C11.1217 30.2198 11.1247 30.2042 11.1247 30.1886V28.1414H8.18068Z" fill="#474747"/>
<path d="M31.8199 17.9944C31.7224 17.9946 31.627 17.9663 31.5454 17.913C31.4637 17.8597 31.3994 17.7837 31.3604 17.6944L28.7414 10.8952C28.4954 10.5238 28.1611 10.2192 27.7684 10.0088C27.3757 9.79844 26.9369 9.68877 26.4914 9.68966H13.5264C13.081 9.68899 12.6423 9.79876 12.2497 10.0091C11.857 10.2195 11.5226 10.5239 11.2764 10.8952L8.65593 17.6924C8.63043 17.7535 8.59304 17.809 8.54593 17.8555C8.49882 17.9021 8.44293 17.9388 8.3815 17.9636C8.32007 17.9884 8.25434 18.0007 8.1881 17.9999C8.12187 17.999 8.05647 17.985 7.99569 17.9587C7.93491 17.9324 7.87997 17.8942 7.83406 17.8465C7.78815 17.7987 7.75218 17.7423 7.72824 17.6806C7.70431 17.6188 7.69288 17.5529 7.69463 17.4867C7.69638 17.4205 7.71127 17.3553 7.73843 17.2949L10.3734 10.4602C10.3846 10.4349 10.3977 10.4105 10.4124 10.3872C10.7475 9.86597 11.2084 9.43749 11.7526 9.14119C12.2968 8.84489 12.9068 8.6903 13.5264 8.69166H26.4899C27.1095 8.6903 27.7195 8.84495 28.2637 9.14134C28.8078 9.43774 29.2685 9.86635 29.6034 10.3877C29.6185 10.4107 29.6315 10.4349 29.6424 10.4602L32.2784 17.2959C32.3117 17.372 32.3254 17.4552 32.3184 17.5379C32.3114 17.6207 32.2839 17.7004 32.2384 17.7698C32.1929 17.8393 32.1309 17.8963 32.0578 17.9358C31.9847 17.9753 31.903 17.9959 31.8199 17.9959V17.9944Z" fill="#474747"/>
<path d="M32.7613 17.4304H31.4553C31.3227 17.4304 31.1955 17.3777 31.1017 17.284C31.0079 17.1902 30.9553 17.063 30.9553 16.9304C30.9553 16.7978 31.0079 16.6706 31.1017 16.5769C31.1955 16.4831 31.3227 16.4304 31.4553 16.4304H32.7613C32.8939 16.4304 33.021 16.4831 33.1148 16.5769C33.2086 16.6706 33.2613 16.7978 33.2613 16.9304C33.2613 17.063 33.2086 17.1902 33.1148 17.284C33.021 17.3777 32.8939 17.4304 32.7613 17.4304Z" fill="#474747"/>
<path d="M35.8347 17.43H32.7607C32.6281 17.43 32.5009 17.3773 32.4071 17.2835C32.3134 17.1898 32.2607 17.0626 32.2607 16.93V14.72C32.2607 14.5874 32.3134 14.4602 32.4071 14.3664C32.5009 14.2726 32.6281 14.22 32.7607 14.22H35.1997C35.5587 14.2204 35.9028 14.3631 36.1567 14.617C36.4105 14.8708 36.5533 15.215 36.5537 15.574V16.712C36.5534 16.9025 36.4775 17.0851 36.3427 17.2197C36.2079 17.3544 36.0252 17.43 35.8347 17.43ZM33.2607 16.43H35.5532V15.574C35.5531 15.4801 35.5157 15.3902 35.4494 15.3238C35.383 15.2574 35.293 15.2201 35.1992 15.22H33.2607V16.43Z" fill="#474747"/>
<path d="M8.54465 17.4304H7.23865C7.10604 17.4304 6.97886 17.3777 6.88509 17.284C6.79133 17.1902 6.73865 17.063 6.73865 16.9304C6.73865 16.7978 6.79133 16.6706 6.88509 16.5769C6.97886 16.4831 7.10604 16.4304 7.23865 16.4304H8.54465C8.67726 16.4304 8.80443 16.4831 8.8982 16.5769C8.99197 16.6706 9.04465 16.7978 9.04465 16.9304C9.04465 17.063 8.99197 17.1902 8.8982 17.284C8.80443 17.3777 8.67726 17.4304 8.54465 17.4304Z" fill="#474747"/>
<path d="M7.23903 17.43H4.16503C3.9746 17.4298 3.792 17.3542 3.6573 17.2196C3.5226 17.085 3.4468 16.9024 3.44653 16.712V15.574C3.44693 15.2151 3.58964 14.871 3.84337 14.6172C4.0971 14.3633 4.44114 14.2205 4.80003 14.22H7.23853C7.37114 14.22 7.49832 14.2726 7.59209 14.3664C7.68585 14.4602 7.73853 14.5874 7.73853 14.72V16.93C7.73853 17.0625 7.68592 17.1896 7.59226 17.2833C7.4986 17.3771 7.37155 17.4298 7.23903 17.43ZM4.44653 16.43H6.73903V15.22H4.80003C4.70619 15.2201 4.61622 15.2574 4.54986 15.3238C4.4835 15.3902 4.44617 15.4801 4.44603 15.574L4.44653 16.43Z" fill="#474747"/>
</svg>
