<svg width="34" height="34" viewBox="0 0 34 34" fill="none" xmlns="http://www.w3.org/2000/svg">
<path d="M23.736 17.5769H19.5112C19.3047 16.7832 18.6665 16.157 17.8575 15.9543V9.5114C17.8575 9.20441 17.6039 8.95557 17.2911 8.95557C16.9782 8.95557 16.7246 9.20441 16.7246 9.5114V15.9543C15.7343 16.2024 15 17.085 15 18.1328C15 19.3724 16.0277 20.3809 17.2911 20.3809C18.3589 20.3809 19.2584 19.6602 19.5112 18.6886H23.736C24.0488 18.6886 24.3024 18.4398 24.3024 18.1328C24.3024 17.8258 24.0488 17.5769 23.736 17.5769ZM17.2911 19.2692C16.6524 19.2692 16.1329 18.7594 16.1329 18.1327C16.1329 17.5061 16.6524 16.9962 17.2911 16.9962C17.9297 16.9962 18.4493 17.5061 18.4493 18.1327C18.4492 18.7594 17.9297 19.2692 17.2911 19.2692Z" fill="#F0AE20"/>
<circle cx="17" cy="17" r="16.5" stroke="#474747"/>
</svg>
