<svg width="26" height="26" viewBox="0 0 26 26" fill="none" xmlns="http://www.w3.org/2000/svg">
<path d="M13 0C5.81943 0 0 5.82045 0 13C0 20.1796 5.81943 26 13 26C20.1806 26 26 20.1796 26 13C26 5.82045 20.1806 0 13 0ZM13.5271 24.9326V22.8379C13.5271 22.5466 13.2909 22.3108 13 22.3108C12.7091 22.3108 12.4729 22.5465 12.4729 22.8379V24.9326C6.30424 24.6631 1.33687 19.6954 1.06742 13.5271H3.16215C3.45307 13.5271 3.68921 13.2909 3.68921 13C3.68921 12.7087 3.45307 12.4729 3.16215 12.4729H1.06742C1.33692 6.30464 6.30434 1.33687 12.4729 1.06742V3.16215C12.4729 3.45307 12.7091 3.68921 13 3.68921C13.2909 3.68921 13.5271 3.45307 13.5271 3.16215V1.06742C19.6958 1.33692 24.6632 6.30464 24.9326 12.473H22.8379C22.5469 12.473 22.3108 12.7087 22.3108 13.0001C22.3108 13.291 22.5469 13.5271 22.8379 13.5271H24.9326C24.6631 19.6954 19.6957 24.6631 13.5271 24.9326Z" fill="#474747"/>
<path d="M17.6719 8C17.5876 8 17.4883 8.01998 17.3774 8.06188L11.5169 10.2759C11.0213 10.4631 10.4629 11.022 10.2758 11.5173L8.06196 17.3778C7.91651 17.7624 8.03596 18.0003 8.32808 18.0003C8.41238 18.0003 8.51161 17.9803 8.62256 17.9384L14.483 15.7243C14.9786 15.5372 15.5371 14.9783 15.7242 14.483L17.938 8.62249C18.0834 8.23793 17.9643 8 17.6719 8ZM14.2278 15.0486L8.96265 17.0378L10.9518 11.7726C10.9759 11.7093 11.0149 11.6411 11.0609 11.572L11.7513 12.2627C11.6157 12.4828 11.536 12.7414 11.536 13.0193C11.536 13.8173 12.1828 14.4642 12.9811 14.4642C13.2588 14.4642 13.5175 14.3845 13.7375 14.2486L14.4284 14.9395C14.3595 14.9855 14.2911 15.0248 14.2278 15.0486ZM12.2584 13.0193C12.2584 12.621 12.5826 12.2968 12.9811 12.2968C13.3791 12.2968 13.7033 12.621 13.7033 13.0193C13.7033 13.4176 13.3791 13.7417 12.9811 13.7417C12.5826 13.7417 12.2584 13.4176 12.2584 13.0193ZM15.0485 14.2277C15.0243 14.291 14.9854 14.3594 14.9391 14.4285L14.2391 13.7282C14.3573 13.5187 14.4257 13.2771 14.4257 13.0193C14.4257 12.2212 13.7789 11.5744 12.981 11.5744C12.7231 11.5744 12.4813 11.6428 12.2716 11.761L11.5718 11.061C11.6409 11.0147 11.7091 10.9757 11.7726 10.9516L17.0375 8.96247L15.0485 14.2277Z" fill="#F0AE20"/>
</svg>
