<svg width="29" height="23" viewBox="0 0 29 23" fill="none" xmlns="http://www.w3.org/2000/svg">
<path d="M27.2941 0H1.70588C1.25361 0.000498398 0.820007 0.177005 0.500202 0.490796C0.180397 0.804587 0.00050795 1.23004 0 1.6738V17.5749C0.00050795 18.0187 0.180397 18.4441 0.500202 18.7579C0.820007 19.0717 1.25361 19.2482 1.70588 19.2487H11.3579L11.1252 21.7594H9.80882V22.5963H19.1912V21.7594H17.8748L17.6421 19.2487H27.2941C27.7464 19.2482 28.18 19.0717 28.4998 18.7579C28.8196 18.4441 28.9995 18.0187 29 17.5749V1.6738C28.9995 1.23004 28.8196 0.804587 28.4998 0.490796C28.18 0.177005 27.7464 0.000498398 27.2941 0ZM1.70588 0.836902H27.2941C27.5202 0.837165 27.737 0.925422 27.8969 1.08231C28.0568 1.23921 28.1468 1.45192 28.1471 1.6738V15.0642H0.852941V1.6738C0.853209 1.45192 0.943158 1.23921 1.10306 1.08231C1.26296 0.925422 1.47975 0.837165 1.70588 0.836902ZM17.0183 21.7594H11.9817L12.2143 19.2487H16.7857L17.0183 21.7594ZM27.2941 18.4118H1.70588C1.47975 18.4116 1.26296 18.3233 1.10306 18.1664C0.943158 18.0095 0.853209 17.7968 0.852941 17.5749V15.9011H28.1471V17.5749C28.1468 17.7968 28.0568 18.0095 27.8969 18.1664C27.737 18.3233 27.5202 18.4116 27.2941 18.4118Z" fill="#474747"/>
<path d="M14.0752 16.738H14.9281V17.5749H14.0752V16.738Z" fill="black"/>
<path d="M12.0847 10.8379L16.3059 6.69604L16.9089 7.28773L12.6877 11.4296L12.0847 10.8379Z" fill="#F0AE20"/>
<path d="M14.1966 11.1338L16.6087 8.76704L17.2117 9.35873L14.7996 11.7255L14.1966 11.1338Z" fill="#F0AE20"/>
<path d="M11.7853 8.7666L14.1974 6.39985L14.8004 6.99154L12.3883 9.35829L11.7853 8.7666Z" fill="#F0AE20"/>
</svg>
