<svg width="46" height="46" viewBox="0 0 46 46" fill="none" xmlns="http://www.w3.org/2000/svg">
<path d="M23 46C35.7025 46 46 35.7025 46 23C46 10.2975 35.7025 0 23 0C10.2975 0 0 10.2975 0 23C0 35.7025 10.2975 46 23 46Z" fill="#6AAF50"/>
<path d="M12.1912 9.18234L12.1904 9.1827C9.52757 10.572 8.41036 13.7847 9.63044 16.5292C11.3866 20.4801 13.7447 24.0939 16.5905 27.2586L18.7412 29.4094L33.0329 43.7011C36.6105 41.964 39.6691 39.3266 41.9163 36.0839L36.6428 30.8103C36.4395 30.5108 36.1784 30.2444 35.8628 30.0304L15.9695 10.1371C15.1344 8.9067 13.5094 8.49449 12.1912 9.18234Z" fill="#4D8538"/>
<path d="M31.4087 27.0084C30.6727 26.509 29.7058 26.5115 28.9725 27.0148L27.9167 27.7395C26.7406 28.5466 25.1766 28.5028 24.0462 27.6328C22.9809 26.8128 21.964 25.9336 20.9984 25.0019C20.0666 24.0363 19.1875 23.0195 18.3675 21.9541C17.4974 20.8237 17.4537 19.2597 18.2608 18.0836L18.9855 17.0277C19.4887 16.2944 19.4913 15.3275 18.9919 14.5915L15.9695 10.1375C15.1346 8.90721 13.5095 8.49501 12.1913 9.18277L12.1904 9.18312C9.52757 10.5725 8.41036 13.7851 9.63044 16.5296C11.3866 20.4805 13.7447 24.0943 16.5905 27.2591L18.7412 29.4098C21.9061 32.2555 25.5198 34.6137 29.4706 36.3698C32.2153 37.5899 35.4278 36.4727 36.8172 33.8098L36.8175 33.809C37.5053 32.4908 37.0932 30.8657 35.8627 30.0307L31.4087 27.0084Z" fill="white"/>
</svg>
