<svg width="30" height="30" viewBox="0 0 30 30" fill="none" xmlns="http://www.w3.org/2000/svg">
<g clip-path="url(#clip0_195_4592)">
<path fill-rule="evenodd" clip-rule="evenodd" d="M22.5 30H7.5C6.51505 30.0001 5.53974 29.8062 4.62974 29.4293C3.71975 29.0525 2.89291 28.5 2.19645 27.8035C1.49999 27.1071 0.947549 26.2802 0.570678 25.3703C0.193807 24.4603 -0.000110778 23.4849 4.7476e-08 22.5V7.5C-0.000110778 6.51505 0.193807 5.53974 0.570678 4.62974C0.947549 3.71975 1.49999 2.89291 2.19645 2.19645C2.89291 1.49999 3.71975 0.947549 4.62974 0.570678C5.53974 0.193807 6.51505 -0.000110778 7.5 4.7476e-08H22.5C23.4849 -0.000110778 24.4603 0.193807 25.3703 0.570678C26.2802 0.947549 27.1071 1.49999 27.8035 2.19645C28.5 2.89291 29.0525 3.71975 29.4293 4.62974C29.8062 5.53974 30.0001 6.51505 30 7.5V22.5C30.0001 23.4849 29.8062 24.4603 29.4293 25.3703C29.0525 26.2802 28.5 27.1071 27.8035 27.8035C27.1071 28.5 26.2802 29.0525 25.3703 29.4293C24.4603 29.8062 23.4849 30.0001 22.5 30" fill="#19C167"/>
<path fill-rule="evenodd" clip-rule="evenodd" d="M14.0625 8.4375H22.5C23.5815 8.43743 24.6217 8.02203 25.4058 7.27707C26.1899 6.53211 26.6579 5.51449 26.7132 4.43438C26.7686 3.35426 26.407 2.29414 25.7032 1.47294C24.9994 0.651736 24.0071 0.132179 22.9312 0.0215625C22.7859 0.0135938 22.6453 4.7476e-08 22.5 4.7476e-08H7.5C6.51505 -0.000110778 5.53974 0.193807 4.62974 0.570678C3.71975 0.947549 2.89291 1.49999 2.19645 2.19645C1.49999 2.89291 0.947549 3.71975 0.570678 4.62974C0.193807 5.53974 -0.000110778 6.51505 4.7476e-08 7.5V22.5C4.7476e-08 18.7704 1.48158 15.1935 4.11881 12.5563C6.75604 9.91908 10.3329 8.4375 14.0625 8.4375" fill="#21D273"/>
<path fill-rule="evenodd" clip-rule="evenodd" d="M22.4999 15C21.0166 15 19.5665 15.4399 18.3332 16.264C17.0998 17.0881 16.1385 18.2594 15.5708 19.6299C15.0032 21.0003 14.8546 22.5083 15.144 23.9632C15.4334 25.418 16.1477 26.7544 17.1966 27.8033C18.2455 28.8522 19.5819 29.5665 21.0368 29.8559C22.4916 30.1453 23.9996 29.9968 25.3701 29.4291C26.7405 28.8614 27.9118 27.9001 28.7359 26.6668C29.5601 25.4334 29.9999 23.9834 29.9999 22.5V7.5C30 8.48495 29.8061 9.46026 29.4293 10.3703C29.0524 11.2802 28.4999 12.1071 27.8035 12.8035C27.107 13.5 26.2802 14.0525 25.3702 14.4293C24.4602 14.8062 23.4849 15.0001 22.4999 15" fill="#08AC54"/>
<g clip-path="url(#clip1_195_4592)">
<path d="M22.5648 18.7424L20.332 16.5095C19.5345 15.7121 18.1789 16.0311 17.8599 17.0678C17.6207 17.7855 16.8232 18.1842 16.1055 18.0247C14.5106 17.626 12.3575 15.5526 11.9588 13.878C11.7196 13.1602 12.198 12.3628 12.9157 12.1236C13.9524 11.8046 14.2714 10.449 13.4739 9.65151L11.2411 7.41866C10.6031 6.86045 9.6462 6.86045 9.08799 7.41866L7.57284 8.93381C6.0577 10.5287 7.73233 14.7552 11.4803 18.5032C15.2283 22.2511 19.4548 24.0056 21.0497 22.4106L22.5648 20.8955C23.1231 20.2575 23.1231 19.3006 22.5648 18.7424Z" fill="white"/>
</g>
</g>
<defs>
<clipPath id="clip0_195_4592">
<rect width="30" height="30" fill="white"/>
</clipPath>
<clipPath id="clip1_195_4592">
<rect width="16" height="16" fill="white" transform="translate(7 7)"/>
</clipPath>
</defs>
</svg>
