<svg width="30" height="30" viewBox="0 0 30 30" fill="none" xmlns="http://www.w3.org/2000/svg">
<g clip-path="url(#clip0_195_4600)">
<path fill-rule="evenodd" clip-rule="evenodd" d="M22.5 30H7.5C5.5109 29.9999 3.6033 29.2097 2.1968 27.8032C0.790291 26.3967 8.70173e-05 24.4891 0 22.5L0 7.5C8.70173e-05 5.5109 0.790291 3.6033 2.1968 2.1968C3.6033 0.790291 5.5109 8.70173e-05 7.5 0L22.5 0C24.4891 0 26.3968 0.790176 27.8033 2.1967C29.2098 3.60322 30 5.51088 30 7.5V22.5C30 24.4891 29.2098 26.3968 27.8033 27.8033C26.3968 29.2098 24.4891 30 22.5 30Z" fill="#199BDF"/>
<path fill-rule="evenodd" clip-rule="evenodd" d="M14.0625 8.4375H22.5C23.5815 8.43743 24.6217 8.02203 25.4058 7.27707C26.1899 6.53211 26.6579 5.51449 26.7132 4.43438C26.7686 3.35426 26.407 2.29414 25.7032 1.47294C24.9994 0.651736 24.0071 0.132179 22.9312 0.0215625C22.7878 0.0135938 22.6458 0 22.5 0H7.5C5.5109 8.70173e-05 3.6033 0.790291 2.1968 2.1968C0.790291 3.6033 8.70173e-05 5.5109 0 7.5L0 22.5C8.70205e-05 18.7704 1.4817 15.1936 4.11891 12.5564C6.75612 9.9192 10.3329 8.43759 14.0625 8.4375Z" fill="#32B4FF"/>
<path fill-rule="evenodd" clip-rule="evenodd" d="M22.4999 15C21.0166 15 19.5665 15.4399 18.3332 16.264C17.0998 17.0881 16.1385 18.2594 15.5708 19.6299C15.0032 21.0003 14.8546 22.5083 15.144 23.9632C15.4334 25.418 16.1477 26.7544 17.1966 27.8033C18.2455 28.8522 19.5819 29.5665 21.0368 29.8559C22.4916 30.1453 23.9996 29.9968 25.3701 29.4291C26.7405 28.8614 27.9118 27.9001 28.7359 26.6668C29.5601 25.4334 29.9999 23.9834 29.9999 22.5V7.5C29.9999 9.48912 29.2098 11.3968 27.8032 12.8033C26.3967 14.2098 24.4891 15 22.4999 15Z" fill="#0082BE"/>
<path fill-rule="evenodd" clip-rule="evenodd" d="M21.1317 7.98375C21.3621 7.88861 21.6137 7.85644 21.8607 7.89053C22.1076 7.92463 22.3411 8.02376 22.5371 8.17777C22.7331 8.33179 22.8847 8.53515 22.9763 8.76702C23.0679 8.99889 23.0961 9.25094 23.0582 9.49734C22.512 13.05 21.5104 19.56 20.9788 23.0156C20.942 23.2547 20.8441 23.4803 20.6947 23.6706C20.5452 23.8608 20.3492 24.0093 20.1256 24.1016C19.9019 24.1939 19.6583 24.227 19.4181 24.1976C19.178 24.1683 18.9495 24.0774 18.7547 23.9339C16.874 22.5483 14.0543 20.4708 12.6227 19.4156C12.5122 19.3342 12.4209 19.2295 12.3553 19.109C12.2897 18.9884 12.2514 18.855 12.2431 18.718C12.2347 18.581 12.2565 18.4438 12.307 18.3162C12.3575 18.1886 12.4353 18.0736 12.5351 17.9794C13.8469 16.7405 16.4596 14.273 18.2572 12.5752C18.2996 12.5349 18.3253 12.4803 18.3295 12.422C18.3337 12.3638 18.316 12.3061 18.2798 12.2602C18.2437 12.2143 18.1917 12.1836 18.134 12.174C18.0764 12.1645 18.0173 12.1768 17.9683 12.2086C15.6634 13.7119 12.1334 16.0139 10.4034 17.1422C10.0791 17.3536 9.71474 17.4959 9.33299 17.56C8.95125 17.6241 8.56038 17.6088 8.18486 17.5148C7.23222 17.2767 5.85812 16.9331 4.63529 16.6275C4.44384 16.5797 4.27237 16.4726 4.1453 16.3217C4.01822 16.1707 3.94203 15.9835 3.92757 15.7867C3.91311 15.5899 3.96112 15.3935 4.06476 15.2256C4.1684 15.0576 4.32239 14.9267 4.50479 14.8514C8.76161 13.0931 17.0921 9.6525 21.1317 7.98375Z" fill="white"/>
</g>
<defs>
<clipPath id="clip0_195_4600">
<rect width="30" height="30" fill="white"/>
</clipPath>
</defs>
</svg>
