<svg width="30" height="30" viewBox="0 0 30 30" fill="none" xmlns="http://www.w3.org/2000/svg">
<g clip-path="url(#clip0_195_4583)">
<path fill-rule="evenodd" clip-rule="evenodd" d="M22.5 30H7.5C6.51505 30.0001 5.53973 29.8062 4.62974 29.4293C3.71975 29.0525 2.89291 28.5 2.19645 27.8035C1.49999 27.1071 0.947549 26.2802 0.570678 25.3703C0.193807 24.4603 -0.000110778 23.4849 4.7476e-08 22.5V7.5C-0.000110778 6.51505 0.193807 5.53973 0.570678 4.62974C0.947549 3.71975 1.49999 2.89291 2.19645 2.19645C2.89291 1.49999 3.71975 0.947549 4.62974 0.570678C5.53973 0.193807 6.51505 -0.000110778 7.5 4.7476e-08H22.5C23.4849 -0.000110778 24.4603 0.193807 25.3703 0.570678C26.2802 0.947549 27.1071 1.49999 27.8035 2.19645C28.5 2.89291 29.0525 3.71975 29.4293 4.62974C29.8062 5.53973 30.0001 6.51505 30 7.5V22.5C30.0001 23.4849 29.8062 24.4603 29.4293 25.3703C29.0525 26.2802 28.5 27.1071 27.8035 27.8035C27.1071 28.5 26.2802 29.0525 25.3703 29.4293C24.4603 29.8062 23.4849 30.0001 22.5 30Z" fill="#785AFA"/>
<path fill-rule="evenodd" clip-rule="evenodd" d="M14.0625 8.4375H22.5C23.5815 8.43743 24.6217 8.02203 25.4058 7.27707C26.1899 6.53211 26.6579 5.51449 26.7132 4.43438C26.7686 3.35426 26.407 2.29414 25.7032 1.47294C24.9994 0.651736 24.0071 0.132179 22.9312 0.0215625C22.7859 0.0135938 22.6453 4.7476e-08 22.5 4.7476e-08H7.5C6.51505 -0.000110778 5.53973 0.193807 4.62974 0.570678C3.71975 0.947549 2.89291 1.49999 2.19645 2.19645C1.49999 2.89291 0.947549 3.71975 0.570678 4.62974C0.193807 5.53973 -0.000110778 6.51505 4.7476e-08 7.5V22.5C4.7476e-08 18.7704 1.48158 15.1935 4.11881 12.5563C6.75604 9.91908 10.3329 8.4375 14.0625 8.4375Z" fill="#9678FF"/>
<path fill-rule="evenodd" clip-rule="evenodd" d="M22.4999 15C21.0166 15 19.5665 15.4399 18.3332 16.264C17.0998 17.0881 16.1385 18.2594 15.5708 19.6299C15.0032 21.0003 14.8546 22.5083 15.144 23.9632C15.4334 25.418 16.1477 26.7544 17.1966 27.8033C18.2455 28.8522 19.5819 29.5665 21.0368 29.8559C22.4916 30.1453 23.9996 29.9968 25.3701 29.4291C26.7405 28.8614 27.9118 27.9001 28.7359 26.6668C29.5601 25.4334 29.9999 23.9834 29.9999 22.5V7.5C30 8.48495 29.8061 9.46026 29.4293 10.3703C29.0524 11.2802 28.4999 12.1071 27.8035 12.8035C27.107 13.5 26.2802 14.0525 25.3702 14.4293C24.4602 14.8062 23.4849 15.0001 22.4999 15Z" fill="#5F41E1"/>
<path d="M23.438 16.5784C22.899 20.927 19.7161 21.2002 19.1302 21.3887C17.3372 21.8266 15.4871 21.9841 13.6458 21.8555C13.6458 21.8555 11.4708 24.0793 10.7958 24.7609C10.7576 24.8058 10.7091 24.841 10.6544 24.8633C10.5998 24.8857 10.5406 24.8946 10.4818 24.8893C10.3646 24.8607 10.3318 24.7224 10.3318 24.5199C10.3365 24.2312 10.3505 21.3371 10.3505 21.3371C6.10365 20.1582 6.35208 15.7252 6.39896 13.4035C6.44583 11.0818 6.88177 9.18055 8.18021 7.9018C10.5052 5.79383 15.3005 6.10883 15.3005 6.10883C19.3505 6.12617 21.2911 7.34539 21.7411 7.75414C23.2318 9.03289 23.9958 12.0934 23.438 16.5774V16.5784ZM22.8568 6.66945C22.3271 6.17914 20.1755 4.61914 15.3896 4.59805C15.3896 4.59805 9.74583 4.25726 6.99427 6.78148C5.46146 8.31336 4.9224 10.5549 4.86615 13.3341C4.8099 16.1134 4.35521 21.3221 9.37552 22.7345V24.8893C9.37552 25.4401 9.53958 26.2501 10.3318 26.2501C10.6552 26.2501 11.1146 26.1263 11.7568 25.4738L13.8896 23.4174C15.8372 23.5201 17.7895 23.3455 19.688 22.899C20.3818 22.674 24.3052 22.1715 24.9427 16.9637C25.599 11.5955 24.624 8.19992 22.8568 6.66945Z" fill="white"/>
<path fill-rule="evenodd" clip-rule="evenodd" d="M15.0008 8.4375C15.678 8.43733 16.3486 8.57058 16.9742 8.82965C17.5999 9.08871 18.1684 9.46851 18.6472 9.94735C19.1261 10.4262 19.5059 10.9947 19.7649 11.6203C20.024 12.246 20.1573 12.9166 20.1571 13.5938C20.156 13.7176 20.1073 13.8362 20.0211 13.9252C19.9555 13.9907 19.8719 14.0354 19.7809 14.0535C19.6899 14.0716 19.5955 14.0623 19.5098 14.0268C19.4241 13.9914 19.3507 13.9313 19.2991 13.8543C19.2474 13.7772 19.2198 13.6865 19.2196 13.5938C19.2187 12.4751 18.774 11.4026 17.983 10.6116C17.192 9.82057 16.1195 9.37583 15.0008 9.375H14.9586C14.8344 9.3748 14.7153 9.32535 14.6274 9.23749C14.5395 9.14962 14.4901 9.03051 14.4899 8.90625C14.4894 8.84475 14.5011 8.78375 14.5245 8.72685C14.5478 8.66994 14.5823 8.61826 14.6258 8.57484C14.6695 8.53116 14.7214 8.49654 14.7785 8.47297C14.8356 8.44941 14.8968 8.43735 14.9586 8.4375H15.0008Z" fill="white"/>
<path fill-rule="evenodd" clip-rule="evenodd" d="M15.0008 10.3125C15.4317 10.3124 15.8584 10.3973 16.2566 10.5622C16.6547 10.727 17.0164 10.9687 17.3211 11.2734C17.6258 11.5781 17.8675 11.9399 18.0324 12.338C18.1973 12.7361 18.2821 13.1628 18.2821 13.5937C18.2819 13.6865 18.2542 13.7772 18.2026 13.8543C18.1509 13.9313 18.0776 13.9914 17.9918 14.0268C17.9061 14.0623 17.8118 14.0716 17.7208 14.0535C17.6298 14.0354 17.5462 13.9907 17.4805 13.9252C17.3944 13.8362 17.3457 13.7176 17.3446 13.5937C17.3444 12.9722 17.0974 12.3761 16.6579 11.9366C16.2184 11.4971 15.6224 11.2501 15.0008 11.25H14.9586C14.8969 11.2502 14.8356 11.2381 14.7785 11.2145C14.7214 11.191 14.6695 11.1563 14.6258 11.1127C14.5823 11.0692 14.5478 11.0176 14.5245 10.9607C14.5011 10.9037 14.4894 10.8428 14.4899 10.7812C14.4901 10.657 14.5395 10.5379 14.6274 10.45C14.7153 10.3621 14.8344 10.3127 14.9586 10.3125H15.0008Z" fill="white"/>
<path d="M19.9556 18.2255C20.0425 18.0876 20.08 17.9243 20.0622 17.7623C20.0443 17.6003 19.972 17.4491 19.8571 17.3335C19.2834 16.8275 18.6617 16.3786 18.0009 15.9933C17.8372 15.8913 17.6429 15.85 17.4519 15.8765C17.2609 15.9031 17.0852 15.9958 16.9556 16.1386L16.5759 16.6116C16.0978 17.2022 14.6353 16.3168 13.9415 15.5916C13.215 14.8936 12.329 13.433 12.9196 12.954L13.3931 12.5785C13.5359 12.4484 13.6287 12.2723 13.6552 12.0809C13.6818 11.8896 13.6404 11.6949 13.5384 11.5308C13.1555 10.8685 12.7063 10.2467 12.1978 9.67506C12.0826 9.55996 11.9317 9.4874 11.7699 9.46926C11.6081 9.45112 11.4449 9.48848 11.3071 9.57521C10.9445 9.78883 10.6158 10.0555 10.3321 10.3665C10.1627 10.5259 10.0416 10.7298 9.98272 10.9549C9.92386 11.18 9.92961 11.4171 9.99933 11.6391C10.6514 13.4595 11.6764 15.1236 13.0087 16.5249C14.4106 17.8553 16.074 18.8795 17.8931 19.5324C18.1152 19.603 18.3527 19.6094 18.5782 19.551C18.8038 19.4925 19.0083 19.3715 19.1681 19.2019C19.465 18.9058 19.7291 18.5785 19.9556 18.2255Z" fill="white"/>
</g>
<defs>
<clipPath id="clip0_195_4583">
<rect width="30" height="30" fill="white"/>
</clipPath>
</defs>
</svg>
