<svg width="21" height="21" viewBox="0 0 21 21" fill="none" xmlns="http://www.w3.org/2000/svg">
<path d="M15.1901 14.1238L15.4477 15.1658L14.3852 14.9132C13.3334 15.7763 11.9703 16.292 10.4893 16.292V20.3021L11.8308 18.1129C15.3189 17.5445 18.045 14.7659 18.4957 11.3031H16.4995C16.3278 12.3556 15.8663 13.3239 15.1901 14.1238Z" fill="#DEAC35"/>
<path d="M5.55218 15.1552L5.82049 14.1132C4.94042 13.0818 4.41453 11.7451 4.41453 10.2926H0.314697L2.54707 11.6082C3.12662 15.0289 5.96002 17.7128 9.49102 18.1443V16.1867C8.40704 16.0077 7.41964 15.5552 6.6147 14.8921L5.55218 15.1552Z" fill="#DEAC35"/>
<path d="M5.80977 6.48255L5.54145 5.44056L6.60397 5.69316C7.6343 4.85115 8.9544 4.33542 10.3926 4.31437H10.5214V0.314819L9.17979 2.49352C5.68098 3.06188 2.94418 5.82999 2.49341 9.30328H4.48966C4.67212 8.24025 5.13361 7.27193 5.80977 6.48255Z" fill="#DEAC35"/>
<path d="M15.4478 5.44043L15.1902 6.48242C16.0703 7.51388 16.5961 8.85057 16.5961 10.303H20.6853L18.4529 8.9874C17.8733 5.56673 15.0507 2.89335 11.5197 2.45129V4.40897C12.6036 4.58789 13.5803 5.051 14.3852 5.70356L15.4478 5.44043Z" fill="#DEAC35"/>
<path d="M14.5998 8.35601C14.5891 8.36654 14.5676 8.36654 14.5569 8.36654C14.5247 8.36654 14.4925 8.34549 14.471 8.31391C14.4495 8.27181 14.471 8.20866 14.5139 8.18761L14.8896 7.99816C14.793 7.82976 14.6964 7.66135 14.5783 7.50348L14.2349 7.74555C14.2242 7.75608 14.2027 7.76661 14.1812 7.76661H14.1705C14.149 7.76661 14.1276 7.74555 14.1061 7.7245C14.0739 7.6824 14.0846 7.62978 14.1276 7.5982L14.4603 7.35613C14.3529 7.20877 14.2349 7.07195 14.1061 6.94564L13.7305 7.31402C13.709 7.33507 13.6661 7.35613 13.6339 7.35613C13.6017 7.35613 13.5695 7.3456 13.5373 7.31402C13.5158 7.29297 13.4943 7.2614 13.4943 7.2193C13.4943 7.18772 13.5051 7.14562 13.5373 7.12457L13.9129 6.75619C13.7841 6.62989 13.6446 6.51411 13.4943 6.40886L13.2475 6.74567C13.226 6.76672 13.2046 6.78777 13.1724 6.78777C13.1509 6.78777 13.1294 6.77724 13.1187 6.76672C13.0758 6.73514 13.065 6.68252 13.0972 6.64042L13.3441 6.30361C13.1831 6.18784 13.0114 6.09311 12.8397 5.99838L12.6465 6.36676C12.6357 6.38781 12.6143 6.40886 12.5928 6.40886C12.5821 6.40886 12.5713 6.40886 12.5606 6.40886C12.5499 6.40886 12.5284 6.40886 12.5177 6.39834C12.4747 6.37729 12.4533 6.31414 12.4747 6.27204L12.6679 5.90366C12.4962 5.81946 12.3138 5.74578 12.1206 5.68263L11.9918 6.07206C11.9811 6.09311 11.9703 6.11416 11.9489 6.12469C11.9381 6.13521 11.9167 6.13521 11.9059 6.13521C11.8952 6.13521 11.8845 6.13521 11.8737 6.13521C11.8201 6.11416 11.7986 6.07206 11.8093 6.01943L11.9381 5.63C11.7557 5.57738 11.5625 5.52475 11.3586 5.49318L11.2942 5.90366C11.2942 5.92471 11.2727 5.94576 11.2512 5.96681C11.2298 5.97733 11.219 5.98786 11.1976 5.98786H11.1868C11.1332 5.97733 11.101 5.93523 11.1117 5.88261L11.1761 5.48265C10.9937 5.4616 10.8112 5.44055 10.6288 5.44055V5.96681C10.6288 6.04048 10.5644 6.09311 10.4892 6.09311C10.4141 6.09311 10.3604 6.02996 10.3604 5.96681V5.44055C10.178 5.44055 9.99553 5.4616 9.81308 5.48265L9.87747 5.88261C9.88821 5.93523 9.84527 5.97733 9.80234 5.98786H9.79161C9.74868 5.98786 9.70575 5.95628 9.69502 5.91418L9.63062 5.51423C9.43744 5.5458 9.24425 5.5879 9.05107 5.65105L9.17986 6.04048C9.19059 6.09311 9.16912 6.14574 9.11546 6.15626C9.10473 6.15626 9.094 6.15626 9.08326 6.15626C9.07253 6.15626 9.05107 6.15626 9.04033 6.14574C9.01887 6.13521 8.9974 6.11416 8.9974 6.09311L8.86861 5.70368C8.68616 5.76683 8.50371 5.84051 8.32125 5.92471L8.51444 6.29309C8.5359 6.33519 8.51444 6.39834 8.47151 6.41939C8.46078 6.41939 8.45004 6.41939 8.43931 6.41939C8.42858 6.41939 8.41785 6.41939 8.40711 6.41939C8.38565 6.40886 8.36418 6.39834 8.35345 6.37729L8.16026 5.99838C7.98854 6.09311 7.81682 6.18784 7.65583 6.30361L7.90268 6.64042C7.93488 6.68252 7.92415 6.73514 7.88122 6.76672C7.85975 6.77724 7.84902 6.78777 7.82756 6.78777H7.81682C7.79536 6.78777 7.77389 6.76672 7.75243 6.74567L7.50558 6.41939C7.35532 6.52464 7.2158 6.65094 7.08701 6.76672L7.46265 7.1351C7.51631 7.18772 7.51631 7.27192 7.46265 7.32455C7.44118 7.3456 7.39825 7.36665 7.36606 7.36665C7.33386 7.36665 7.30166 7.35612 7.26946 7.32455L6.89382 6.95617C6.76503 7.08247 6.64698 7.2193 6.53965 7.36665L6.88309 7.60873C6.90456 7.61925 6.91529 7.65083 6.92602 7.67188C6.92602 7.69293 6.92602 7.7245 6.90456 7.74555C6.89382 7.7666 6.87236 7.77713 6.84016 7.77713H6.82943C6.80796 7.77713 6.7865 7.7666 6.77577 7.75608L6.44306 7.514C6.33573 7.67188 6.22841 7.84028 6.13181 8.00868L6.50745 8.19814C6.55038 8.21919 6.57185 8.28234 6.55038 8.32444C6.52892 8.35601 6.49672 8.37706 6.46452 8.37706C6.45379 8.37706 6.43232 8.37706 6.42159 8.36654L6.04595 8.17708C5.96009 8.34549 5.88496 8.52441 5.82057 8.71387L6.21767 8.84017C6.27134 8.86122 6.2928 8.90332 6.28207 8.95594C6.27134 8.97699 6.2606 8.99804 6.23914 9.00857C6.22841 9.0191 6.20694 9.01909 6.19621 9.01909C6.18548 9.01909 6.17474 9.01909 6.16401 9.01909L5.76691 8.89279C5.71324 9.07172 5.65958 9.26117 5.62738 9.46115L6.03522 9.5243C6.05669 9.5243 6.07815 9.54535 6.09962 9.5664C6.11035 9.58745 6.12108 9.6085 6.12108 9.64008C6.11035 9.68218 6.07815 9.71375 6.02449 9.71375H6.01376L5.60592 9.6506C5.58445 9.82953 5.56299 10.0085 5.56299 10.1874H6.09962C6.17474 10.1874 6.22841 10.2505 6.22841 10.3137C6.22841 10.3874 6.16401 10.44 6.09962 10.44H5.56299C5.56299 10.6189 5.58445 10.7978 5.60592 10.9768L6.01376 10.9136C6.06742 10.9031 6.11035 10.9452 6.12108 10.9873C6.12108 11.0083 6.12108 11.0399 6.09962 11.0504C6.08888 11.0715 6.06742 11.082 6.03522 11.0925L5.62738 11.1557C5.65958 11.3451 5.70251 11.5346 5.76691 11.7241L6.16401 11.5978C6.18548 11.5872 6.21767 11.5872 6.23914 11.6083C6.2606 11.6188 6.28207 11.6399 6.28207 11.6609C6.2928 11.7135 6.27134 11.7662 6.21767 11.7767L5.82057 11.903C5.88496 12.0819 5.96009 12.2608 6.04595 12.4398L6.42159 12.2503C6.46452 12.2293 6.52892 12.2398 6.55038 12.2924C6.57185 12.3345 6.55038 12.3977 6.50745 12.4187L6.13181 12.6082C6.22841 12.7766 6.325 12.945 6.44306 13.1028L6.77577 12.8608C6.79723 12.8502 6.8187 12.8397 6.85089 12.8397C6.87236 12.8397 6.89382 12.8608 6.91529 12.8818C6.92602 12.9029 6.93675 12.9239 6.93675 12.945C6.93675 12.966 6.91529 12.9871 6.89382 13.0081L6.56112 13.2502C6.66844 13.3975 6.79723 13.5344 6.91529 13.6607L7.29093 13.2923C7.31239 13.2712 7.34459 13.2502 7.38752 13.2502C7.41972 13.2502 7.45192 13.2607 7.48411 13.2923C7.50558 13.3133 7.52704 13.3554 7.52704 13.387C7.52704 13.4186 7.51631 13.4502 7.48411 13.4817L7.10847 13.8501C7.23727 13.9764 7.37679 14.0922 7.52704 14.1975L7.77389 13.8607C7.80609 13.8186 7.85975 13.808 7.90268 13.8396C7.92415 13.8501 7.93488 13.8712 7.94561 13.9028C7.94561 13.9238 7.94561 13.9554 7.92415 13.9764L7.6773 14.3027C7.83829 14.408 8.01001 14.5132 8.18173 14.6079L8.37492 14.2396C8.38565 14.2185 8.40711 14.1975 8.42858 14.1975C8.45004 14.1869 8.48224 14.1869 8.50371 14.208C8.54664 14.229 8.5681 14.2922 8.54664 14.3343L8.35345 14.7027C8.52517 14.7869 8.70763 14.8605 8.90081 14.9237L9.0296 14.5343C9.04033 14.5132 9.05107 14.4922 9.07253 14.4816C9.094 14.4711 9.12619 14.4711 9.14766 14.4816C9.20132 14.5027 9.22279 14.5448 9.21205 14.5974L9.08326 14.9868C9.26572 15.0395 9.4589 15.0921 9.66282 15.1237L9.72722 14.7237C9.72722 14.7027 9.74868 14.6816 9.77015 14.6606C9.79161 14.65 9.81308 14.6395 9.84527 14.6395C9.86674 14.6395 9.8882 14.6606 9.90967 14.6711C9.9204 14.6921 9.93114 14.7132 9.93114 14.7448L9.86674 15.1447C10.0492 15.1658 10.2316 15.1868 10.4141 15.1868V14.6606C10.4141 14.5869 10.4785 14.5343 10.5429 14.5343C10.618 14.5343 10.6824 14.5974 10.6824 14.6606V15.1868C10.8649 15.1868 11.0473 15.1658 11.2298 15.1447L11.1654 14.7342C11.1654 14.7132 11.1654 14.6816 11.1868 14.6606C11.1976 14.6395 11.219 14.629 11.2512 14.6185C11.2727 14.6185 11.3049 14.6185 11.3156 14.6395C11.3371 14.65 11.3478 14.6711 11.3586 14.7027L11.423 15.1131C11.6161 15.0816 11.8093 15.0289 12.0025 14.9763L11.8737 14.5869C11.863 14.5343 11.8845 14.4816 11.9381 14.4711C11.9596 14.4606 11.9918 14.4606 12.0132 14.4816C12.0347 14.4922 12.0562 14.5132 12.0562 14.5343L12.185 14.9237C12.3674 14.8605 12.5499 14.7869 12.7323 14.7027L12.5391 14.3343C12.5177 14.2922 12.5284 14.229 12.5821 14.208C12.6035 14.1975 12.6357 14.1975 12.6572 14.1975C12.6787 14.208 12.7001 14.2185 12.7109 14.2396L12.9041 14.6079C13.0758 14.5132 13.2475 14.4185 13.4085 14.3027L13.1616 13.9659C13.1294 13.9238 13.1402 13.8712 13.1831 13.8396C13.226 13.808 13.2904 13.8186 13.3119 13.8607L13.5587 14.1975C13.709 14.0922 13.8485 13.9659 13.9773 13.8501L13.6017 13.4817C13.548 13.4291 13.548 13.3449 13.6017 13.2923C13.6553 13.2397 13.7412 13.2397 13.7949 13.2923L14.1705 13.6607C14.2993 13.5344 14.4173 13.387 14.5247 13.2502L14.1812 13.0081C14.1598 12.9976 14.149 12.9765 14.1383 12.945C14.1383 12.9239 14.1383 12.8923 14.1598 12.8713C14.1705 12.8502 14.192 12.8397 14.2242 12.8397C14.2456 12.8397 14.2778 12.8397 14.2993 12.8608L14.6427 13.1028C14.75 12.945 14.8574 12.7766 14.954 12.6082L14.5783 12.4187C14.5354 12.3977 14.5139 12.3345 14.5354 12.2924C14.5461 12.2714 14.5676 12.2503 14.5891 12.2503C14.6105 12.2398 14.6427 12.2398 14.6642 12.2608L15.0398 12.4503C15.1257 12.2819 15.2008 12.103 15.2652 11.9135L14.8681 11.7872C14.8144 11.7662 14.793 11.7135 14.8037 11.6714C14.8252 11.6188 14.8681 11.5978 14.9218 11.6083L15.3189 11.7346C15.3618 11.5978 15.394 11.4504 15.4262 11.3136H13.5051C13.0865 12.5134 11.9274 13.3765 10.5536 13.3765C8.83642 13.3765 7.44118 12.0082 7.44118 10.3242C7.44118 8.64019 8.83642 7.27192 10.5536 7.27192C11.7879 7.27192 12.8611 7.97711 13.3656 9.00857H15.3403C15.2652 8.72439 15.1579 8.46126 15.0291 8.19814L14.5998 8.35601Z" fill="#DEAC35"/>
</svg>
