<svg width="28" height="28" viewBox="0 0 28 28" fill="none" xmlns="http://www.w3.org/2000/svg">
<path d="M13.6921 24.5853C13.7273 24.6326 13.7729 24.6711 13.8253 24.698C13.8778 24.7249 13.9357 24.7393 13.9947 24.7401H13.9997C14.0577 24.7401 14.115 24.7269 14.1672 24.7015C14.2194 24.6761 14.2651 24.6391 14.3009 24.5934C14.6177 24.1893 22.0556 14.6295 22.0556 8.57495C22.0556 6.43839 21.2069 4.38934 19.6961 2.87856C18.1853 1.36779 16.1363 0.519043 13.9997 0.519043C11.8631 0.519043 9.81408 1.36779 8.30331 2.87856C6.79253 4.38934 5.94379 6.43839 5.94379 8.57495C5.94379 10.8937 7.25213 14.2985 9.83294 18.6943C11.7396 21.9419 13.6729 24.5592 13.6921 24.5853ZM13.9997 1.28467C15.9326 1.28681 17.7857 2.05561 19.1524 3.42239C20.5191 4.78916 21.2879 6.64229 21.29 8.57517C21.29 13.6871 15.4327 21.8137 14.0076 23.7149C12.5997 21.7402 6.70941 13.21 6.70941 8.57517C6.7115 6.64229 7.48024 4.78916 8.84697 3.42239C10.2137 2.05561 12.0668 1.28681 13.9997 1.28467Z" fill="#474747"/>
<path d="M18.6311 8.57501C18.6311 7.65908 18.3596 6.76372 17.8507 6.00214C17.3419 5.24055 16.6187 4.64696 15.7725 4.29642C14.9263 3.94588 13.9952 3.85414 13.0968 4.03281C12.1985 4.21147 11.3733 4.6525 10.7257 5.30014C10.078 5.94778 9.63691 6.77294 9.4582 7.67126C9.2795 8.56958 9.37119 9.50071 9.72169 10.3469C10.0722 11.1931 10.6657 11.9164 11.4273 12.4253C12.1889 12.9341 13.0842 13.2057 14.0001 13.2057C15.2279 13.2044 16.405 12.7161 17.2732 11.848C18.1413 10.9798 18.6297 9.80276 18.6311 8.57501ZM14.0001 12.4401C13.2356 12.4401 12.4883 12.2134 11.8527 11.7887C11.217 11.3639 10.7216 10.7602 10.429 10.0539C10.1365 9.34762 10.06 8.57042 10.2091 7.82062C10.3583 7.07082 10.7264 6.38209 11.267 5.84152C11.8076 5.30096 12.4964 4.93284 13.2462 4.78372C13.996 4.6346 14.7732 4.71118 15.4795 5.00377C16.1858 5.29636 16.7894 5.79182 17.2141 6.42749C17.6388 7.06317 17.8655 7.81051 17.8655 8.57501C17.8642 9.59976 17.4566 10.5822 16.732 11.3068C16.0073 12.0314 15.0249 12.4389 14.0001 12.4401Z" fill="#F0AE20"/>
<path d="M17.9032 22.1303C17.8037 22.1205 17.7043 22.15 17.6262 22.2125C17.5482 22.275 17.4976 22.3656 17.4855 22.4648C17.4733 22.5641 17.5004 22.6642 17.5611 22.7437C17.6217 22.8233 17.7111 22.8759 17.81 22.8904C21.1059 23.2949 22.1723 24.0579 22.1723 24.3639C22.1723 24.9386 19.2879 26.057 13.9999 26.057C8.71179 26.057 5.82736 24.9377 5.82736 24.3639C5.82736 24.0358 6.8732 23.3645 9.6802 22.9585C9.7787 22.9417 9.86675 22.8871 9.92558 22.8064C9.9844 22.7256 10.0093 22.625 9.99507 22.5261C9.9808 22.4273 9.92845 22.3378 9.84919 22.277C9.76994 22.2162 9.67004 22.1887 9.57082 22.2005C7.51457 22.4982 5.06195 23.1149 5.06195 24.3639C5.06195 26.168 10.4071 26.8227 14.0001 26.8227C17.593 26.8227 22.9382 26.168 22.9382 24.3639C22.938 22.9582 19.7836 22.3613 17.9032 22.1303Z" fill="#474747"/>
</svg>
