<svg width="26" height="26" viewBox="0 0 26 26" fill="none" xmlns="http://www.w3.org/2000/svg">
<path d="M10.0642 22.4359C10.1649 22.5374 10.2848 22.618 10.4168 22.673C10.5488 22.728 10.6904 22.7563 10.8334 22.7563C10.9764 22.7563 11.118 22.728 11.25 22.673C11.382 22.618 11.5018 22.5374 11.6026 22.4359L20.2692 13.7692C20.3696 13.668 20.4491 13.5479 20.503 13.4159C20.5569 13.2839 20.5842 13.1426 20.5834 13C20.5842 12.8575 20.5569 12.7161 20.503 12.5841C20.4491 12.4522 20.3696 12.3321 20.2692 12.2309L11.6026 3.5642C11.5015 3.4632 11.3816 3.38307 11.2497 3.32841C11.1177 3.27374 10.9762 3.24561 10.8334 3.24561C10.6905 3.24561 10.5491 3.27374 10.4171 3.32841C10.2851 3.38307 10.1652 3.4632 10.0642 3.5642C9.86023 3.7682 9.74562 4.04488 9.74562 4.33337C9.74562 4.62187 9.86023 4.89854 10.0642 5.10254L17.9726 13.0109L10.0642 20.8975C9.96268 20.9982 9.88209 21.1181 9.82709 21.2501C9.77209 21.3821 9.74377 21.5237 9.74377 21.6667C9.74377 21.8097 9.77209 21.9513 9.82709 22.0833C9.88209 22.2153 9.96268 22.3352 10.0642 22.4359Z" fill="white"/>
</svg>
