<svg width="23" height="23" viewBox="0 0 23 23" fill="none" xmlns="http://www.w3.org/2000/svg">
<path d="M19.9846 4.93206L15.1929 0.140381C15.1031 0.0505371 14.9814 0 14.8541 0H4.79164C3.73507 0 2.875 0.85958 2.875 1.91668V21.0834C2.875 22.1404 3.73507 23 4.79168 23H18.2084C19.2649 23 20.125 22.1404 20.125 21.0833V5.27082C20.125 5.14355 20.0745 5.02191 19.9846 4.93206ZM15.3333 1.63592L18.4891 4.79168H16.2916C15.7629 4.79168 15.3333 4.36164 15.3333 3.83336V1.63592ZM19.1667 21.0833C19.1667 21.6116 18.7371 22.0416 18.2084 22.0416H4.79168C4.26291 22.0416 3.83336 21.6116 3.83336 21.0833V1.91668C3.83336 1.3884 4.26295 0.958363 4.79168 0.958363H14.375V3.83336C14.375 4.89042 15.2351 5.75 16.2917 5.75H19.1667V21.0833Z" fill="#474747"/>
<path d="M16.7708 13.4167H6.22918C5.96432 13.4167 5.75 13.6311 5.75 13.8959C5.75 14.1608 5.96432 14.3751 6.22918 14.3751H16.7709C17.0357 14.3751 17.25 14.1608 17.25 13.8959C17.25 13.6311 17.0357 13.4167 16.7708 13.4167Z" fill="#474747"/>
<path d="M16.7708 10.5417H6.22918C5.96432 10.5417 5.75 10.7561 5.75 11.0209C5.75 11.2858 5.96432 11.5001 6.22918 11.5001H16.7709C17.0357 11.5001 17.25 11.2858 17.25 11.0209C17.25 10.7561 17.0357 10.5417 16.7708 10.5417Z" fill="#474747"/>
<path d="M16.7708 16.2917H6.22918C5.96432 16.2917 5.75 16.5061 5.75 16.7709C5.75 17.0358 5.96432 17.2501 6.22918 17.2501H16.7709C17.0357 17.2501 17.25 17.0358 17.25 16.7709C17.25 16.5061 17.0357 16.2917 16.7708 16.2917Z" fill="#474747"/>
<path d="M11.9792 19.1667H6.22918C5.96432 19.1667 5.75 19.3811 5.75 19.6459C5.75 19.9108 5.96432 20.1251 6.22918 20.1251H11.9792C12.244 20.1251 12.4584 19.9108 12.4584 19.6459C12.4583 19.3811 12.244 19.1667 11.9792 19.1667Z" fill="#474747"/>
<path d="M10.5417 8.14593C10.5417 8.41079 10.756 8.62511 11.0209 8.62511H16.7709C17.0357 8.62511 17.25 8.41079 17.25 8.14593C17.25 7.88107 17.0357 7.66675 16.7709 7.66675H11.0209C10.756 7.66679 10.5417 7.88111 10.5417 8.14593Z" fill="#F0AE20"/>
<path d="M7.1875 7.66659H6.22918C5.96432 7.66659 5.75 7.88091 5.75 8.14577C5.75 8.41063 5.96432 8.62496 6.22918 8.62496H6.70836C6.70836 8.88982 6.92269 9.10414 7.18755 9.10414C7.4524 9.10414 7.66673 8.88982 7.66673 8.62496V8.53668C8.22322 8.33817 8.625 7.81129 8.625 7.18741C8.625 6.39472 7.98019 5.74991 7.1875 5.74991C6.92358 5.74991 6.70832 5.53514 6.70832 5.27073C6.70832 5.00636 6.92358 4.79155 7.1875 4.79155H8.14582C8.41068 4.79155 8.625 4.57723 8.625 4.31237C8.625 4.04751 8.41068 3.83319 8.14582 3.83319H7.66664C7.66664 3.56833 7.45231 3.354 7.18745 3.354C6.9226 3.354 6.70827 3.56833 6.70827 3.83319V3.92146C6.15178 4.11997 5.75 4.64686 5.75 5.27073C5.75 6.06342 6.39481 6.70823 7.1875 6.70823C7.45142 6.70823 7.66668 6.923 7.66668 7.18741C7.66668 7.45182 7.45142 7.66659 7.1875 7.66659Z" fill="#F0AE20"/>
</svg>
