<svg width="23" height="23" viewBox="0 0 23 23" xmlns="http://www.w3.org/2000/svg">
<path d="M11.5 0C6.90698 0 3.17029 3.73669 3.17029 8.32968C3.17029 14.0297 10.6246 22.3977 10.942 22.7512C11.2401 23.0832 11.7605 23.0826 12.0581 22.7512C12.3755 22.3977 19.8297 14.0297 19.8297 8.32968C19.8297 3.73669 16.093 0 11.5 0ZM11.5 12.5206C9.18915 12.5206 7.30916 10.6406 7.30916 8.32968C7.30916 6.01881 9.18919 4.13883 11.5 4.13883C13.8108 4.13883 15.6908 6.01886 15.6908 8.32973C15.6908 10.6406 13.8108 12.5206 11.5 12.5206Z"/>
</svg>
