<svg width="25" height="25" viewBox="0 0 25 25" fill="none" xmlns="http://www.w3.org/2000/svg">
<path d="M20.9534 0H9.77798C9.57573 0 9.41177 0.163965 9.41177 0.366211V2.51343C9.41177 2.71567 9.57573 2.87964 9.77798 2.87964C9.98023 2.87964 10.1442 2.71567 10.1442 2.51343V0.732422H20.5871V9.76816H19.2843V9.08745C19.2843 8.8852 19.1204 8.72124 18.9181 8.72124H17.8855C17.6833 8.72124 17.5193 8.8852 17.5193 9.08745C17.5193 9.2897 17.6833 9.45366 17.8855 9.45366H18.5519V10.6316C17.8203 10.6316 12.9491 10.6316 12.1793 10.6316V9.45366H16.1766C16.3788 9.45366 16.5428 9.2897 16.5428 9.08745C16.5428 8.8852 16.3788 8.72124 16.1766 8.72124H11.8131C11.6109 8.72124 11.4469 8.8852 11.4469 9.08745V9.76816H10.1441V4.22241C10.1441 4.02017 9.98018 3.8562 9.77793 3.8562C9.57568 3.8562 9.41172 4.02017 9.41172 4.22241V10.1344C9.41172 10.3366 9.57568 10.5006 9.77793 10.5006H11.4469V10.9978C11.4469 11.2 11.6109 11.364 11.8131 11.364H14.0264V12.5459H13.2781C11.7781 12.5459 10.3289 13.0869 9.19746 14.0692C8.86953 14.354 8.43965 14.5108 7.98701 14.5108H7.40063V14.2324C7.40063 14.0301 7.23667 13.8662 7.03442 13.8662H4.04663C3.84438 13.8662 3.68042 14.0301 3.68042 14.2324V15.101C3.68042 15.3033 3.84438 15.4672 4.04663 15.4672C4.24888 15.4672 4.41284 15.3033 4.41284 15.101V14.5986H6.66821V22.9473H4.41284V16.81C4.41284 16.6078 4.24888 16.4438 4.04663 16.4438C3.84438 16.4438 3.68042 16.6078 3.68042 16.81V23.3135C3.68042 23.5158 3.84438 23.6797 4.04663 23.6797H7.03442C7.23667 23.6797 7.40063 23.5158 7.40063 23.3135V23.0351H7.98711C8.4397 23.0351 8.86953 23.1919 9.19746 23.4767C10.3289 24.459 11.7781 25 13.2782 25H18.0462C18.8945 25 19.5846 24.3099 19.5846 23.4616C19.5846 23.1639 19.4996 22.8856 19.3525 22.6499C20.1382 22.5817 20.7567 21.9204 20.7567 21.1173C20.7567 20.7201 20.6054 20.3575 20.3574 20.0843C20.7979 19.8134 21.0921 19.3269 21.0921 18.7729C21.0921 18.1951 20.7718 17.6906 20.2995 17.4277C20.5297 17.1587 20.669 16.8096 20.669 16.4286C20.669 15.5803 19.9789 14.8902 19.1306 14.8902H17.9256V14.0843C17.9256 13.3449 17.4013 12.7257 16.7049 12.5789V11.364H18.9182C19.1204 11.364 19.2844 11.2 19.2844 10.9978V10.5005H20.9534C21.1556 10.5005 21.3196 10.3366 21.3196 10.1343V0.366211C21.3196 0.163965 21.1556 0 20.9534 0V0ZM19.1306 15.6227C19.575 15.6227 19.9366 15.9842 19.9366 16.4286C19.9366 16.873 19.575 17.2346 19.1306 17.2346C19.13 17.2346 16.7484 17.2346 16.7484 17.2346C16.5461 17.2346 16.3822 17.3985 16.3822 17.6008C16.3822 17.803 16.5461 17.967 16.7484 17.967H19.5537C19.9981 17.967 20.3596 18.3286 20.3596 18.7729C20.3596 19.2173 19.9981 19.5789 19.5537 19.5789C18.8614 19.5789 17.4909 19.5789 16.7484 19.5789C16.5461 19.5789 16.3822 19.7429 16.3822 19.9451C16.3822 20.1474 16.5461 20.3113 16.7484 20.3113H19.2183C19.6627 20.3113 20.0243 20.6729 20.0243 21.1173C20.0243 21.5617 19.6627 21.9232 19.2183 21.9232C18.4234 21.9232 17.5117 21.9232 16.7484 21.9232C16.5461 21.9232 16.3822 22.0872 16.3822 22.2895C16.3822 22.4917 16.5461 22.6557 16.7484 22.6557H18.0462C18.4906 22.6557 18.8521 23.0172 18.8521 23.4616C18.8521 23.906 18.4906 24.2676 18.0462 24.2676H13.2782C11.9545 24.2676 10.6759 23.7903 9.67769 22.9237C9.21655 22.5232 8.61616 22.3026 7.98721 22.3026H7.40063V15.2433H7.98711C8.61611 15.2433 9.21645 15.0227 9.67764 14.6222C10.6758 13.7556 11.9545 13.2783 13.2781 13.2783H14.0264V14.8902H13.2293C13.0271 14.8902 12.8631 15.0542 12.8631 15.2564C12.8631 15.4587 13.0271 15.6223 13.2293 15.6227C14.4403 15.6248 19.1355 15.6229 19.1306 15.6227ZM17.1932 14.0843V14.8902H16.7049V13.3436C16.9918 13.4671 17.1932 13.7526 17.1932 14.0843ZM15.9725 14.8902H14.7588V11.364H15.9725V14.8902Z" fill="#474747"/>
<path d="M15.5987 7.047L17.8795 4.76619C18.3314 4.31429 18.3314 3.57899 17.8795 3.12703C17.4276 2.67508 16.6922 2.67513 16.2403 3.12703L14.6805 4.68685L14.2248 4.23113C13.7719 3.7782 13.0386 3.77811 12.5856 4.23113C12.1337 4.68304 12.1337 5.41834 12.5856 5.87029L13.7623 7.04705C14.2687 7.55325 15.0924 7.5533 15.5987 7.047ZM13.1036 4.74901C13.2702 4.58231 13.5401 4.58226 13.7069 4.74901L14.4151 5.45721C14.5615 5.6036 14.7996 5.60355 14.9459 5.45721L16.7582 3.6449C16.9246 3.4786 17.1953 3.4786 17.3616 3.6449C17.5283 3.8116 17.5284 4.08152 17.3616 4.24827L15.0808 6.52908C14.86 6.74979 14.501 6.74979 14.2803 6.52908L13.1036 5.35233C12.9369 5.18568 12.9368 4.91575 13.1036 4.74901Z" fill="#F0AE20"/>
</svg>
