<svg width="12" height="12" viewBox="0 0 12 12" fill="none" xmlns="http://www.w3.org/2000/svg">
<g clip-path="url(#clip0_237_7182)">
<path d="M2.89674 6.3293L8.4471 11.8643C8.62895 12.0455 8.92337 12.0452 9.10491 11.8634C9.28632 11.6815 9.28585 11.3869 9.10398 11.2055L3.884 5.99998L9.10416 0.794438C9.28601 0.613032 9.28648 0.318635 9.1051 0.136761C9.01409 0.0455894 8.89487 3.8147e-06 8.77564 3.8147e-06C8.65672 3.8147e-06 8.53796 0.0452843 8.44712 0.135823L2.89674 5.67068C2.80916 5.75782 2.76001 5.87642 2.76001 5.99998C2.76001 6.12354 2.8093 6.24199 2.89674 6.3293Z" fill="white"/>
</g>
<defs>
<clipPath id="clip0_237_7182">
<rect width="12" height="12" fill="white" transform="translate(12 12) rotate(-180)"/>
</clipPath>
</defs>
</svg>
