<svg width="47" height="46" viewBox="0 0 47 46" fill="none" xmlns="http://www.w3.org/2000/svg">
<g clip-path="url(#clip0_195_4871)">
<path d="M23.0477 46.0001C35.7502 46.0001 46.0477 35.7026 46.0477 23C46.0477 10.2975 35.7502 0 23.0477 0C10.3451 0 0.0476074 10.2975 0.0476074 23C0.0476074 35.7026 10.3451 46.0001 23.0477 46.0001Z" fill="#D42428"/>
<path d="M35.0837 18.5617C35.0837 16.6336 33.5217 15.0708 31.5946 15.0708H15.2252C13.2985 15.0708 11.7368 16.634 11.7368 18.5617V27.9226C11.7368 29.8507 13.2988 31.4135 15.2252 31.4135H31.5943C33.5218 31.4135 35.0834 29.8503 35.0834 27.9226V18.5617H35.0837ZM21.0748 27.1911V18.399L27.7424 22.7953L21.0748 27.1911Z" fill="white"/>
</g>
<defs>
<clipPath id="clip0_195_4871">
<rect width="46" height="46" fill="white" transform="translate(0.0476074)"/>
</clipPath>
</defs>
</svg>
