<svg width="46" height="46" viewBox="0 0 46 46" fill="none" xmlns="http://www.w3.org/2000/svg">
<path d="M22.9997 46C35.7021 46 45.9995 35.7026 45.9995 23.0002C45.9995 10.2978 35.7021 0.000488281 22.9997 0.000488281C10.2973 0.000488281 0 10.2978 0 23.0002C0 35.7026 10.2973 46 22.9997 46Z" fill="#41B4E6"/>
<path d="M20.7663 26.3511L31.1604 34.1986L36.4072 11.8018L9.59271 22.3493L17.7521 25.0519L32.643 15.0634L20.7663 26.3511Z" fill="white"/>
<path d="M17.752 25.0519L19.9867 33.0933L20.7663 26.3511L32.643 15.0635L17.752 25.0519Z" fill="#D2D2D7"/>
<path d="M24.1445 28.9016L19.9868 33.0933L20.7663 26.3511L24.1445 28.9016Z" fill="#B9B9BE"/>
</svg>
