<svg width="47" height="46" viewBox="0 0 47 46" fill="none" xmlns="http://www.w3.org/2000/svg">
<g clip-path="url(#clip0_195_4874)">
<path d="M23.5238 46C36.2264 46 46.5238 35.7025 46.5238 23C46.5238 10.2975 36.2264 0 23.5238 0C10.8213 0 0.523804 10.2975 0.523804 23C0.523804 35.7025 10.8213 46 23.5238 46Z" fill="#3B5998"/>
<path d="M29.306 23.9004H25.2019V38.9358H18.9839V23.9004H16.0266V18.6164H18.9839V15.197C18.9839 12.7518 20.1454 8.92285 25.2573 8.92285L29.8632 8.94212V14.0712H26.5213C25.9731 14.0712 25.2023 14.3451 25.2023 15.5115V18.6213H29.8492L29.306 23.9004Z" fill="white"/>
</g>
<defs>
<clipPath id="clip0_195_4874">
<rect width="46" height="46" fill="white" transform="translate(0.523804)"/>
</clipPath>
</defs>
</svg>
