<svg width="47" height="46" viewBox="0 0 47 46" fill="none" xmlns="http://www.w3.org/2000/svg">
<path d="M23.0476 46C35.7502 46 46.0476 35.7025 46.0476 23C46.0476 10.2975 35.7502 0 23.0476 0C10.3451 0 0.0476074 10.2975 0.0476074 23C0.0476074 35.7025 10.3451 46 23.0476 46Z" fill="url(#paint0_linear_419_6)"/>
<path d="M27.9338 10.2222H18.1716C13.8169 10.2222 10.28 13.7591 10.28 18.1137V27.8759C10.28 32.2306 13.8169 35.7675 18.1716 35.7675H27.9338C32.2885 35.7675 35.8254 32.2306 35.8254 27.8759V18.1137C35.8254 13.7591 32.2885 10.2222 27.9338 10.2222ZM32.9734 27.8862C32.9734 30.6666 30.7143 32.9359 27.9236 32.9359H18.1614C15.3809 32.9359 13.1116 30.6768 13.1116 27.8862V18.1239C13.1116 15.3435 15.3707 13.0742 18.1614 13.0742H27.9236C30.704 13.0742 32.9734 15.3333 32.9734 18.1239V27.8862Z" fill="white"/>
<path d="M23.0476 16.4683C19.4494 16.4683 16.5156 19.402 16.5156 23.0003C16.5156 26.5985 19.4494 29.5323 23.0476 29.5323C26.6458 29.5323 29.5796 26.5985 29.5796 23.0003C29.5796 19.402 26.6458 16.4683 23.0476 16.4683V16.4683ZM23.0476 26.9665C20.8601 26.9665 19.0814 25.1878 19.0814 23.0003C19.0814 20.8127 20.8601 19.034 23.0476 19.034C25.2352 19.034 27.0138 20.8127 27.0138 23.0003C27.0138 25.1878 25.2352 26.9665 23.0476 26.9665Z" fill="white"/>
<path d="M30.0771 17.1843C30.6789 17.0867 31.0876 16.5198 30.9901 15.918C30.8925 15.3162 30.3256 14.9074 29.7238 15.005C29.122 15.1026 28.7132 15.6695 28.8108 16.2713C28.9084 16.8731 29.4753 17.2819 30.0771 17.1843Z" fill="white"/>
<defs>
<linearGradient id="paint0_linear_419_6" x1="5.53479" y1="40.5128" x2="38.2204" y2="7.82726" gradientUnits="userSpaceOnUse">
<stop stop-color="#FEE411"/>
<stop offset="0.0518459" stop-color="#FEDB16"/>
<stop offset="0.1381" stop-color="#FEC125"/>
<stop offset="0.2481" stop-color="#FE983D"/>
<stop offset="0.3762" stop-color="#FE5F5E"/>
<stop offset="0.5" stop-color="#FE2181"/>
<stop offset="1" stop-color="#9000DC"/>
</linearGradient>
</defs>
</svg>
