<svg width="47" height="46" viewBox="0 0 47 46" fill="none" xmlns="http://www.w3.org/2000/svg">
<g clip-path="url(#clip0_195_4848)">
<path d="M23.7619 46C36.4645 46 46.7619 35.7025 46.7619 23C46.7619 10.2975 36.4645 0 23.7619 0C11.0594 0 0.761902 10.2975 0.761902 23C0.761902 35.7025 11.0594 46 23.7619 46Z" fill="#6F3FAA"/>
<path d="M35.9291 16.1649L35.9216 16.1346C35.3071 13.6501 32.5365 10.9843 29.9921 10.4297L29.9634 10.4238C25.848 9.6387 21.6753 9.6387 17.5608 10.4238L17.5312 10.4297C14.9877 10.9843 12.217 13.6503 11.6017 16.1346L11.5949 16.1649C10.8352 19.6344 10.8352 23.1531 11.5949 26.6226L11.6017 26.6529C12.1909 29.0313 14.7551 31.5748 17.2045 32.2742V35.0475C17.2045 36.0513 18.4278 36.5443 19.1233 35.8199L21.9332 32.8992C22.5427 32.9332 23.1525 32.9522 23.7621 32.9522C25.8336 32.9522 27.9061 32.7563 29.9633 32.3639L29.992 32.3579C32.5364 31.8033 35.307 29.1373 35.9215 26.653L35.9291 26.6227C36.6888 23.1531 36.6888 19.6346 35.9291 16.1649ZM33.7054 26.1195C33.2951 27.7404 31.1915 29.7554 29.5201 30.1277C27.3319 30.5439 25.1263 30.7217 22.923 30.6607C22.8792 30.6594 22.837 30.6765 22.8066 30.708C22.4938 31.0289 20.755 32.8141 20.755 32.8141L18.5729 35.0537C18.4133 35.2201 18.133 35.1068 18.133 34.8772V30.283C18.133 30.2071 18.0788 30.1427 18.0042 30.1279C18.0038 30.1277 18.0034 30.1277 18.003 30.1277C16.3315 29.7553 14.2286 27.7403 13.8176 26.1195C13.1338 22.9834 13.1338 19.8042 13.8176 16.6681C14.2286 15.0472 16.3315 13.0322 18.003 12.6599C21.8246 11.933 25.6994 11.933 29.5201 12.6599C31.1924 13.0322 33.2952 15.0472 33.7055 16.6681C34.39 19.8042 34.39 22.9835 33.7054 26.1195Z" fill="white"/>
<path d="M27.3978 28.2404C27.1409 28.1623 26.8961 28.1099 26.6685 28.0157C24.3118 27.0379 22.143 25.7765 20.4251 23.843C19.4481 22.7435 18.6834 21.5021 18.0371 20.1884C17.7306 19.5654 17.4723 18.9181 17.2089 18.2748C16.9689 17.6883 17.3225 17.0824 17.6948 16.6404C18.0442 16.2256 18.4939 15.9083 18.9808 15.6742C19.3609 15.4916 19.7357 15.5969 20.0133 15.919C20.6133 16.6155 21.1646 17.3475 21.6107 18.1549C21.8852 18.6515 21.8099 19.2584 21.3124 19.5963C21.1915 19.6785 21.0814 19.7749 20.9688 19.8677C20.87 19.949 20.7771 20.0311 20.7093 20.1411C20.5856 20.3425 20.5797 20.5801 20.6593 20.7991C21.2726 22.4846 22.3065 23.7955 24.0032 24.5015C24.2747 24.6145 24.5473 24.7459 24.8601 24.7095C25.3839 24.6483 25.5535 24.0737 25.9206 23.7735C26.2794 23.4802 26.7379 23.4763 27.1244 23.7209C27.5109 23.9656 27.8856 24.2281 28.2581 24.4936C28.6238 24.7542 28.9877 25.0089 29.3249 25.306C29.6492 25.5916 29.7609 25.9663 29.5783 26.3538C29.244 27.0636 28.7575 27.654 28.0559 28.031C27.8578 28.1372 27.6212 28.1716 27.3978 28.2404C27.1409 28.1623 27.6212 28.1716 27.3978 28.2404Z" fill="white"/>
<path d="M23.7682 14.8625C26.8507 14.949 29.3826 16.9946 29.9251 20.0421C30.0176 20.5614 30.0505 21.0922 30.0916 21.6193C30.109 21.841 29.9833 22.0516 29.7442 22.0545C29.4971 22.0575 29.386 21.8507 29.3698 21.6292C29.3381 21.1906 29.3161 20.7499 29.2556 20.3151C28.9366 18.0188 27.1056 16.119 24.8199 15.7114C24.4759 15.65 24.1241 15.6339 23.7756 15.5974C23.5554 15.5743 23.267 15.561 23.2182 15.2871C23.1773 15.0576 23.371 14.8749 23.5896 14.8631C23.6488 14.8596 23.7086 14.8624 23.7682 14.8625C26.8509 14.949 23.7086 14.8624 23.7682 14.8625Z" fill="white"/>
<path d="M28.4528 20.9351C28.4477 20.9736 28.4451 21.0641 28.4224 21.1492C28.3407 21.4587 27.8713 21.4974 27.7634 21.1852C27.7313 21.0926 27.7266 20.9871 27.7264 20.8873C27.7253 20.2345 27.5835 19.5823 27.2542 19.0142C26.9157 18.4303 26.3986 17.9397 25.7922 17.6425C25.4255 17.463 25.029 17.3514 24.6271 17.285C24.4514 17.2559 24.2739 17.2383 24.0973 17.2137C23.8834 17.184 23.7691 17.0477 23.7794 16.8369C23.7888 16.6394 23.9332 16.4972 24.1485 16.5095C24.8558 16.5496 25.5392 16.7027 26.1681 17.0357C27.447 17.713 28.1776 18.7819 28.3909 20.2095C28.4005 20.2743 28.4159 20.3382 28.4209 20.4031C28.4329 20.5632 28.4406 20.7236 28.4528 20.9351C28.4477 20.9734 28.4406 20.7236 28.4528 20.9351Z" fill="white"/>
<path d="M26.5355 20.8608C26.2777 20.8655 26.1397 20.7226 26.113 20.4863C26.0946 20.3216 26.0798 20.1544 26.0405 19.994C25.963 19.678 25.7951 19.3853 25.5294 19.1917C25.4039 19.1003 25.2617 19.0337 25.1128 18.9906C24.9237 18.9359 24.7271 18.951 24.5386 18.9048C24.3336 18.8546 24.2202 18.6886 24.2525 18.4964C24.2818 18.3214 24.452 18.1848 24.6432 18.1987C25.8383 18.285 26.6925 18.9028 26.8144 20.3098C26.8231 20.4091 26.8332 20.5139 26.8112 20.6091C26.7733 20.7714 26.6529 20.8529 26.5355 20.8608C26.2776 20.8654 26.6529 20.8529 26.5355 20.8608Z" fill="white"/>
<path d="M35.9292 16.1654L35.9216 16.1351C35.5772 14.7424 34.5549 13.2929 33.275 12.1899L31.5447 13.7234C32.5736 14.5432 33.4552 15.6789 33.7056 16.6685C34.3902 19.8046 34.3902 22.9838 33.7056 26.12C33.2953 27.7409 31.1916 29.7559 29.5203 30.1282C27.3321 30.5444 25.1265 30.7222 22.9232 30.6612C22.8794 30.6599 22.8372 30.677 22.8068 30.7084C22.494 31.0294 20.7552 32.8146 20.7552 32.8146L18.5731 35.0542C18.4135 35.2206 18.1332 35.1075 18.1332 34.8777V30.2835C18.1332 30.2076 18.079 30.1431 18.0045 30.1284L18.0032 30.1282C17.0533 29.9166 15.9645 29.1743 15.1257 28.2756L13.416 29.7906C14.4837 30.9522 15.861 31.8912 17.2045 32.2749V35.0482C17.2045 36.052 18.4277 36.545 19.1233 35.8206L21.9331 32.8998C22.5426 32.9339 23.1522 32.9529 23.762 32.9529C25.8335 32.9529 27.906 32.757 29.9633 32.3645L29.9919 32.3587C32.5363 31.8041 35.3069 29.1382 35.9215 26.6538L35.929 26.6234C36.6888 23.1536 36.6888 19.6351 35.9292 16.1654Z" fill="white"/>
<path d="M27.3979 28.2402C27.6213 28.1714 27.1409 28.1621 27.3979 28.2402V28.2402Z" fill="white"/>
<path d="M29.3251 25.3059C28.9879 25.0089 28.6238 24.754 28.2583 24.4935C27.8858 24.228 27.5112 23.9655 27.1246 23.7207C26.7382 23.4762 26.2797 23.4801 25.9209 23.7734C25.5538 24.0736 25.3842 24.6482 24.8603 24.7094C24.5476 24.7458 24.2749 24.6142 24.0034 24.5014C22.9595 24.0671 22.1674 23.403 21.5688 22.5645L20.2966 23.692C20.3398 23.742 20.3811 23.7934 20.425 23.8428C22.143 25.7764 24.3119 27.0378 26.6684 28.0155C26.8958 28.1099 27.1408 28.1623 27.3978 28.2402C27.1408 28.1622 27.6213 28.1715 27.3978 28.2402C27.6213 28.1715 27.8578 28.1369 28.0561 28.0307C28.7579 27.6537 29.2442 27.0633 29.5784 26.3535C29.7611 25.9661 29.6495 25.5915 29.3251 25.3059Z" fill="white"/>
<path d="M23.7776 14.8642C23.7745 14.8642 23.7716 14.8639 23.7686 14.8639C23.7656 14.8636 23.7694 14.8639 23.7776 14.8642Z" fill="white"/>
<path d="M23.7683 14.8628C23.7709 14.8628 23.7734 14.8631 23.776 14.8631C23.9471 14.8692 26.7294 14.9458 23.7683 14.8628Z" fill="white"/>
<path d="M28.1899 16.6963L27.6475 17.177C28.4999 18.0063 29.0876 19.1054 29.2556 20.3148C29.316 20.7499 29.3382 21.1904 29.3699 21.629C29.386 21.8506 29.497 22.0574 29.7443 22.0545C29.9836 22.0515 30.1091 21.841 30.0917 21.6193C30.0505 21.0923 30.0177 20.5613 29.9252 20.0421C29.6878 18.7081 29.069 17.5661 28.1899 16.6963Z" fill="white"/>
<path d="M28.3908 20.2096C28.2354 19.1694 27.8039 18.3205 27.0871 17.6738L26.5463 18.1531C26.8259 18.4014 27.0679 18.6929 27.2542 19.0145C27.5835 19.5826 27.7254 20.2348 27.7265 20.8876C27.7266 20.9874 27.7314 21.0928 27.7635 21.1856C27.8715 21.498 28.3407 21.4593 28.4225 21.1497C28.4451 21.0644 28.4477 20.9739 28.4528 20.9355C28.4477 20.9741 28.4404 20.7241 28.4528 20.9355C28.4404 20.7241 28.4329 20.5637 28.4208 20.4034C28.416 20.3382 28.4005 20.2743 28.3908 20.2096Z" fill="white"/>
<path d="M28.4534 20.9352C28.4401 20.7237 28.4478 20.9735 28.4534 20.9352V20.9352Z" fill="white"/>
<path d="M26.5355 20.8614C26.5396 20.8612 26.5434 20.8589 26.5473 20.8584C26.5364 20.8584 26.5197 20.8587 26.5026 20.8594C26.5137 20.8597 26.5239 20.8615 26.5355 20.8614Z" fill="white"/>
<path d="M26.5356 20.8619C26.524 20.8621 26.5137 20.8603 26.5026 20.8599C26.4468 20.8615 26.3892 20.8648 26.5356 20.8619Z" fill="white"/>
<path d="M26.5473 20.8584C26.5433 20.8589 26.5394 20.8612 26.5356 20.8614C26.5658 20.8592 26.5632 20.8584 26.5473 20.8584Z" fill="white"/>
<path d="M25.9912 18.645L25.4407 19.1331C25.471 19.1515 25.5008 19.1707 25.5296 19.1916C25.7954 19.3852 25.9633 19.678 26.0407 19.9939C26.0801 20.1544 26.0947 20.3213 26.1132 20.4863C26.1387 20.7121 26.2669 20.8509 26.5028 20.8589C26.52 20.8585 26.5369 20.8581 26.5476 20.858C26.6611 20.8455 26.775 20.7659 26.8113 20.6088C26.8334 20.5139 26.8233 20.4088 26.8146 20.3096C26.7461 19.523 26.4487 18.9833 25.9912 18.645Z" fill="white"/>
</g>
<defs>
<clipPath id="clip0_195_4848">
<rect width="46" height="46" fill="white" transform="translate(0.761902)"/>
</clipPath>
</defs>
</svg>
