<svg width="32" height="27" viewBox="0 0 32 27" fill="none" xmlns="http://www.w3.org/2000/svg">
<path fill-rule="evenodd" clip-rule="evenodd" d="M2.67437 11.7044C10.8369 8.14807 16.28 5.80351 19.0033 4.67082C26.7792 1.4366 28.395 0.874745 29.448 0.856152C29.6797 0.852105 30.1976 0.909527 30.533 1.18176C31.0307 1.58557 31.0335 2.4621 30.9783 3.04223C30.5569 7.46973 28.7336 18.214 27.806 23.1728C27.4135 25.2711 26.6406 25.9747 25.8925 26.0435C24.2665 26.1931 23.0318 24.9689 21.4569 23.9366C18.9926 22.3211 17.6003 21.3155 15.2082 19.7392C12.4437 17.9174 14.2359 16.9162 15.8113 15.2799C16.2236 14.8517 23.3878 8.33521 23.5265 7.74404C23.5439 7.67011 23.56 7.39448 23.3962 7.24901C23.2325 7.10354 22.9909 7.1532 22.8165 7.19279C22.5693 7.2489 18.6325 9.85104 11.006 14.9991C9.88852 15.7665 8.87637 16.1403 7.96954 16.1207C6.96975 16.0992 5.04672 15.5555 3.61708 15.0908C1.86358 14.5208 0.46992 14.2194 0.591326 13.2514C0.654545 12.7471 1.34886 12.2315 2.67437 11.7044V11.7044Z" fill="white"/>
</svg>
