<svg width="80" height="80" viewBox="0 0 80 80" fill="none" xmlns="http://www.w3.org/2000/svg">
<path d="M40 80C62.0914 80 80 62.0914 80 40C80 17.9086 62.0914 0 40 0C17.9086 0 0 17.9086 0 40C0 62.0914 17.9086 80 40 80Z" fill="#F1B636"/>
<g clip-path="url(#clip0_195_4926)">
<path d="M38.9933 16.0387L23.9216 29.6032C23.6021 29.8926 23.4213 30.2965 23.4213 30.7245V39.7675C23.4213 40.3613 23.7709 40.9009 24.3135 41.1451C24.8591 41.3862 25.4951 41.2867 25.9352 40.8888L40.0001 28.2317L54.0619 40.8888C54.505 41.2867 55.1411 41.3892 55.6836 41.1451C56.2292 40.9009 56.5789 40.3613 56.5789 39.7675V30.7245C56.5789 30.2965 56.395 29.8926 56.0815 29.6032L41.0099 16.0387C40.4372 15.5233 39.563 15.5233 38.9933 16.0387Z" fill="white"/>
<path d="M38.9933 35.632L23.9216 49.1965C23.6021 49.4858 23.4213 49.8897 23.4213 50.3178V59.3608C23.4213 59.9546 23.7709 60.4942 24.3135 60.7383C24.8591 60.9795 25.4951 60.88 25.9352 60.4821L40.0001 47.8249L54.0619 60.4821C54.505 60.88 55.1411 60.9825 55.6836 60.7383C56.2292 60.4942 56.5789 59.9546 56.5789 59.3608V50.3178C56.5789 49.8897 56.395 49.4858 56.0815 49.1965L41.0099 35.632C40.4372 35.1165 39.563 35.1165 38.9933 35.632Z" fill="white"/>
</g>
<defs>
<clipPath id="clip0_195_4926">
<rect width="45.2174" height="45.2174" fill="white" transform="translate(17.3914 60.8696) rotate(-90)"/>
</clipPath>
</defs>
</svg>
