<svg width="40" height="28" viewBox="0 0 40 28" fill="none" xmlns="http://www.w3.org/2000/svg">
<path d="M37.0043 0.896545H2.9957C1.34117 0.896545 0 2.23772 0 3.89225V24.1078C0 25.7622 1.34117 27.1035 2.9957 27.1035H37.0043C38.6587 27.1035 40 25.7623 40 24.1078V3.89225C40 2.23772 38.6588 0.896545 37.0043 0.896545Z" fill="#41479B"/>
<path d="M39.9585 3.39703C39.7224 1.97836 38.49 0.896484 37.0043 0.896484H36.2248L23.4483 9.26735V0.896562H16.5517V9.26743L3.77516 0.896562H2.9957C1.51 0.896562 0.277578 1.97836 0.0414844 3.39711L10.9616 10.5518H0V17.4484H10.9616L0.0414844 24.6029C0.277578 26.0216 1.51 27.1034 2.9957 27.1034H3.77516L16.5517 18.7326V27.1034H23.4483V18.7326L36.2248 27.1034H37.0043C38.49 27.1034 39.7224 26.0217 39.9585 24.6029L29.0384 17.4482H40V10.5516H29.0384L39.9585 3.39703Z" fill="#F5F5F5"/>
<path d="M22.069 0.896545H17.931V11.931H0V16.069H17.931V27.1034H22.069V16.069H40V11.931H22.069V0.896545Z" fill="#FF4B55"/>
<path d="M1.93695 26.9103L16.5138 17.4482H13.9803L0.720627 26.0554C1.04508 26.4341 1.46203 26.7308 1.93695 26.9103Z" fill="#FF4B55"/>
<path d="M27.0616 17.4482H24.5281L38.6466 26.6127C39.0416 26.3532 39.3713 26.0028 39.6065 25.5912L27.0616 17.4482Z" fill="#FF4B55"/>
<path d="M0.31633 2.55269L12.639 10.5517H15.1724L1.20899 1.48761C0.834065 1.76667 0.527268 2.13152 0.31633 2.55269Z" fill="#FF4B55"/>
<path d="M25.9817 10.5517L39.2657 1.92864C38.9376 1.55122 38.5174 1.25622 38.0392 1.0802L23.4483 10.5517H25.9817Z" fill="#FF4B55"/>
</svg>
