<svg width="40" height="28" viewBox="0 0 40 28" fill="none" xmlns="http://www.w3.org/2000/svg">
<path d="M37.0043 0.896545H2.9957C1.34117 0.896545 0 2.23772 0 3.89225V24.1078C0 25.7622 1.34117 27.1035 2.9957 27.1035H37.0043C38.6587 27.1035 40 25.7623 40 24.1078V3.89225C40 2.23772 38.6588 0.896545 37.0043 0.896545Z" fill="#F5F5F5"/>
<path d="M0.164764 2.91248H39.8352C39.4292 1.73928 38.3155 0.896545 37.0043 0.896545H2.9957C1.68445 0.896545 0.57078 1.73928 0.164764 2.91248Z" fill="#FF4B55"/>
<path d="M40 8.96014H0V10.976H40V8.96014Z" fill="#FF4B55"/>
<path d="M40 4.9281H0V6.94396H40V4.9281Z" fill="#FF4B55"/>
<path d="M0 14.3183C0 14.6991 0.308828 15.0079 0.689687 15.0079H40V12.992H0V14.3183Z" fill="#FF4B55"/>
<path d="M40 21.0562H0V23.0722H40V21.0562Z" fill="#FF4B55"/>
<path d="M39.8352 25.0875H0.164764C0.57078 26.2607 1.68453 27.1034 2.9957 27.1034H37.0043C38.3155 27.1034 39.4292 26.2607 39.8352 25.0875Z" fill="#FF4B55"/>
<path d="M40 17.0242H0V19.04H40V17.0242Z" fill="#FF4B55"/>
<path d="M0.689687 15.008H17.9311C18.312 15.008 18.6208 14.6991 18.6208 14.3183V1.58617C18.6208 1.20523 18.312 0.896484 17.9311 0.896484H2.9957C1.34117 0.896562 0 2.23773 0 3.89227V14.3183C0 14.6992 0.308828 15.008 0.689687 15.008Z" fill="#41479B"/>
<path d="M1.93664 2.47958L2.0893 2.9374L2.57187 2.94107C2.63437 2.94161 2.66023 3.0213 2.61 3.05841L2.2218 3.34505L2.36742 3.80513C2.38633 3.86466 2.31844 3.91404 2.26758 3.87763L1.875 3.59708L1.48242 3.87771C1.43156 3.91411 1.36383 3.86474 1.38258 3.80521L1.5282 3.34513L1.14 3.05849C1.08977 3.0213 1.11562 2.94161 1.17812 2.94115L1.6607 2.93747L1.81336 2.47966C1.83305 2.42029 1.9168 2.42029 1.93664 2.47958Z" fill="#F5F5F5"/>
<path d="M1.93664 4.8743L2.0893 5.33211L2.57187 5.33579C2.63437 5.33633 2.66023 5.41594 2.61 5.45313L2.2218 5.73985L2.36742 6.19993C2.38633 6.25946 2.31844 6.30883 2.26758 6.27243L1.875 5.99188L1.48242 6.2725C1.43156 6.30883 1.36383 6.25954 1.38258 6.2L1.5282 5.73993L1.14 5.45321C1.08977 5.41602 1.11562 5.33641 1.17812 5.33586L1.6607 5.33219L1.81336 4.87438C1.83305 4.81508 1.9168 4.81508 1.93664 4.8743Z" fill="#F5F5F5"/>
<path d="M1.93664 7.26926L2.0893 7.72707L2.57187 7.73074C2.63437 7.73129 2.66023 7.8109 2.61 7.84808L2.2218 8.1348L2.36742 8.59488C2.38633 8.65441 2.31844 8.70379 2.26758 8.66738L1.875 8.38683L1.48242 8.66746C1.43156 8.70379 1.36383 8.65457 1.38258 8.59496L1.5282 8.13488L1.14 7.84816C1.08977 7.81097 1.11562 7.73136 1.17812 7.73082L1.6607 7.72715L1.81336 7.26933C1.83305 7.20996 1.9168 7.20996 1.93664 7.26926Z" fill="#F5F5F5"/>
<path d="M1.93664 9.66409L2.0893 10.1219L2.57187 10.1256C2.63437 10.1261 2.66023 10.2058 2.61 10.2429L2.2218 10.5296L2.36742 10.9897C2.38633 11.0492 2.31844 11.0986 2.26758 11.0622L1.875 10.7817L1.48242 11.0623C1.43156 11.0986 1.36383 11.0493 1.38258 10.9898L1.5282 10.5297L1.14 10.243C1.08977 10.206 1.11562 10.1262 1.17812 10.1257L1.6607 10.122L1.81336 9.66417C1.83305 9.6048 1.9168 9.60479 1.93664 9.66409Z" fill="#F5F5F5"/>
<path d="M1.93664 12.0589L2.0893 12.5167L2.57187 12.5204C2.63437 12.521 2.66023 12.6006 2.61 12.6378L2.2218 12.9245L2.36742 13.3845C2.38633 13.4441 2.31844 13.4935 2.26758 13.457L1.875 13.1765L1.48242 13.4571C1.43156 13.4935 1.36383 13.4442 1.38258 13.3846L1.5282 12.9246L1.14 12.6378C1.08977 12.6006 1.11562 12.521 1.17812 12.5205L1.6607 12.5168L1.81336 12.059C1.83305 11.9997 1.9168 11.9997 1.93664 12.0589Z" fill="#F5F5F5"/>
<path d="M3.79547 3.65361L3.94812 4.11142L4.4307 4.11509C4.4932 4.11564 4.51906 4.19533 4.46882 4.23243L4.08062 4.51915L4.22625 4.97923C4.24515 5.03876 4.17726 5.08814 4.1264 5.05173L3.73382 4.77111L3.34125 5.05173C3.29039 5.08806 3.22265 5.03876 3.2414 4.97923L3.38703 4.51915L2.99883 4.23243C2.94859 4.19525 2.97445 4.11564 3.03695 4.11509L3.51953 4.11142L3.67218 3.65361C3.69187 3.59439 3.7757 3.59439 3.79547 3.65361Z" fill="#F5F5F5"/>
<path d="M3.79547 6.04856L3.94812 6.50637L4.4307 6.51005C4.4932 6.51059 4.51906 6.59028 4.46882 6.62739L4.08062 6.91411L4.22625 7.37419C4.24515 7.43372 4.17726 7.48309 4.1264 7.44669L3.73382 7.16606L3.34125 7.44669C3.29039 7.48302 3.22265 7.4338 3.2414 7.37419L3.38703 6.91411L2.99883 6.62739C2.94859 6.59036 2.97445 6.51059 3.03695 6.51005L3.51953 6.50637L3.67218 6.04856C3.69187 5.98927 3.7757 5.98927 3.79547 6.04856Z" fill="#F5F5F5"/>
<path d="M3.79547 8.4434L3.94812 8.90121L4.4307 8.90488C4.4932 8.90543 4.51906 8.98504 4.46882 9.02223L4.08062 9.30894L4.22625 9.76902C4.24515 9.82855 4.17726 9.87793 4.1264 9.84152L3.73382 9.5609L3.34125 9.84152C3.29039 9.87785 3.22265 9.82855 3.2414 9.76902L3.38703 9.30894L2.99883 9.02223C2.94859 8.98504 2.97445 8.90543 3.03695 8.90488L3.51953 8.90121L3.67218 8.4434C3.69187 8.3841 3.7757 8.3841 3.79547 8.4434Z" fill="#F5F5F5"/>
<path d="M3.79547 10.8382L3.94812 11.2961L4.4307 11.2997C4.4932 11.3003 4.51906 11.3799 4.46882 11.4171L4.08062 11.7038L4.22625 12.1639C4.24515 12.2234 4.17726 12.2728 4.1264 12.2364L3.73382 11.9557L3.34125 12.2364C3.29039 12.2728 3.22265 12.2234 3.2414 12.1639L3.38703 11.7038L2.99883 11.4171C2.94859 11.3799 2.97445 11.3003 3.03695 11.2997L3.51953 11.2961L3.67218 10.8382C3.69187 10.779 3.7757 10.779 3.79547 10.8382Z" fill="#F5F5F5"/>
<path d="M5.6543 2.47947L5.80696 2.93728L6.28953 2.94095C6.35203 2.9415 6.37789 3.02119 6.32766 3.0583L5.93946 3.34494L6.08508 3.80502C6.10399 3.86455 6.0361 3.91392 5.98524 3.87752L5.59266 3.59689L5.20008 3.87752C5.14922 3.91392 5.08149 3.86455 5.10024 3.80502L5.24586 3.34494L4.85766 3.0583C4.80742 3.02111 4.83328 2.94142 4.89578 2.94095L5.37836 2.93728L5.53102 2.47947C5.55071 2.42017 5.63453 2.42017 5.6543 2.47947Z" fill="#F5F5F5"/>
<path d="M5.6543 4.87431L5.80696 5.33212L6.28953 5.33579C6.35203 5.33634 6.37789 5.41595 6.32766 5.45314L5.93946 5.73986L6.08508 6.19993C6.10399 6.25946 6.0361 6.30884 5.98524 6.27243L5.59266 5.99181L5.20008 6.27243C5.14922 6.30876 5.08149 6.25946 5.10024 6.19993L5.24586 5.73986L4.85766 5.45314C4.80742 5.41595 4.83328 5.33634 4.89578 5.33579L5.37836 5.33212L5.53102 4.87431C5.55071 4.81509 5.63453 4.81509 5.6543 4.87431Z" fill="#F5F5F5"/>
<path d="M5.6543 7.26927L5.80696 7.72708L6.28953 7.73075C6.35203 7.7313 6.37789 7.81091 6.32766 7.84809L5.93946 8.13481L6.08508 8.59489C6.10399 8.65442 6.0361 8.7038 5.98524 8.66739L5.59266 8.38676L5.20008 8.66739C5.14922 8.70372 5.08149 8.6545 5.10024 8.59489L5.24586 8.13481L4.85766 7.84809C4.80742 7.81091 4.83328 7.7313 4.89578 7.73075L5.37836 7.72708L5.53102 7.26927C5.55071 7.20997 5.63453 7.20997 5.6543 7.26927Z" fill="#F5F5F5"/>
<path d="M5.6543 9.6641L5.80696 10.1219L6.28953 10.1256C6.35203 10.1261 6.37789 10.2058 6.32766 10.2429L5.93946 10.5296L6.08508 10.9897C6.10399 11.0493 6.0361 11.0986 5.98524 11.0622L5.59266 10.7816L5.20008 11.0622C5.14922 11.0986 5.08149 11.0493 5.10024 10.9897L5.24586 10.5296L4.85766 10.2429C4.80742 10.2059 4.83328 10.1261 4.89578 10.1256L5.37836 10.1219L5.53102 9.6641C5.55071 9.6048 5.63453 9.6048 5.6543 9.6641Z" fill="#F5F5F5"/>
<path d="M5.6543 12.0589L5.80696 12.5168L6.28953 12.5204C6.35203 12.521 6.37789 12.6006 6.32766 12.6378L5.93946 12.9245L6.08508 13.3846C6.10399 13.4441 6.0361 13.4935 5.98524 13.4571L5.59266 13.1764L5.20008 13.4571C5.14922 13.4934 5.08149 13.4441 5.10024 13.3846L5.24586 12.9245L4.85766 12.6378C4.80742 12.6006 4.83328 12.521 4.89578 12.5204L5.37836 12.5168L5.53102 12.0589C5.55071 11.9997 5.63453 11.9997 5.6543 12.0589Z" fill="#F5F5F5"/>
<path d="M7.5132 3.65361L7.66586 4.11142L8.14844 4.11509C8.21094 4.11564 8.23679 4.19533 8.18656 4.23243L7.79836 4.51915L7.94398 4.97923C7.96289 5.03876 7.895 5.08814 7.84414 5.05173L7.45156 4.77111L7.05898 5.05173C7.00812 5.08806 6.94039 5.03876 6.95914 4.97923L7.10476 4.51915L6.71656 4.23243C6.66633 4.19525 6.69219 4.11564 6.75469 4.11509L7.23726 4.11142L7.38992 3.65361C7.40953 3.59439 7.49344 3.59439 7.5132 3.65361Z" fill="#F5F5F5"/>
<path d="M7.5132 6.04856L7.66586 6.50637L8.14844 6.51005C8.21094 6.51059 8.23679 6.59028 8.18656 6.62739L7.79836 6.91411L7.94398 7.37419C7.96289 7.43372 7.895 7.48309 7.84414 7.44669L7.45156 7.16606L7.05898 7.44669C7.00812 7.48302 6.94039 7.4338 6.95914 7.37419L7.10476 6.91411L6.71656 6.62739C6.66633 6.59036 6.69219 6.51059 6.75469 6.51005L7.23726 6.50637L7.38992 6.04856C7.40953 5.98927 7.49344 5.98927 7.5132 6.04856Z" fill="#F5F5F5"/>
<path d="M7.5132 8.4434L7.66586 8.90121L8.14844 8.90488C8.21094 8.90543 8.23679 8.98504 8.18656 9.02223L7.79836 9.30894L7.94398 9.76902C7.96289 9.82855 7.895 9.87793 7.84414 9.84152L7.45156 9.5609L7.05898 9.84152C7.00812 9.87785 6.94039 9.82855 6.95914 9.76902L7.10476 9.30894L6.71656 9.02223C6.66633 8.98504 6.69219 8.90543 6.75469 8.90488L7.23726 8.90121L7.38992 8.4434C7.40953 8.3841 7.49344 8.3841 7.5132 8.4434Z" fill="#F5F5F5"/>
<path d="M7.5132 10.8382L7.66586 11.2961L8.14844 11.2997C8.21094 11.3003 8.23679 11.3799 8.18656 11.4171L7.79836 11.7038L7.94398 12.1639C7.96289 12.2234 7.895 12.2728 7.84414 12.2364L7.45156 11.9557L7.05898 12.2364C7.00812 12.2728 6.94039 12.2234 6.95914 12.1639L7.10476 11.7038L6.71656 11.4171C6.66633 11.3799 6.69219 11.3003 6.75469 11.2997L7.23726 11.2961L7.38992 10.8382C7.40953 10.779 7.49344 10.779 7.5132 10.8382Z" fill="#F5F5F5"/>
<path d="M9.37203 2.47946L9.52468 2.93727L10.0073 2.94094C10.0698 2.94149 10.0956 3.02118 10.0454 3.05829L9.65718 3.34493L9.80281 3.80501C9.82171 3.86454 9.75382 3.91391 9.70296 3.87751L9.31031 3.59696L8.91773 3.87758C8.86687 3.91399 8.79914 3.86461 8.81789 3.80508L8.96351 3.34501L8.57531 3.05837C8.52508 3.02118 8.55093 2.94149 8.61343 2.94102L9.09601 2.93735L9.24867 2.47954C9.26843 2.42016 9.35226 2.42016 9.37203 2.47946Z" fill="#F5F5F5"/>
<path d="M9.37203 4.87431L9.52468 5.33212L10.0073 5.33579C10.0698 5.33634 10.0956 5.41595 10.0454 5.45314L9.65718 5.73986L9.80281 6.19993C9.82171 6.25946 9.75382 6.30884 9.70296 6.27243L9.31031 5.99181L8.91773 6.27243C8.86687 6.30876 8.79914 6.25946 8.81789 6.19993L8.96351 5.73986L8.57531 5.45314C8.52508 5.41595 8.55093 5.33634 8.61343 5.33579L9.09601 5.33212L9.24867 4.87431C9.26843 4.81509 9.35226 4.81509 9.37203 4.87431Z" fill="#F5F5F5"/>
<path d="M9.37203 7.26921L9.52468 7.72703L10.0073 7.7307C10.0698 7.73125 10.0956 7.81085 10.0454 7.84804L9.65718 8.13476L9.80281 8.59484C9.82171 8.65437 9.75382 8.70374 9.70296 8.66734L9.31031 8.38663L8.91773 8.66726C8.86687 8.70359 8.79914 8.65429 8.81789 8.59476L8.96351 8.13468L8.57531 7.84796C8.52508 7.81078 8.55093 7.73117 8.61343 7.73062L9.09601 7.72695L9.24867 7.26914C9.26843 7.20992 9.35226 7.20992 9.37203 7.26921Z" fill="#F5F5F5"/>
<path d="M9.37203 9.6641L9.52468 10.1219L10.0073 10.1256C10.0698 10.1261 10.0956 10.2058 10.0454 10.2429L9.65718 10.5296L9.80281 10.9897C9.82171 11.0493 9.75382 11.0986 9.70296 11.0622L9.31031 10.7816L8.91773 11.0622C8.86687 11.0986 8.79914 11.0493 8.81789 10.9897L8.96351 10.5296L8.57531 10.2429C8.52508 10.2059 8.55093 10.1261 8.61343 10.1256L9.09601 10.1219L9.24867 9.6641C9.26843 9.6048 9.35226 9.6048 9.37203 9.6641Z" fill="#F5F5F5"/>
<path d="M9.37203 12.0589L9.52468 12.5168L10.0073 12.5204C10.0698 12.521 10.0956 12.6006 10.0454 12.6378L9.65718 12.9245L9.80281 13.3846C9.82171 13.4441 9.75382 13.4935 9.70296 13.4571L9.31031 13.1764L8.91773 13.4571C8.86687 13.4934 8.79914 13.4441 8.81789 13.3846L8.96351 12.9245L8.57531 12.6378C8.52508 12.6006 8.55093 12.521 8.61343 12.5204L9.09601 12.5168L9.24867 12.0589C9.26843 11.9997 9.35226 11.9997 9.37203 12.0589Z" fill="#F5F5F5"/>
<path d="M11.2309 3.65361L11.3835 4.11142L11.8661 4.11509C11.9286 4.11564 11.9545 4.19533 11.9042 4.23243L11.516 4.51915L11.6616 4.97923C11.6805 5.03876 11.6127 5.08814 11.5618 5.05173L11.1692 4.77111L10.7766 5.05173C10.7258 5.08806 10.658 5.03876 10.6768 4.97923L10.8224 4.51915L10.4342 4.23243C10.384 4.19525 10.4098 4.11564 10.4723 4.11509L10.9549 4.11142L11.1076 3.65361C11.1273 3.59439 11.2111 3.59439 11.2309 3.65361Z" fill="#F5F5F5"/>
<path d="M11.2309 6.04856L11.3835 6.50637L11.8661 6.51005C11.9286 6.51059 11.9545 6.59028 11.9042 6.62739L11.516 6.91411L11.6616 7.37419C11.6805 7.43372 11.6127 7.48309 11.5618 7.44669L11.1692 7.16606L10.7766 7.44669C10.7258 7.48302 10.658 7.4338 10.6768 7.37419L10.8224 6.91411L10.4342 6.62739C10.384 6.59036 10.4098 6.51059 10.4723 6.51005L10.9549 6.50637L11.1076 6.04856C11.1273 5.98927 11.2111 5.98927 11.2309 6.04856Z" fill="#F5F5F5"/>
<path d="M11.2309 8.4434L11.3835 8.90121L11.8661 8.90488C11.9286 8.90543 11.9545 8.98504 11.9042 9.02223L11.516 9.30894L11.6616 9.76902C11.6805 9.82855 11.6127 9.87793 11.5618 9.84152L11.1692 9.5609L10.7766 9.84152C10.7258 9.87785 10.658 9.82855 10.6768 9.76902L10.8224 9.30894L10.4342 9.02223C10.384 8.98504 10.4098 8.90543 10.4723 8.90488L10.9549 8.90121L11.1076 8.4434C11.1273 8.3841 11.2111 8.3841 11.2309 8.4434Z" fill="#F5F5F5"/>
<path d="M11.2309 10.8382L11.3835 11.2961L11.8661 11.2997C11.9286 11.3003 11.9545 11.3799 11.9042 11.4171L11.516 11.7038L11.6616 12.1639C11.6805 12.2234 11.6127 12.2728 11.5618 12.2364L11.1692 11.9557L10.7766 12.2364C10.7258 12.2728 10.658 12.2234 10.6768 12.1639L10.8224 11.7038L10.4342 11.4171C10.384 11.3799 10.4098 11.3003 10.4723 11.2997L10.9549 11.2961L11.1076 10.8382C11.1273 10.779 11.2111 10.779 11.2309 10.8382Z" fill="#F5F5F5"/>
<path d="M13.0898 2.47947L13.2424 2.93728L13.725 2.94095C13.7875 2.9415 13.8134 3.02119 13.7631 3.0583L13.3749 3.34494L13.5205 3.80502C13.5395 3.86455 13.4716 3.91392 13.4207 3.87752L13.0281 3.59689L12.6356 3.87752C12.5847 3.91392 12.517 3.86455 12.5357 3.80502L12.6813 3.34494L12.2931 3.0583C12.2429 3.02111 12.2688 2.94142 12.3313 2.94095L12.8138 2.93728L12.9665 2.47947C12.9861 2.42017 13.07 2.42017 13.0898 2.47947Z" fill="#F5F5F5"/>
<path d="M13.0898 4.87431L13.2424 5.33212L13.725 5.33579C13.7875 5.33634 13.8134 5.41595 13.7631 5.45314L13.3749 5.73986L13.5205 6.19993C13.5395 6.25946 13.4716 6.30884 13.4207 6.27243L13.0281 5.99181L12.6356 6.27243C12.5847 6.30876 12.517 6.25946 12.5357 6.19993L12.6813 5.73986L12.2931 5.45314C12.2429 5.41595 12.2688 5.33634 12.3313 5.33579L12.8138 5.33212L12.9665 4.87431C12.9861 4.81509 13.07 4.81509 13.0898 4.87431Z" fill="#F5F5F5"/>
<path d="M13.0898 7.26927L13.2424 7.72708L13.725 7.73075C13.7875 7.7313 13.8134 7.81091 13.7631 7.84809L13.3749 8.13481L13.5205 8.59489C13.5395 8.65442 13.4716 8.7038 13.4207 8.66739L13.0281 8.38676L12.6356 8.66739C12.5847 8.70372 12.517 8.6545 12.5357 8.59489L12.6813 8.13481L12.2931 7.84809C12.2429 7.81091 12.2688 7.7313 12.3313 7.73075L12.8138 7.72708L12.9665 7.26927C12.9861 7.20997 13.07 7.20997 13.0898 7.26927Z" fill="#F5F5F5"/>
<path d="M13.0898 9.6641L13.2424 10.1219L13.725 10.1256C13.7875 10.1261 13.8134 10.2058 13.7631 10.2429L13.3749 10.5296L13.5205 10.9897C13.5395 11.0493 13.4716 11.0986 13.4207 11.0622L13.0281 10.7816L12.6356 11.0622C12.5847 11.0986 12.517 11.0493 12.5357 10.9897L12.6813 10.5296L12.2931 10.2429C12.2429 10.2059 12.2688 10.1261 12.3313 10.1256L12.8138 10.1219L12.9665 9.6641C12.9861 9.6048 13.07 9.6048 13.0898 9.6641Z" fill="#F5F5F5"/>
<path d="M13.0898 12.0589L13.2424 12.5168L13.725 12.5204C13.7875 12.521 13.8134 12.6006 13.7631 12.6378L13.3749 12.9245L13.5205 13.3846C13.5395 13.4441 13.4716 13.4935 13.4207 13.4571L13.0281 13.1764L12.6356 13.4571C12.5847 13.4934 12.517 13.4441 12.5357 13.3846L12.6813 12.9245L12.2931 12.6378C12.2429 12.6006 12.2688 12.521 12.3313 12.5204L12.8138 12.5168L12.9665 12.0589C12.9861 11.9997 13.07 11.9997 13.0898 12.0589Z" fill="#F5F5F5"/>
<path d="M14.9486 3.65361L15.1013 4.11142L15.5838 4.11509C15.6463 4.11564 15.6722 4.19533 15.622 4.23243L15.2338 4.51915L15.3794 4.97923C15.3983 5.03876 15.3304 5.08814 15.2795 5.05173L14.887 4.77111L14.4944 5.05173C14.4435 5.08806 14.3758 5.03876 14.3945 4.97923L14.5402 4.51915L14.152 4.23243C14.1017 4.19525 14.1276 4.11564 14.1901 4.11509L14.6727 4.11142L14.8253 3.65361C14.845 3.59439 14.9288 3.59439 14.9486 3.65361Z" fill="#F5F5F5"/>
<path d="M14.9486 6.04856L15.1013 6.50637L15.5838 6.51005C15.6463 6.51059 15.6722 6.59028 15.622 6.62739L15.2338 6.91411L15.3794 7.37419C15.3983 7.43372 15.3304 7.48309 15.2795 7.44669L14.887 7.16606L14.4944 7.44669C14.4435 7.48302 14.3758 7.4338 14.3945 7.37419L14.5402 6.91411L14.152 6.62739C14.1017 6.59036 14.1276 6.51059 14.1901 6.51005L14.6727 6.50637L14.8253 6.04856C14.845 5.98927 14.9288 5.98927 14.9486 6.04856Z" fill="#F5F5F5"/>
<path d="M14.9486 8.4434L15.1013 8.90121L15.5838 8.90488C15.6463 8.90543 15.6722 8.98504 15.622 9.02223L15.2338 9.30894L15.3794 9.76902C15.3983 9.82855 15.3304 9.87793 15.2795 9.84152L14.887 9.5609L14.4944 9.84152C14.4435 9.87785 14.3758 9.82855 14.3945 9.76902L14.5402 9.30894L14.152 9.02223C14.1017 8.98504 14.1276 8.90543 14.1901 8.90488L14.6727 8.90121L14.8253 8.4434C14.845 8.3841 14.9288 8.3841 14.9486 8.4434Z" fill="#F5F5F5"/>
<path d="M14.9486 10.8382L15.1013 11.2961L15.5838 11.2997C15.6463 11.3003 15.6722 11.3799 15.622 11.4171L15.2338 11.7038L15.3794 12.1639C15.3983 12.2234 15.3304 12.2728 15.2795 12.2364L14.887 11.9557L14.4944 12.2364C14.4435 12.2728 14.3758 12.2234 14.3945 12.1639L14.5402 11.7038L14.152 11.4171C14.1017 11.3799 14.1276 11.3003 14.1901 11.2997L14.6727 11.2961L14.8253 10.8382C14.845 10.779 14.9288 10.779 14.9486 10.8382Z" fill="#F5F5F5"/>
<path d="M16.8075 2.47947L16.9602 2.93728L17.4427 2.94095C17.5052 2.9415 17.5311 3.02119 17.4809 3.0583L17.0927 3.34494L17.2383 3.80502C17.2572 3.86455 17.1893 3.91392 17.1384 3.87752L16.7459 3.59689L16.3533 3.87752C16.3024 3.91392 16.2347 3.86455 16.2534 3.80502L16.3991 3.34494L16.0109 3.0583C15.9606 3.02111 15.9865 2.94142 16.049 2.94095L16.5316 2.93728L16.6842 2.47947C16.7039 2.42017 16.7877 2.42017 16.8075 2.47947Z" fill="#F5F5F5"/>
<path d="M16.8075 4.87431L16.9602 5.33212L17.4427 5.33579C17.5052 5.33634 17.5311 5.41595 17.4809 5.45314L17.0927 5.73986L17.2383 6.19993C17.2572 6.25946 17.1893 6.30884 17.1384 6.27243L16.7459 5.99181L16.3533 6.27243C16.3024 6.30876 16.2347 6.25946 16.2534 6.19993L16.3991 5.73986L16.0109 5.45314C15.9606 5.41595 15.9865 5.33634 16.049 5.33579L16.5316 5.33212L16.6842 4.87431C16.7039 4.81509 16.7877 4.81509 16.8075 4.87431Z" fill="#F5F5F5"/>
<path d="M16.8075 7.26927L16.9602 7.72708L17.4427 7.73075C17.5052 7.7313 17.5311 7.81091 17.4809 7.84809L17.0927 8.13481L17.2383 8.59489C17.2572 8.65442 17.1893 8.7038 17.1384 8.66739L16.7459 8.38676L16.3533 8.66739C16.3024 8.70372 16.2347 8.6545 16.2534 8.59489L16.3991 8.13481L16.0109 7.84809C15.9606 7.81091 15.9865 7.7313 16.049 7.73075L16.5316 7.72708L16.6842 7.26927C16.7039 7.20997 16.7877 7.20997 16.8075 7.26927Z" fill="#F5F5F5"/>
<path d="M16.8075 9.6641L16.9602 10.1219L17.4427 10.1256C17.5052 10.1261 17.5311 10.2058 17.4809 10.2429L17.0927 10.5296L17.2383 10.9897C17.2572 11.0493 17.1893 11.0986 17.1384 11.0622L16.7459 10.7816L16.3533 11.0622C16.3024 11.0986 16.2347 11.0493 16.2534 10.9897L16.3991 10.5296L16.0109 10.2429C15.9606 10.2059 15.9865 10.1261 16.049 10.1256L16.5316 10.1219L16.6842 9.6641C16.7039 9.6048 16.7877 9.6048 16.8075 9.6641Z" fill="#F5F5F5"/>
<path d="M16.8075 12.0589L16.9602 12.5168L17.4427 12.5204C17.5052 12.521 17.5311 12.6006 17.4809 12.6378L17.0927 12.9245L17.2383 13.3846C17.2572 13.4441 17.1893 13.4935 17.1384 13.4571L16.7459 13.1764L16.3533 13.4571C16.3024 13.4934 16.2347 13.4441 16.2534 13.3846L16.3991 12.9245L16.0109 12.6378C15.9606 12.6006 15.9865 12.521 16.049 12.5204L16.5316 12.5168L16.6842 12.0589C16.7039 11.9997 16.7877 11.9997 16.8075 12.0589Z" fill="#F5F5F5"/>
</svg>
