<svg width="30" height="32" viewBox="0 0 30 32" fill="none" xmlns="http://www.w3.org/2000/svg">
<path d="M27.1699 17.5163C26.3827 23.8661 21.7351 24.2652 20.8796 24.5403C18.2613 25.1799 15.5599 25.4098 12.8712 25.2221C12.8712 25.2221 9.69526 28.4692 8.70962 29.4644C8.65376 29.5301 8.58295 29.5814 8.50315 29.614C8.42336 29.6467 8.33689 29.6597 8.25102 29.652C8.0799 29.6102 8.03199 29.4083 8.03199 29.1126C8.03883 28.691 8.05937 24.465 8.05937 24.465C1.85804 22.7436 2.22081 16.2705 2.28926 12.8803C2.35771 9.49013 2.99427 6.7139 4.89026 4.84666C8.28525 1.76858 15.2874 2.22855 15.2874 2.22855C21.2013 2.25388 24.035 4.03419 24.6921 4.63105C26.8687 6.4983 27.9844 10.9672 27.1699 17.5149V17.5163ZM26.3211 3.04718C25.5477 2.33122 22.4059 0.0532937 15.4175 0.0224924C15.4175 0.0224924 7.1764 -0.47512 3.15854 3.21077C0.920312 5.44763 0.133168 8.72078 0.0510308 12.779C-0.031106 16.8373 -0.695046 24.4431 6.63566 26.5055V29.652C6.63566 30.4562 6.87523 31.639 8.03199 31.639C8.50428 31.639 9.17506 31.4583 10.1128 30.5055L13.2271 27.5027C16.0711 27.6526 18.9219 27.3977 21.6941 26.7457C22.7071 26.4172 28.4361 25.6834 29.367 18.0789C30.3253 10.2403 28.9016 5.28199 26.3211 3.04718V3.04718Z" fill="white"/>
<path fill-rule="evenodd" clip-rule="evenodd" d="M14.8485 5.62866C15.8373 5.62841 16.8165 5.82299 17.7301 6.20128C18.6437 6.57957 19.4738 7.13415 20.173 7.83336C20.8722 8.53256 21.4268 9.36267 21.8051 10.2763C22.1834 11.1899 22.378 12.1691 22.3777 13.1579C22.3761 13.3387 22.305 13.5119 22.1792 13.6418C22.0833 13.7375 21.9613 13.8027 21.8284 13.8291C21.6955 13.8556 21.5578 13.842 21.4325 13.7903C21.3073 13.7385 21.2003 13.6508 21.1249 13.5383C21.0494 13.4257 21.009 13.2934 21.0088 13.1579C21.0075 11.5244 20.3581 9.95826 19.2031 8.80325C18.0481 7.64824 16.4819 6.99883 14.8485 6.99761H14.7869C14.6054 6.99732 14.4315 6.92511 14.3032 6.79681C14.1749 6.66851 14.1027 6.49458 14.1024 6.31314C14.1016 6.22333 14.1188 6.13426 14.1529 6.05117C14.187 5.96807 14.2373 5.89261 14.3009 5.82921C14.3647 5.76543 14.4405 5.71488 14.5239 5.68046C14.6073 5.64605 14.6967 5.62844 14.7869 5.62866H14.8485Z" fill="white"/>
<path fill-rule="evenodd" clip-rule="evenodd" d="M14.8485 8.36646C15.4777 8.36637 16.1008 8.49025 16.6821 8.73101C17.2635 8.97176 17.7917 9.32469 18.2366 9.76962C18.6816 10.2145 19.0345 10.7428 19.2753 11.3241C19.516 11.9055 19.6399 12.5285 19.6398 13.1578C19.6395 13.2933 19.5991 13.4256 19.5237 13.5382C19.4483 13.6507 19.3412 13.7384 19.216 13.7902C19.0908 13.8419 18.9531 13.8555 18.8202 13.829C18.6873 13.8026 18.5652 13.7374 18.4694 13.6417C18.3435 13.5118 18.2725 13.3386 18.2709 13.1578C18.2706 12.2502 17.91 11.3798 17.2682 10.738C16.6265 10.0963 15.7561 9.73562 14.8485 9.7354H14.7869C14.6967 9.73562 14.6073 9.71802 14.5239 9.6836C14.4405 9.64919 14.3647 9.59864 14.3009 9.53485C14.2373 9.47145 14.187 9.39599 14.1529 9.3129C14.1188 9.2298 14.1016 9.14074 14.1024 9.05093C14.1027 8.86948 14.1749 8.69555 14.3032 8.56725C14.4315 8.43895 14.6054 8.36674 14.7869 8.36646H14.8485Z" fill="white"/>
<path d="M22.0858 19.9217C22.2126 19.7203 22.2675 19.4819 22.2414 19.2453C22.2153 19.0087 22.1098 18.788 21.942 18.6191C21.1043 17.8802 20.1965 17.2248 19.2315 16.6622C18.9925 16.5132 18.7088 16.4528 18.4299 16.4916C18.1509 16.5304 17.8944 16.6659 17.7051 16.8744L17.1507 17.565C16.4525 18.4275 14.317 17.1345 13.304 16.0756C12.243 15.0564 10.9494 12.9236 11.8118 12.2241L12.5031 11.6758C12.7117 11.4858 12.8472 11.2288 12.8859 10.9493C12.9247 10.6698 12.8643 10.3856 12.7153 10.146C12.1562 9.17883 11.5003 8.2709 10.7577 7.43619C10.5895 7.26813 10.3693 7.16217 10.133 7.13568C9.89671 7.1092 9.65844 7.16375 9.45723 7.2904C8.92766 7.60232 8.44777 7.99177 8.03352 8.44579C7.78608 8.67859 7.60925 8.97639 7.52329 9.30508C7.43734 9.63376 7.44574 9.98001 7.54754 10.3041C8.49967 12.9622 9.99639 15.3922 11.9419 17.4384C13.989 19.3811 16.4178 20.8766 19.0741 21.83C19.3984 21.9331 19.7452 21.9425 20.0745 21.8571C20.4039 21.7717 20.7025 21.595 20.9359 21.3474C21.3695 20.9151 21.755 20.437 22.0858 19.9217V19.9217Z" fill="white"/>
</svg>
